<svg width="150" height="123" viewBox="0 0 150 123" fill="none" xmlns="http://www.w3.org/2000/svg">
    <path d="M97.1967 63.9489L61.9726 54.3067L66.1433 38.8547L101.367 48.4968L97.1967 63.9489ZM106.21 32.0314C105.308 35.3767 102.341 38.5564 96.347 36.9154L76.2947 31.4264C70.3003 29.7854 69.3408 25.5312 70.2437 22.1859C71.1466 18.8406 74.1127 15.6609 80.1072 17.3018L100.159 22.7909C106.154 24.4318 107.113 28.6861 106.21 32.0314ZM107.69 48.2888L60.7953 35.4519L62.4435 29.3454L109.338 42.1823L107.69 48.2888ZM109.758 24.1639L71.139 13.5924L72.6726 7.91072L87.7914 12.0493L88.7803 8.38543L97.1619 10.6798L96.173 14.3437L111.292 18.4823L109.758 24.1639ZM90.8389 55.4228L91.5985 52.6085L72.5011 47.3808L71.7415 50.1951L90.8389 55.4228ZM98.041 29.7951C98.3277 28.7331 97.671 28.2112 96.7161 27.9498L80.4303 23.4917C79.4754 23.2304 78.6998 23.3602 78.4131 24.4222C78.1265 25.4842 78.7158 26.0446 79.6707 26.306L95.9565 30.7641C96.9114 31.0255 97.7544 30.8571 98.041 29.7951ZM115.846 67.6853L107.358 65.3618L109.651 56.8659L118.139 59.1893L115.846 67.6853ZM131.75 72.0388L123.262 69.7154L125.555 61.2195L134.043 63.5429L131.75 72.0388Z" fill="#D8A82D"/>
    <path d="M130.081 101L141.004 118L93.3403 117.5L45.6768 117L17.873 120.5L23.831 115.5L130.081 101Z" fill="#D8A82D"/>
    <path d="M0 99.5L107.739 110.5L20.8528 89L0 99.5Z" fill="#D8A82D"/>
    <path fill-rule="evenodd" clip-rule="evenodd" d="M85.2639 73.8901L114.689 68.5L124.889 111.928L44.5753 118.224L31.2755 115.668L19.8582 118.871L21.6971 121.398L16.6578 122.999L14.5431 120.141L11.8979 121.119L10.0566 114.809C13.1741 112.728 16.0949 109.846 18.2939 107.675C19.8811 106.109 21.0924 104.913 21.7304 104.658L21.7318 104.661L21.7315 104.659L46.6049 110.887L96.5305 94.5666L85.2639 73.8901ZM15.5969 117.572C17.8355 116.111 21.3479 113.814 22.8188 112.831L22.78 112.54L15.3073 116.623L15.5969 117.572Z" fill="#EFEEDF"/>
    <path fill-rule="evenodd" clip-rule="evenodd" d="M74.502 47.4915L77.3118 43.789L68.8588 35.3262H52.5161L57.9775 32.4707L51.0266 30L44.0277 35.3262L37.8196 40.0865L5.0789 78.6981L0 99.3262L30.4734 98.2683L26.5232 80.2849L45.139 46.446L56.4762 46.8652L59.8675 51.5681L64.3901 50.5232L58.5865 44.3262L55.7794 42.8318L62.5088 44.9095L67.0766 50.3262L70.5024 49.2428L65.9214 42.5L56.0314 38.9702L67.1658 41.1444L74.502 47.4915Z" fill="#EFEEDF"/>
</svg>