<svg width="160" height="150" viewBox="0 0 160 150" fill="none" xmlns="http://www.w3.org/2000/svg">
    <path d="M120.716 51.5504L116.046 52.0235C114.444 52.2086 113.885 51.6683 114.23 50.2539L125.475 4.23181L131.895 5.80028L127.947 21.957L130.34 22.5418L134.488 5.56914L140.907 7.13761L128.957 56.0429L124.327 56.3528C122.739 56.4835 122.166 55.9976 122.511 54.5832L128.48 30.1578L126.086 29.5729L120.716 51.5504ZM100.64 38.6321L87.6934 35.4686L96.3598 0L102.072 1.39567L99.4267 12.2212L100.95 12.5934L103.595 1.76785L109.307 3.16353L100.64 38.6321ZM114.784 42.088L101.837 38.9245L110.504 3.45596L116.216 4.85163L113.571 15.6772L115.094 16.0493L117.739 5.22381L123.451 6.61948L114.784 42.088ZM96.6299 30.2733L99.275 19.4477L97.7518 19.0756L95.1067 29.9011L96.6299 30.2733ZM110.774 33.7292L113.419 22.9037L111.896 22.5315L109.251 33.357L110.774 33.7292Z" fill="#D8A82D"/>
    <path d="M160.001 13.7055L150.938 46.0794L143.322 44.2185L150.209 11.3129L160.001 13.7055ZM148.026 60.3563L139.322 58.2295L141.449 49.5256L150.152 51.6523L148.026 60.3563Z" fill="#D8A82D"/>
    <path fill-rule="evenodd" clip-rule="evenodd" d="M33.2335 28.3975C39.2592 24.7179 59.3361 44.3625 78.0764 72.2749C96.8167 100.187 107.124 125.798 101.098 129.477C95.2672 133.038 76.2794 114.758 58.0771 88.2815C81.5901 122.517 107.585 145.428 116.815 139.792C126.284 134.01 114.524 100.373 90.5471 64.6612C66.5705 28.9498 39.4574 4.6874 29.9884 10.4696C20.7626 16.1032 31.6895 48.1785 54.4323 82.8517C36.854 56.0252 27.406 31.956 33.2335 28.3975Z" fill="#D8A82D"/>
    <ellipse cx="53.7126" cy="10.9577" rx="53.7126" ry="10.9577" transform="matrix(-0.557417 -0.830233 0.85346 -0.521158 89.8105 129.034)" fill="#9C6D38"/>
    <path fill-rule="evenodd" clip-rule="evenodd" d="M78.0745 72.2749C59.3342 44.3625 39.2573 24.7179 33.2315 28.3975C27.2057 32.0771 37.5129 57.6874 56.2532 85.5998C74.9935 113.512 95.0704 133.157 101.096 129.477C107.122 125.798 96.8148 100.187 78.0745 72.2749ZM77.2347 72.8327C61.1493 48.8747 44.369 31.737 39.7548 34.5546C35.1406 37.3722 44.4399 59.0781 60.5253 83.0362C76.6106 106.994 93.3909 124.132 98.0051 121.314C102.619 118.497 93.3201 96.7907 77.2347 72.8327Z" fill="#F5C622"/>
    <path d="M73.1094 52.8463L90.1682 75.1197L73.1095 90.7446L48.6608 136.453L36.8368 142.163L33.3594 137.456L40.4411 135.198L40.4728 132.28L32.7904 135.699L26.2142 145.551L22.1044 144.924L29.3129 130.993L44.646 127.071L57.5307 78.0383L73.1094 52.8463Z" fill="#EFEEDF"/>
    <path d="M26.3887 149L29.9233 133.715L33.4579 133.465L29.9233 148.499L26.3887 149Z" fill="#EFEEDF"/>
    <path fill-rule="evenodd" clip-rule="evenodd" d="M60.8254 49.275C66.4021 55.8641 72.3017 63.6777 78.0745 72.2758C86.2145 84.3998 92.7634 96.0894 97.0739 105.736L95.972 106.409C92.3084 97.468 85.7145 85.4638 77.2347 72.8337C71.3296 64.0385 65.3309 56.1625 59.8748 49.8555L60.8254 49.275Z" fill="#F5C622"/>
    <path fill-rule="evenodd" clip-rule="evenodd" d="M75.68 44.4061L63.1525 52.0559C68.0335 58.0239 73.109 64.8588 78.0901 72.2778C84.4776 81.7915 89.8853 91.0377 94.0006 99.2393L106.581 91.5572C102.166 83.0311 96.7732 73.9173 90.5607 64.6642C85.6722 57.383 80.6532 50.5778 75.68 44.4061Z" fill="#D8A82D"/>
    <path d="M113.338 91.1074L111.441 91.0891C110.965 91.0883 110.822 90.918 110.963 90.5265L115.834 76.9585L118.123 77.7804L116.42 82.5239L118.573 83.2971L117.849 85.3149L115.695 84.5417L113.338 91.1074ZM110.613 78.4328L105.99 76.7729L106.693 74.8153L113.605 77.297L110.209 86.7539L108.312 86.7356C107.836 86.7348 107.693 86.5645 107.834 86.173L110.613 78.4328ZM127.284 84.4185L124.784 83.521L123.838 86.1563L125.548 91.6665L123.365 92.2085L121.971 87.6621L117.788 90.4103L116.463 88.6085L121.524 85.3086L122.465 82.6883L119.754 81.7151L120.457 79.7575L127.987 82.4609L127.284 84.4185ZM127.554 96.2118L125.657 96.1935C125.181 96.1927 125.038 96.0224 125.179 95.6309L127.147 90.1495L125.069 89.4033L125.783 87.4156L127.861 88.1617L128.201 87.213L126.123 86.4669L126.837 84.4791L128.915 85.2253L130.051 82.0629L132.34 82.8848L127.554 96.2118ZM138.879 97.864L129.889 94.6361L130.603 92.6483L133.991 93.8649L134.575 92.2385C132.631 91.1665 132.35 89.2976 132.885 87.8068C133.486 86.1353 135.193 84.7422 137.858 85.6992L138.536 85.9425C141.231 86.9104 141.617 89.055 141.017 90.7265C140.482 92.2173 139.101 93.5065 136.894 93.0712L136.31 94.6975L139.593 95.8762L138.879 97.864ZM140.928 101.013L139.03 100.995C138.554 100.994 138.412 100.824 138.552 100.432L143.424 86.8645L145.713 87.6864L143.874 92.8064L145.967 93.5579L145.243 95.5758L143.15 94.8242L140.928 101.013ZM138.698 89.8938C139.049 88.915 138.616 88.1813 137.682 87.8461L137.306 87.7109C136.372 87.3757 135.556 87.6606 135.204 88.6394C134.853 89.6182 135.302 90.3573 136.235 90.6926L136.612 90.8277C137.545 91.163 138.347 90.8726 138.698 89.8938ZM155.302 98.1504C154.324 99.3122 152.676 99.6387 151.697 99.2873C150.387 98.8169 150.057 97.3214 149.033 96.9537C148.642 96.8131 147.864 96.9421 147.24 97.6869L146.216 95.9932C147.133 94.8604 148.806 94.5091 149.785 94.8605C151.11 95.3363 151.455 96.8373 152.449 97.1941C152.841 97.3347 153.608 97.1853 154.257 96.4664L155.302 98.1504Z" fill="#D8A82D"/>
    <path d="M16.6567 58.9177C17.1738 60.2616 16.8467 62.0847 14.3678 63.0385L10.6645 64.4634C8.18568 65.4172 6.72089 64.2836 6.20377 62.9397C5.68665 61.5957 6.01379 59.7727 8.49262 58.8189L12.1959 57.3939C14.6748 56.4401 16.1396 57.5737 16.6567 58.9177ZM14.822 66.2239L15.2357 67.299L20.7658 67.7256L20.3479 69.8921L14.7168 69.4702L10.8209 73.5579L9.05852 72.2302L12.8763 68.2068L12.4627 67.1317L14.822 66.2239ZM20.0817 63.72L6.88119 68.7993L6.15723 66.9178L19.3578 61.8385L20.0817 63.72ZM14.357 59.8025C14.1215 59.1903 13.6034 59.0467 12.9165 59.3111L9.24301 60.7245C8.5561 60.9888 8.26784 61.4426 8.50341 62.0548C8.73899 62.6671 9.25709 62.8106 9.94399 62.5463L13.6174 61.1328C14.3043 60.8685 14.5926 60.4147 14.357 59.8025ZM22.4026 83.5193L21.1508 85.3896L17.1885 83.0226L15.8141 87.6487L13.6463 87.0942L15.3262 81.6134L14.5907 79.702L11.7684 80.7879L11.0215 78.8467L13.8288 77.7665L13.1968 76.1239L15.5263 75.2275L16.1583 76.8701L18.906 75.8129L19.6529 77.7542L16.8904 78.8171L17.6201 80.7136L22.4026 83.5193ZM26.7107 86.0275L25.2623 87.2534C24.9017 87.5636 24.6823 87.528 24.5329 87.1398L19.356 73.6854L21.6257 72.812L22.6887 75.5746L24.8241 74.753L25.594 76.7539L23.4586 77.5756L24.2975 79.7558L26.4329 78.9341L27.2028 80.9351L25.0674 81.7567L26.7107 86.0275Z" fill="#D8A82D"/>
</svg>