<svg width="174" height="108" viewBox="0 0 174 108" fill="none" xmlns="http://www.w3.org/2000/svg">
    <path d="M134.716 51.5504L130.046 52.0235C128.444 52.2086 127.885 51.6683 128.23 50.2539L139.475 4.23181L145.895 5.80028L141.947 21.957L144.34 22.5418L148.488 5.56914L154.907 7.13761L142.957 56.0429L138.327 56.3528C136.739 56.4835 136.166 55.9976 136.511 54.5832L142.48 30.1578L140.086 29.5729L134.716 51.5504ZM114.64 38.6321L101.693 35.4686L110.36 0L116.072 1.39567L113.427 12.2212L114.95 12.5934L117.595 1.76785L123.307 3.16353L114.64 38.6321ZM128.784 42.088L115.837 38.9245L124.504 3.45596L130.216 4.85163L127.571 15.6772L129.094 16.0493L131.739 5.22381L137.451 6.61948L128.784 42.088ZM110.63 30.2733L113.275 19.4477L111.752 19.0756L109.107 29.9011L110.63 30.2733ZM124.774 33.7292L127.419 22.9037L125.896 22.5315L123.251 33.357L124.774 33.7292Z" fill="#D8A82D"/>
    <path d="M174.001 13.7055L164.938 46.0794L157.322 44.2185L164.209 11.3129L174.001 13.7055ZM162.026 60.3563L153.322 58.2295L155.449 49.5256L164.152 51.6523L162.026 60.3563Z" fill="#D8A82D"/>
    <path fill-rule="evenodd" clip-rule="evenodd" d="M174 85.356C174 97.5062 135.049 107.356 87 107.356C38.9512 107.356 0 97.5062 0 85.356C0 73.2057 38.9512 63.356 87 63.356C49.4446 63.356 19 69.624 19 77.356C19 85.0879 49.4446 91.356 87 91.356C124.555 91.356 155 85.0879 155 77.356C155 69.624 124.555 63.356 87 63.356C135.049 63.356 174 73.2057 174 85.356Z" fill="#D8A82D"/>
    <ellipse cx="86" cy="79.356" rx="60" ry="12" fill="#9C6D38"/>
    <path fill-rule="evenodd" clip-rule="evenodd" d="M87 91.356C124.555 91.356 155 85.0879 155 77.356C155 69.624 124.555 63.356 87 63.356C49.4446 63.356 19 69.624 19 77.356C19 85.0879 49.4446 91.356 87 91.356ZM86.9563 90.2508C119.191 90.2508 145.323 85.4511 145.323 79.5304C145.323 73.6097 119.191 68.8101 86.9563 68.8101C54.7214 68.8101 28.5898 73.6097 28.5898 79.5304C28.5898 85.4511 54.7214 90.2508 86.9563 90.2508Z" fill="#F5C622"/>
    <g clip-path="url(#clip0_4836_8574)">
        <g filter="url(#filter0_d_4836_8574)">
            <path d="M71.673 53.2867C71.2618 53.7416 70.102 55.032 70.1096 56.7361C70.1256 59.0615 72.2952 61.1835 74.154 62.0045C77.9031 63.655 80.6028 60.0323 89.2539 56.6454C93.1684 55.1176 104.841 50.5488 111.268 54.054C111.785 54.3338 113.271 55.2163 115.369 55.3951C115.566 55.4142 119.79 55.6177 121.477 52.9884C122.873 50.8192 122.044 47.7109 121.262 46.3579C114.755 35.0675 77.024 47.3268 71.6588 53.2896L71.673 53.2867Z" fill="#F2A430"/>
            <mask id="mask0_4836_8574" style="mask-type:luminance" maskUnits="userSpaceOnUse" x="70" y="41" width="53" height="22">
                <path d="M71.673 53.2876C71.2618 53.7426 70.102 55.033 70.1096 56.7371C70.1256 59.0625 72.2952 61.1844 74.154 62.0055C77.9031 63.6559 80.6028 60.0333 89.2539 56.6463C93.1684 55.1186 104.841 50.5498 111.268 54.0549C111.785 54.3348 113.271 55.2173 115.369 55.3961C115.566 55.4151 119.79 55.6186 121.477 52.9894C122.873 50.8202 122.044 47.7119 121.262 46.3589C114.755 35.0685 77.024 47.3278 71.6588 53.2905L71.673 53.2876Z" fill="white"/>
            </mask>
            <g mask="url(#mask0_4836_8574)">
                <path d="M75.28 50.3225C76.2335 50.0532 82.1491 48.0121 81.325 48.5516C76.7021 51.6185 74.5811 54.663 74.9077 56.3315C75.4903 59.1787 80.5641 61.359 82.4112 61.4705C84.2584 61.582 68.1796 65.3467 68.1796 65.3467L67.8172 52.4132L75.28 50.3225Z" fill="#F7BF76"/>
            </g>
            <path d="M71.6588 53.2896C71.2476 53.7445 70.102 55.032 70.1096 56.7361C70.1256 59.0615 72.2952 61.1835 74.154 62.0045C77.9031 63.655 80.6028 60.0323 89.2539 56.6454C93.1684 55.1176 104.841 50.5488 111.268 54.054C111.785 54.3338 113.271 55.2163 115.369 55.3951C115.566 55.4142 119.79 55.6177 121.477 52.9884C122.872 50.8192 122.044 47.7109 121.262 46.3579C114.755 35.0675 77.024 47.3268 71.6588 53.2896Z" stroke="#070706" stroke-width="2.17964" stroke-miterlimit="10"/>
            <path d="M74.2063 102.961C74.3578 103.049 74.5205 103.119 74.7059 103.155C75.5989 103.388 76.5433 103.002 77.236 102.4C77.9287 101.799 78.4039 101.004 78.8963 100.221C82.595 94.3772 87.3229 89.2865 92.0253 84.2158C100.043 75.5596 108.064 66.9176 116.082 58.2614C116.822 57.4573 117.613 56.5391 117.554 55.4535C117.498 54.3082 116.904 52.9315 115.803 52.623C113.429 51.9667 111.16 51.8969 108.918 51.9554C99.9792 52.1974 91.075 53.7673 82.5807 56.5437C80.3583 57.2803 78.1647 58.0851 76.0058 58.9867C74.9533 59.4245 74.2075 59.6216 73.7336 60.7123C73.3273 61.6261 73.1921 62.6326 73.0654 63.6078C72.0336 71.9024 71.535 80.2659 71.5693 88.6241C71.5912 92.2831 71.7074 95.9674 72.3732 99.5836C72.6098 100.885 73.1036 102.356 74.2063 102.961Z" fill="#FAD22A"/>
            <mask id="mask1_4836_8574" style="mask-type:luminance" maskUnits="userSpaceOnUse" x="71" y="51" width="47" height="53">
                <path d="M74.2161 102.961C74.3675 103.049 74.5303 103.119 74.7157 103.155C75.6087 103.388 76.5531 103.002 77.2458 102.4C77.9384 101.799 78.4137 101.004 78.9061 100.221C82.6047 94.3772 87.3327 89.2865 92.0351 84.2158C100.053 75.5596 108.074 66.9176 116.092 58.2614C116.832 57.4573 117.623 56.5391 117.564 55.4535C117.507 54.3082 116.914 52.9315 115.813 52.623C113.439 51.9667 111.17 51.8969 108.928 51.9554C99.989 52.1974 91.0847 53.7673 82.5905 56.5437C80.3681 57.2803 78.1745 58.0851 76.0155 58.9867C74.963 59.4245 74.2173 59.6216 73.7434 60.7123C73.3371 61.6261 73.2019 62.6326 73.0751 63.6078C72.0433 71.9024 71.5447 80.2659 71.579 88.6241C71.601 92.2831 71.7171 95.9674 72.3829 99.5836C72.6196 100.885 73.1134 102.356 74.2161 102.961Z" fill="white"/>
            </mask>
            <g mask="url(#mask1_4836_8574)">
                <path d="M83.7601 55.1759C83.7601 55.1759 72.4555 66.1807 74.7116 103.155C76.9676 140.129 68.175 100.785 68.175 100.785L70.5318 59.099L83.7601 55.1759Z" fill="#EFEEDF"/>
                <path d="M117.13 53.048C110.681 51.1787 75.7989 95.263 74.9559 100.493C74.1183 105.678 82.0421 102.796 82.0421 102.796L123.793 56.9055L112.479 50.5438" fill="#F6A42B"/>
            </g>
            <path d="M74.2063 102.961C74.3578 103.049 74.5205 103.119 74.7059 103.155C75.5989 103.388 76.5433 103.002 77.236 102.4C77.9287 101.799 78.4039 101.004 78.8963 100.221C82.595 94.3772 87.3229 89.2865 92.0253 84.2158C100.043 75.5596 108.064 66.9176 116.082 58.2614C116.822 57.4573 117.613 56.5391 117.554 55.4535C117.498 54.3082 116.904 52.9315 115.803 52.623C113.429 51.9667 111.16 51.8969 108.918 51.9554C99.9792 52.1974 91.075 53.7673 82.5807 56.5437C80.3583 57.2803 78.1647 58.0851 76.0058 58.9867C74.9533 59.4245 74.2075 59.6216 73.7336 60.7123C73.3273 61.6261 73.1921 62.6326 73.0654 63.6078C72.0336 71.9024 71.535 80.2659 71.5693 88.6241C71.5912 92.2831 71.7074 95.9674 72.3732 99.5836C72.6098 100.885 73.1036 102.356 74.2063 102.961Z" stroke="#070706" stroke-width="2.17964" stroke-miterlimit="10"/>
            <path d="M73.7926 60.7143L73.3812 63.7056C73.8694 62.6119 74.6009 62.4177 75.6534 61.9799C77.8124 61.0783 80.0059 60.2735 82.2284 59.5369C90.7197 56.7463 99.6269 55.1906 108.566 54.9486C110.187 54.8986 111.826 54.9341 113.511 55.1973C114.555 55.3694 115.455 56.0009 116.06 56.856C116.436 57.3872 116.933 57.6415 117.353 56.5026C117.648 55.7005 117.545 54.9799 117.289 54.3798C116.805 53.2477 115.594 52.5463 114.376 52.3209C112.494 51.9645 110.775 51.9009 108.963 51.9603C100.024 52.2023 91.1197 53.7722 82.6254 56.5486C80.403 57.2852 78.2094 58.09 76.0505 58.9916C74.998 59.4294 74.2522 59.6265 73.7783 60.7172L73.7534 60.8855" fill="#E78030"/>
            <path d="M73.7926 60.7143L73.3812 63.7056C73.8694 62.6119 74.6009 62.4177 75.6534 61.9799C77.8124 61.0783 80.006 60.2735 82.2284 59.5369C90.7197 56.7463 99.6269 55.1906 108.566 54.9486C110.187 54.8986 111.826 54.9341 113.511 55.1973C114.555 55.3694 115.455 56.0009 116.06 56.856C116.436 57.3872 116.933 57.6415 117.353 56.5026C117.648 55.7005 117.545 54.9799 117.289 54.3798C116.805 53.2477 115.594 52.5463 114.376 52.3209C112.494 51.9645 110.775 51.9009 108.963 51.9603C100.024 52.2023 91.1197 53.7722 82.6254 56.5486C80.403 57.2852 78.2094 58.09 76.0505 58.9916C74.998 59.4294 74.2522 59.6265 73.7783 60.7172L73.7534 60.8855" stroke="#070706" stroke-width="2.17964" stroke-miterlimit="10"/>
            <path d="M122.205 48.5374C123.335 54.061 118.327 56.9102 117.355 54.3355C116.103 51.0467 113.088 53.6363 112.453 50.5329C111.818 47.4294 113.481 44.464 116.171 43.9134C118.862 43.3628 121.556 45.4369 122.191 48.5403L122.205 48.5374Z" fill="#FFC686" stroke="#070706" stroke-width="2.17964" stroke-miterlimit="10"/>
            <path d="M119.837 48.8134C120.347 51.3047 118.573 52.8543 118.129 51.6993C117.558 50.2142 115.396 51.0275 115.11 49.6324C114.825 48.2372 115.902 46.9785 117.112 46.7309C118.322 46.4833 119.552 47.4183 119.837 48.8134Z" fill="#EB9D69"/>
            <path d="M79.2637 91.8678C76.2448 89.0742 75.9163 83.7722 80.1392 79.1853C84.3651 74.6125 92.4098 73.9156 91.44 77.5847C90.1452 82.4921 95.3018 84.7148 91.0902 89.2846C86.8786 93.8544 82.2969 94.6585 79.2637 91.8678Z" fill="#DD3E3D" stroke="#070706" stroke-width="2.17964" stroke-miterlimit="10"/>
            <path d="M71.3302 75.0121C72.6036 76.8132 75.9597 76.6159 78.8459 74.5569C81.7322 72.4979 83.0264 69.4002 81.7531 67.5991C80.4798 65.798 75.5215 67.1537 72.6466 69.1955C69.7717 71.2374 70.0427 73.2139 71.3302 75.0121Z" fill="#DD3E3D" stroke="#070706" stroke-width="2.00527" stroke-miterlimit="10"/>
            <path d="M96.7261 67.5737C97.7441 68.9969 100.409 68.8373 102.701 67.2113C104.994 65.5853 106.014 63.1072 105.01 61.681C104.007 60.2549 100.059 61.3297 97.7805 62.9528C95.5022 64.5759 95.7082 66.1505 96.7261 67.5737Z" fill="#DD3E3D" stroke="#070706" stroke-width="1.45309" stroke-miterlimit="10"/>
            <path d="M91.968 71.7083C92.4039 72.3162 93.4014 72.3345 94.2025 71.7553C95.0035 71.1761 95.3128 70.2229 94.8941 69.6263C94.4753 69.0297 93.0233 69.3269 92.2051 69.8948C91.3869 70.4626 91.5322 71.1003 91.968 71.7083Z" fill="#009133"/>
            <path d="M82.1051 65.984C82.3144 66.2823 83.1456 66.0677 83.9609 65.4856C84.7762 64.9034 85.2547 64.1974 85.0311 63.902C84.8075 63.6066 83.5389 64.148 82.7349 64.713C81.9309 65.278 81.8928 65.6714 82.1051 65.984Z" fill="#009133"/>
            <path d="M75.4605 81.9537C75.6699 82.252 76.5011 82.0374 77.3164 81.4553C78.1317 80.8732 78.6101 80.1671 78.3865 79.8718C78.1629 79.5764 76.8944 80.1178 76.0904 80.6827C75.2864 81.2477 75.2483 81.6412 75.4605 81.9537Z" fill="#009133"/>
            <path d="M108.755 45.4314C109.494 45.2802 110.037 44.8835 109.968 44.5454C109.898 44.2074 109.243 44.0559 108.504 44.2071C107.765 44.3584 107.222 44.755 107.291 45.0931C107.36 45.4312 108.016 45.5826 108.755 45.4314Z" fill="#070706"/>
            <path d="M105.089 46.8181C105.828 46.6669 106.371 46.2702 106.302 45.9322C106.232 45.5941 105.577 45.4426 104.838 45.5939C104.099 45.7451 103.556 46.1417 103.625 46.4798C103.694 46.8179 104.35 46.9694 105.089 46.8181Z" fill="#070706"/>
        </g>
    </g>
    <path fill-rule="evenodd" clip-rule="evenodd" d="M119 89.7113C109.463 90.7605 98.5688 91.3553 87 91.3553C70.6878 91.3553 55.7171 90.1727 44 88.2013V86.7876C54.6667 88.9163 69.9634 90.2501 86.9563 90.2501C98.7905 90.2501 109.802 89.6032 119 88.4914V89.7113Z" fill="#F5C622"/>
    <path fill-rule="evenodd" clip-rule="evenodd" d="M115 106.191C106.213 106.946 96.7958 107.355 87 107.355C74.5493 107.355 62.7095 106.694 52 105.502V89.3608C62.2245 90.627 74.1992 91.3552 87 91.3552C96.9817 91.3552 106.461 90.9125 115 90.1171V106.191Z" fill="#D8A82D"/>
    <defs>
        <filter id="filter0_d_4836_8574" x="68.0996" y="39.7383" width="63.6388" height="72.8561" filterUnits="userSpaceOnUse" color-interpolation-filters="sRGB">
            <feFlood flood-opacity="0" result="BackgroundImageFix"/>
            <feColorMatrix in="SourceAlpha" type="matrix" values="0 0 0 0 0 0 0 0 0 0 0 0 0 0 0 0 0 0 127 0" result="hardAlpha"/>
            <feOffset dx="3.67974" dy="3.67974"/>
            <feGaussianBlur stdDeviation="2.29984"/>
            <feComposite in2="hardAlpha" operator="out"/>
            <feColorMatrix type="matrix" values="0 0 0 0 0 0 0 0 0 0 0 0 0 0 0 0 0 0 0.25 0"/>
            <feBlend mode="normal" in2="BackgroundImageFix" result="effect1_dropShadow_4836_8574"/>
            <feBlend mode="normal" in="SourceGraphic" in2="effect1_dropShadow_4836_8574" result="shape"/>
        </filter>
        <clipPath id="clip0_4836_8574">
            <rect x="43" y="36.3989" width="90" height="65" rx="32.5" transform="rotate(-11.5646 43 36.3989)" fill="white"/>
        </clipPath>
    </defs>
</svg>