<svg xmlns="http://www.w3.org/2000/svg" width="52" height="42" viewBox="0 0 52 42" fill="none">
    <path d="M43.3578 26.8882L49.2485 3.91699H40.9308L37.9844 15.4026H36.5413L39.4877 3.91699H31.169L26.259 23.06H15.0552L16.0369 19.2318H7.71819L4.85352 30.4034H24.3761L23.3943 34.2316H31.7131L34.6584 22.746H36.1015L33.1562 34.2316L41.7986 34.2337L39.835 41.8933L48.1549 41.889L52.0002 26.8925L43.3578 26.8882Z" fill="#070706"/>
    <path d="M8.0854 17.7993H16.4031L18.0806 11.2602H19.5237L16.8644 21.6275H25.1831L29.7318 3.89102L2.86038 0.106934L0 11.2602H9.76184L8.0854 17.7993Z" fill="#070706"/>
    <path d="M4.29534 35.3853H7.03743C7.50842 35.3853 7.89876 35.4777 8.21061 35.6627C8.52138 35.8476 8.73214 36.1079 8.8429 36.4445C8.95259 36.781 8.95044 37.1714 8.83645 37.6144C8.72139 38.0607 8.52138 38.4489 8.23642 38.7811C7.95146 39.1134 7.6009 39.3693 7.1869 39.5489C6.77289 39.7285 6.32233 39.8178 5.83736 39.8178H4.18673L4.52223 38.5177H5.84058C6.05027 38.5177 6.23953 38.4811 6.41051 38.4069C6.58149 38.3327 6.72343 38.2273 6.83634 38.0929C6.94925 37.9585 7.0299 37.7983 7.07721 37.6144C7.12453 37.4305 7.12668 37.2714 7.08259 37.1359C7.0385 37.0004 6.95032 36.8982 6.81698 36.8283C6.68364 36.7584 6.51159 36.723 6.30298 36.723H5.6438L4.35555 41.7243H2.66406L4.29749 35.3853H4.29534Z" fill="#070706"/>
    <path d="M10.1395 41.7253H8.46094L10.0944 35.3862H11.773L10.1395 41.7253Z" fill="#070706"/>
    <path d="M13.8602 39.7975C13.657 39.8083 13.4946 39.819 13.3742 39.8319C13.2215 39.8481 13.0881 39.9007 12.9752 39.99C12.8623 40.0793 12.7892 40.1889 12.7548 40.3212C12.7311 40.4115 12.7333 40.49 12.7623 40.5545C12.7903 40.6191 12.8408 40.6685 12.9129 40.6997C12.9849 40.732 13.072 40.7481 13.1752 40.7481C13.3172 40.7481 13.457 40.7191 13.5946 40.6599C13.7323 40.6008 13.8505 40.5191 13.9516 40.4126C14.0516 40.3061 14.1205 40.1825 14.157 40.0395L14.5484 38.4738C14.571 38.3867 14.5667 38.3114 14.5377 38.248C14.5076 38.1845 14.457 38.1361 14.3828 38.1039C14.3097 38.0716 14.2183 38.0555 14.1097 38.0555C13.9925 38.0555 13.8871 38.0716 13.7925 38.1049C13.6979 38.1383 13.615 38.1877 13.5419 38.2544C13.4688 38.3211 13.414 38.4039 13.3763 38.5007H11.8257C11.9246 38.205 12.0902 37.9361 12.3236 37.6942C12.5569 37.4522 12.8516 37.2608 13.2086 37.1199C13.5656 36.9802 13.9721 36.9092 14.4291 36.9092C14.8657 36.9092 15.2345 36.9759 15.5334 37.1092C15.8324 37.2425 16.0421 37.4286 16.1614 37.6662C16.2808 37.9039 16.3023 38.1748 16.2238 38.4759L15.3861 41.7256H13.814L13.986 41.0567H13.9484C13.8097 41.2299 13.6591 41.3707 13.4957 41.4793C13.3333 41.5879 13.157 41.6686 12.9688 41.7224C12.7806 41.7761 12.5774 41.803 12.3601 41.803C12.0483 41.803 11.7881 41.7514 11.5795 41.6492C11.3698 41.5471 11.2257 41.3922 11.1472 41.1836C11.0676 40.975 11.0687 40.7169 11.1472 40.4094C11.2741 39.9158 11.5311 39.5491 11.9171 39.3093C12.3031 39.0684 12.7698 38.9319 13.3161 38.8996C13.4365 38.8932 13.5978 38.8867 13.7968 38.8781C13.9968 38.8695 14.171 38.8631 14.3183 38.8566C14.3861 38.8545 14.4527 38.8523 14.5172 38.8502L14.2839 39.7782C14.2022 39.7803 14.0592 39.7868 13.8559 39.7964L13.8602 39.7975Z" fill="#070706"/>
    <path d="M17.2741 41.5071C16.9526 41.3028 16.7396 41.0157 16.6375 40.6468C16.5353 40.2769 16.5461 39.8489 16.6719 39.3618C16.7977 38.8747 17.0063 38.4467 17.2999 38.0779C17.5924 37.709 17.9526 37.4219 18.3795 37.2176C18.8064 37.0133 19.2742 36.9111 19.7828 36.9111C20.2452 36.9111 20.628 36.9939 20.9302 37.1585C21.2324 37.3241 21.4388 37.5574 21.5496 37.8617C21.6593 38.165 21.6646 38.5187 21.5646 38.9231H20.0054C20.0334 38.7575 20.0312 38.6177 19.999 38.5015C19.9667 38.3854 19.9065 38.2983 19.8183 38.2402C19.7301 38.1811 19.6194 38.1521 19.4882 38.1521C19.329 38.1521 19.1785 38.1972 19.0376 38.2865C18.8967 38.3757 18.7699 38.5101 18.658 38.6887C18.5462 38.8672 18.4569 39.0876 18.3892 39.3489C18.3214 39.6113 18.2978 39.8317 18.3171 40.0102C18.3376 40.1887 18.3946 40.3232 18.4892 40.4146C18.5838 40.5049 18.7107 40.5511 18.8699 40.5511C19.0021 40.5511 19.1269 40.521 19.2452 40.4597C19.3634 40.3984 19.4688 40.3113 19.5624 40.1963C19.6559 40.0823 19.7291 39.9436 19.7839 39.7801H21.3431C21.2291 40.1909 21.0399 40.549 20.7743 40.8544C20.5097 41.1598 20.1828 41.3963 19.7957 41.563C19.4086 41.7297 18.9839 41.8136 18.5215 41.8136C18.0107 41.8136 17.5945 41.7114 17.273 41.5071H17.2741Z" fill="#070706"/>
    <path d="M22.5943 41.5201C22.2739 41.3244 22.061 41.0426 21.9588 40.6749C21.8556 40.3071 21.8696 39.8705 22.0008 39.3619C22.1255 38.8769 22.3363 38.4479 22.632 38.0758C22.9277 37.7037 23.2847 37.4166 23.7041 37.2134C24.1235 37.0112 24.5772 36.9102 25.0644 36.9102C25.5418 36.9102 25.9343 37.0069 26.2429 37.2016C26.5515 37.3951 26.7569 37.6758 26.8591 38.0425C26.9612 38.4092 26.9473 38.8436 26.8182 39.3469L26.7182 39.7372H22.4438L22.6814 38.8146H25.4052C25.4397 38.6726 25.4364 38.5457 25.3956 38.4339C25.3536 38.3221 25.2816 38.236 25.1783 38.1737C25.0751 38.1113 24.9493 38.0812 24.8009 38.0812C24.6525 38.0812 24.5084 38.1124 24.3686 38.1758C24.2288 38.2393 24.1084 38.3264 24.0062 38.4393C23.9041 38.5522 23.8331 38.6791 23.7944 38.821L23.5417 39.8017C23.4987 39.9673 23.4955 40.1125 23.5309 40.2394C23.5664 40.3663 23.6396 40.4652 23.7514 40.5362C23.8632 40.6071 24.0052 40.6426 24.1783 40.6426C24.302 40.6426 24.4192 40.6254 24.5299 40.5921C24.6407 40.5577 24.7407 40.5093 24.8299 40.4448C24.9192 40.3813 24.9923 40.305 25.0504 40.2157H26.5881C26.4505 40.5394 26.2494 40.8222 25.9859 41.062C25.7225 41.3029 25.4074 41.4878 25.0407 41.6179C24.6751 41.7481 24.2751 41.8126 23.8417 41.8126C23.3309 41.8126 22.9159 41.7147 22.5954 41.5179L22.5943 41.5201Z" fill="#070706"/>
    <path d="M27.4111 41.7103C27.2982 41.634 27.2186 41.5307 27.1745 41.4028C27.1304 41.2737 27.1294 41.1318 27.1713 40.9769C27.2089 40.8242 27.2821 40.6834 27.3928 40.5543C27.5036 40.4253 27.6348 40.3242 27.7864 40.25C27.938 40.1758 28.0928 40.1382 28.2498 40.1382C28.4004 40.1382 28.5316 40.1758 28.6445 40.25C28.7574 40.3242 28.8359 40.4264 28.8811 40.5565C28.9262 40.6866 28.9305 40.8264 28.894 40.978C28.852 41.1307 28.7757 41.2716 28.6638 41.4017C28.552 41.5318 28.4197 41.635 28.2692 41.7114C28.1176 41.7877 27.967 41.8265 27.8165 41.8254C27.6595 41.8254 27.5251 41.7867 27.4111 41.7103Z" fill="#070706"/>
</svg>