<svg width="160" height="48" viewBox="0 0 160 48" fill="none" xmlns="http://www.w3.org/2000/svg">
    <rect width="160" height="48" rx="24" fill="#070706"/>
    <path d="M46.7886 23.2498C46.8079 21.5579 47.7019 19.991 49.1438 19.097C48.2306 17.7896 46.7502 16.9918 45.1544 16.9437C43.4722 16.7707 41.8476 17.9434 40.992 17.9434C40.1365 17.9434 38.8003 16.9533 37.3872 16.9821C35.5223 17.0398 33.8208 18.078 32.9172 19.7122C30.985 23.0575 32.4269 27.9793 34.2822 30.6806C35.2051 32.0071 36.2913 33.4875 37.7044 33.4299C39.0887 33.3722 39.6078 32.5455 41.2804 32.5455C42.9531 32.5455 43.4241 33.4299 44.866 33.401C46.3561 33.3722 47.2885 32.0744 48.1825 30.7286C48.8458 29.7866 49.3649 28.7387 49.7013 27.6333C47.9326 26.8835 46.7886 25.1531 46.779 23.2402L46.7886 23.2498Z" fill="#EFEEDF"/>
    <path d="M44.0572 15.1653C44.8647 14.1944 45.2685 12.9351 45.1723 11.6758C43.9323 11.8104 42.7883 12.3968 41.9616 13.3388C41.1541 14.2617 40.7408 15.4729 40.8177 16.7033C42.077 16.713 43.269 16.1554 44.0572 15.1749V15.1653Z" fill="#EFEEDF"/>
    <path d="M63.4189 30.221H58.872L57.7761 33.451H55.8535L60.1601 21.5117H62.1596L66.4662 33.451H64.5051L63.4093 30.221H63.4189ZM59.343 28.731H62.9479L61.1695 23.492H61.1214L59.343 28.731Z" fill="#EFEEDF"/>
    <path d="M75.7819 29.0958C75.7819 31.797 74.3303 33.5369 72.1482 33.5369C71.0235 33.5946 69.9564 33.0082 69.4085 32.0181H69.37V36.3247H67.582V24.7411H69.3124V26.1927H69.3412C69.9084 25.2121 70.9754 24.6161 72.1097 24.6546C74.3207 24.6546 75.7722 26.4041 75.7722 29.0958H75.7819ZM73.9458 29.0958C73.9458 27.3366 73.0326 26.1734 71.6483 26.1734C70.264 26.1734 69.3604 27.3558 69.3604 29.0958C69.3604 30.8357 70.2833 32.0277 71.6483 32.0277C73.0133 32.0277 73.9458 30.8741 73.9458 29.0958Z" fill="#EFEEDF"/>
    <path d="M85.3561 29.0958C85.3561 31.797 83.9045 33.5369 81.7224 33.5369C80.5977 33.5946 79.5306 33.0082 78.9827 32.0181H78.9443V36.3247H77.1562V24.7411H78.8866V26.1927H78.9154C79.4826 25.2121 80.5496 24.6161 81.6839 24.6546C83.8949 24.6546 85.3465 26.4041 85.3465 29.0958H85.3561ZM83.52 29.0958C83.52 27.3366 82.6068 26.1734 81.2225 26.1734C79.8383 26.1734 78.9346 27.3558 78.9346 29.0958C78.9346 30.8357 79.8575 32.0277 81.2225 32.0277C82.5876 32.0277 83.52 30.8741 83.52 29.0958Z" fill="#EFEEDF"/>
    <path d="M91.6917 30.1246C91.8263 31.307 92.9702 32.0857 94.5467 32.0857C96.1232 32.0857 97.1326 31.307 97.1326 30.24C97.1326 29.3171 96.4789 28.7596 94.9312 28.3751L93.3836 28.0002C91.1918 27.4715 90.1728 26.4429 90.1728 24.7798C90.1728 22.7227 91.9705 21.3096 94.5179 21.3096C97.0653 21.3096 98.7668 22.7227 98.8245 24.7798H97.0173C96.9115 23.5878 95.9214 22.8669 94.4891 22.8669C93.0567 22.8669 92.0666 23.5974 92.0666 24.6549C92.0666 25.5008 92.6914 25.9911 94.2295 26.3756L95.5465 26.7024C97.9978 27.2792 99.0167 28.2693 99.0167 30.0093C99.0167 32.2395 97.2383 33.6429 94.4121 33.6429C91.7686 33.6429 89.9806 32.2779 89.8652 30.115H91.6917V30.1246Z" fill="#EFEEDF"/>
    <path d="M102.881 22.6851V24.7422H104.534V26.1553H102.881V30.9522C102.881 31.702 103.208 32.048 103.938 32.048C104.131 32.048 104.333 32.0288 104.525 32.0096V33.4131C104.198 33.4708 103.861 33.4996 103.535 33.4996C101.775 33.4996 101.083 32.8363 101.083 31.154V26.1649H99.8145V24.7518H101.083V22.6947H102.881V22.6851Z" fill="#EFEEDF"/>
    <path d="M105.488 29.0956C105.488 26.356 107.103 24.6353 109.612 24.6353C112.121 24.6353 113.736 26.356 113.736 29.0956C113.736 31.8353 112.14 33.556 109.612 33.556C107.084 33.556 105.488 31.8449 105.488 29.0956ZM111.929 29.0956C111.929 27.2211 111.064 26.106 109.622 26.106C108.18 26.106 107.315 27.2211 107.315 29.0956C107.315 30.9702 108.18 32.0853 109.622 32.0853C111.064 32.0853 111.929 30.9894 111.929 29.0956Z" fill="#EFEEDF"/>
    <path d="M115.225 24.7421H116.926V26.2225H116.965C117.205 25.2708 118.08 24.6171 119.06 24.6459C119.262 24.6459 119.474 24.6652 119.675 24.7132V26.3859C119.416 26.309 119.147 26.2705 118.878 26.2801C117.887 26.2417 117.041 27.0107 117.003 28.0105C117.003 28.1066 117.003 28.1931 117.013 28.2892V33.4514H115.225V24.7517V24.7421Z" fill="#EFEEDF"/>
    <path d="M127.905 30.8933C127.664 32.4698 126.126 33.556 124.156 33.556C121.627 33.556 120.051 31.8642 120.051 29.1341C120.051 26.404 121.627 24.6353 124.079 24.6353C126.53 24.6353 128.001 26.2887 128.001 28.9322V29.5475H121.858V29.6532C121.752 30.9029 122.665 31.9988 123.915 32.1141C124.011 32.1141 124.107 32.1237 124.194 32.1141C125.059 32.191 125.876 31.7008 126.203 30.8933H127.895H127.905ZM121.868 28.2978H126.222C126.29 27.1442 125.405 26.1541 124.252 26.0964C124.194 26.0964 124.146 26.0964 124.088 26.0964C122.867 26.0964 121.877 27.0673 121.868 28.2882C121.868 28.2882 121.868 28.2978 121.868 28.3074V28.2978Z" fill="#EFEEDF"/>
    <path d="M59.1213 12.5223C60.5152 12.4262 61.736 13.474 61.8322 14.8679C61.8418 15.0313 61.8322 15.2043 61.8225 15.3677C61.8225 17.2038 60.8324 18.2516 59.1213 18.2516H57.0449V12.5127H59.1213V12.5223ZM57.9389 17.4441H59.0156C60.0057 17.5018 60.8613 16.7424 60.9189 15.7523C60.9189 15.6273 60.9189 15.5023 60.8997 15.3773C61.0343 14.3872 60.3422 13.474 59.352 13.3394C59.2367 13.3202 59.1213 13.3202 59.006 13.3298H57.9293V17.4441H57.9389Z" fill="#EFEEDF"/>
    <path d="M62.8216 16.0883C62.7159 14.9636 63.5426 13.9638 64.6673 13.8485C65.792 13.7427 66.7917 14.5694 66.9071 15.6941C66.9167 15.8287 66.9167 15.9537 66.9071 16.0883C67.0128 17.213 66.1957 18.2223 65.0614 18.3281C63.9367 18.4338 62.9274 17.6167 62.8216 16.4824C62.812 16.3478 62.812 16.2132 62.8216 16.0883ZM66.0227 16.0883C66.0227 15.1462 65.5997 14.5983 64.8596 14.5983C64.1194 14.5983 63.6964 15.1462 63.6964 16.0883C63.6964 17.0303 64.1097 17.5783 64.8596 17.5783C65.5997 17.5783 66.0227 17.0303 66.0227 16.0883Z" fill="#EFEEDF"/>
    <path d="M72.3299 18.2609H71.4455L70.5515 15.0694H70.4842L69.5902 18.2609H68.7154L67.5234 13.9351H68.3886L69.1672 17.2419H69.2345L70.1285 13.9351H70.9456L71.8396 17.2419H71.9069L72.676 13.9351H73.5315L72.3395 18.2609H72.3299Z" fill="#EFEEDF"/>
    <path d="M74.5195 13.9256H75.3462V14.6177H75.4135C75.6346 14.1082 76.1537 13.8006 76.7017 13.8487C77.4803 13.791 78.1532 14.3678 78.2109 15.1464C78.2109 15.2522 78.2109 15.3579 78.2013 15.454V18.2514H77.3457V15.6655C77.3457 14.9734 77.0477 14.6273 76.4133 14.6273C75.8653 14.5985 75.4039 15.0214 75.3751 15.5694C75.3751 15.6174 75.3751 15.6751 75.3751 15.7232V18.2514H74.5195V13.9256Z" fill="#EFEEDF"/>
    <path d="M79.5566 12.2432H80.4122V18.2609H79.5566V12.2432Z" fill="#EFEEDF"/>
    <path d="M81.6087 16.0883C81.503 14.9636 82.3297 13.9638 83.4544 13.8485C84.5791 13.7427 85.5789 14.5694 85.6942 15.6941C85.7038 15.8287 85.7038 15.9537 85.6942 16.0883C85.8 17.213 84.9829 18.2223 83.8485 18.3281C82.7142 18.4338 81.7145 17.6167 81.6087 16.4824C81.5991 16.3478 81.5991 16.2132 81.6087 16.0883ZM84.8098 16.0883C84.8098 15.1462 84.3869 14.5983 83.6467 14.5983C82.9065 14.5983 82.4835 15.1462 82.4835 16.0883C82.4835 17.0303 82.8969 17.5783 83.6467 17.5783C84.3869 17.5783 84.8098 17.0303 84.8098 16.0883Z" fill="#EFEEDF"/>
    <path d="M86.5859 17.03C86.5859 16.2514 87.1627 15.7996 88.1913 15.7419L89.3641 15.6746V15.2997C89.3641 14.8383 89.0661 14.5883 88.4797 14.5883C87.999 14.5883 87.6722 14.7614 87.5761 15.069H86.7494C86.8359 14.3288 87.5376 13.8481 88.5181 13.8481C89.6044 13.8481 90.2196 14.3865 90.2196 15.2997V18.2605H89.3929V17.6549H89.3256C89.0468 18.0971 88.547 18.3566 88.0279 18.3374C87.3069 18.4143 86.6628 17.8856 86.5956 17.1742C86.5956 17.1358 86.5956 17.0877 86.5956 17.0396L86.5859 17.03ZM89.3641 16.6647V16.2994L88.3067 16.3667C87.7107 16.4052 87.4415 16.6071 87.4415 16.9916C87.4415 17.3761 87.7779 17.6068 88.2394 17.6068C88.7969 17.6645 89.2968 17.2511 89.3545 16.6936C89.3545 16.684 89.3545 16.6743 89.3545 16.6551L89.3641 16.6647Z" fill="#EFEEDF"/>
    <path d="M91.3457 16.0883C91.3457 14.7233 92.0474 13.8581 93.1433 13.8581C93.6913 13.8293 94.2104 14.1273 94.4699 14.6176H94.5372V12.2432H95.3927V18.2609H94.5756V17.5783H94.5084C94.2296 18.059 93.7105 18.357 93.1529 18.3378C92.0475 18.3378 91.3553 17.4726 91.3553 16.0979L91.3457 16.0883ZM92.2301 16.0883C92.2301 17.0112 92.6627 17.5591 93.3836 17.5591C94.1046 17.5591 94.5468 17.0016 94.5468 16.0883C94.5468 15.1751 94.095 14.6176 93.3836 14.6176C92.6723 14.6176 92.2301 15.1751 92.2301 16.0883Z" fill="#EFEEDF"/>
    <path d="M98.9173 16.0883C98.8116 14.9636 99.6383 13.9639 100.763 13.8485C101.888 13.7332 102.887 14.5695 103.003 15.6942C103.012 15.8288 103.012 15.9538 103.003 16.0883C103.109 17.2131 102.291 18.2224 101.157 18.3282C100.032 18.4339 99.0231 17.6168 98.9173 16.4825C98.9077 16.3479 98.9077 16.2133 98.9173 16.0883ZM102.118 16.0883C102.118 15.1463 101.695 14.5983 100.955 14.5983C100.215 14.5983 99.7921 15.1463 99.7921 16.0883C99.7921 17.0304 100.205 17.5783 100.955 17.5783C101.695 17.5783 102.118 17.0304 102.118 16.0883Z" fill="#EFEEDF"/>
    <path d="M104.148 13.9256H104.975V14.6177H105.042C105.264 14.1082 105.783 13.8006 106.331 13.8487C107.109 13.791 107.782 14.3678 107.84 15.1464C107.84 15.2522 107.84 15.3579 107.83 15.454V18.2514H106.975V15.6655C106.975 14.9734 106.677 14.6273 106.042 14.6273C105.494 14.5985 105.033 15.0214 105.004 15.5694C105.004 15.6174 105.004 15.6751 105.004 15.7232V18.2514H104.148V13.9256Z" fill="#EFEEDF"/>
    <path d="M112.655 12.8491V13.945H113.597V14.666H112.655V16.8962C112.655 17.348 112.838 17.5498 113.271 17.5498C113.376 17.5498 113.492 17.5498 113.597 17.5306V18.242C113.444 18.2708 113.29 18.2804 113.136 18.29C112.184 18.29 111.809 17.9536 111.809 17.1173V14.6756H111.127V13.9546H111.809V12.8587H112.665L112.655 12.8491Z" fill="#EFEEDF"/>
    <path d="M114.752 12.2432H115.598V14.6272H115.665C115.896 14.1177 116.425 13.8101 116.982 13.8485C117.77 13.8101 118.443 14.4061 118.482 15.1943C118.482 15.2808 118.482 15.377 118.472 15.4635V18.2609H117.617V15.675C117.617 14.9828 117.299 14.6368 116.694 14.6368C116.136 14.5887 115.646 15.0021 115.608 15.5596C115.608 15.6173 115.608 15.675 115.608 15.7327V18.2609H114.752V12.2432Z" fill="#EFEEDF"/>
    <path d="M123.46 17.0877C123.219 17.9048 122.431 18.4335 121.585 18.3374C120.499 18.3662 119.595 17.5107 119.566 16.4244C119.566 16.3187 119.566 16.2129 119.586 16.1072C119.441 15.0113 120.21 14.0116 121.297 13.8674C121.393 13.8578 121.489 13.8481 121.576 13.8481C122.777 13.8481 123.508 14.6749 123.508 16.0303V16.3283H120.451V16.3763C120.393 17.0108 120.864 17.5587 121.499 17.6164C121.537 17.6164 121.576 17.6164 121.604 17.6164C122.018 17.6645 122.431 17.4626 122.633 17.0877H123.46ZM120.451 15.6938H122.633C122.671 15.1171 122.248 14.6172 121.672 14.5787C121.633 14.5787 121.604 14.5787 121.566 14.5787C120.951 14.5787 120.451 15.0594 120.441 15.6746C120.441 15.6746 120.441 15.6938 120.441 15.7034L120.451 15.6938Z" fill="#EFEEDF"/>
</svg>