<svg width="240" height="109" viewBox="0 0 240 109" fill="none" xmlns="http://www.w3.org/2000/svg">
    <path d="M0 109V45H166.208C189.132 45 210.305 57.2604 221.716 77.1421L240 109H0Z" fill="#9C6D38"/>
    <ellipse cx="136.202" cy="65.8974" rx="14.0969" ry="4.35344" fill="#BC8B38"/>
    <ellipse cx="136.202" cy="63.2031" rx="14.0969" ry="4.35344" fill="#BC8B38"/>
    <ellipse cx="136.201" cy="59.8857" rx="10.3653" ry="4.35344" fill="#BC8B38"/>
    <circle cx="49.3437" cy="22.7986" r="18.4503" transform="rotate(-15.899 49.3437 22.7986)" fill="#BC8B38"/>
    <path fill-rule="evenodd" clip-rule="evenodd" d="M63.6418 72.9458C81.1591 72.9458 95.3597 68.5835 95.3597 63.2024C95.3597 57.8213 81.1591 53.459 63.6418 53.459C46.1244 53.459 31.9238 57.8213 31.9238 63.2024C31.9238 68.5835 46.1244 72.9458 63.6418 72.9458ZM63.6418 67.5555C71.4273 67.5555 77.7386 65.6064 77.7386 63.2021C77.7386 60.7977 71.4273 58.8486 63.6418 58.8486C55.8563 58.8486 49.5449 60.7977 49.5449 63.2021C49.5449 65.6064 55.8563 67.5555 63.6418 67.5555Z" fill="#BC8B38"/>
    <ellipse cx="63.6437" cy="64.2392" rx="14.0969" ry="4.35344" fill="#BC8B38"/>
    <rect x="49.957" y="37.0654" width="6.63382" height="27.9864" transform="rotate(-15.899 49.957 37.0654)" fill="#BC8B38"/>
    <ellipse cx="37.0863" cy="16.3985" rx="2.69028" ry="5.38056" transform="rotate(24.2731 37.0863 16.3985)" fill="#F5C622"/>
</svg>