<svg width="150" height="150" viewBox="0 0 150 150" fill="none" xmlns="http://www.w3.org/2000/svg">
    <rect width="150" height="150" rx="56" fill="#D8A82D"/>
    <rect x="24.1035" y="29.6433" width="101.79" height="4.62681" fill="#EFEEDF"/>
    <rect x="61.1152" y="34.27" width="4.62681" height="83.2825" fill="#EFEEDF"/>
    <rect x="107.389" y="34.27" width="4.62681" height="83.2825" fill="#EFEEDF"/>
    <path d="M69.8454 42.8422L98.7178 36.2673L103.56 40.859L106.436 53.4906L70.3457 61.7093L67.8801 50.8822L68.8627 46.8622L69.8454 42.8422Z" fill="#EFEEDF"/>
    <path d="M70.3516 61.7078L72.6072 61.1941L79.6869 71.445L89.6475 104.766L80.6249 106.821L70.3516 61.7078Z" fill="#EFEEDF"/>
    <path d="M102.236 66.3088L104.179 54.0032L106.435 53.4895L116.708 98.6026L107.685 100.657L102.236 66.3088Z" fill="#EFEEDF"/>
    <path d="M79.6836 71.45L102.24 66.3133L107.689 100.662L89.6442 104.771L79.6836 71.45Z" fill="#EFEEDF"/>
    <path d="M80.6191 106.823L116.71 98.6039L117.987 112.549L85.5057 119.946L80.6191 106.823Z" fill="#EFEEDF"/>
    <path d="M64.8105 58.2234L69.3219 57.1961L72.4039 70.73L67.8925 71.7573L64.8105 58.2234Z" fill="#EFEEDF"/>
    <path d="M73.0254 94.3171L77.5367 93.2898L80.6187 106.824L76.1074 107.851L73.0254 94.3171Z" fill="#EFEEDF"/>
    <path d="M105.41 48.9778L109.921 47.9505L113.003 61.4844L108.492 62.5117L105.41 48.9778Z" fill="#EFEEDF"/>
    <path d="M113.629 85.0713L118.14 84.044L121.222 97.5779L116.711 98.6052L113.629 85.0713Z" fill="#EFEEDF"/>
</svg>