<svg width="150" height="150" viewBox="0 0 150 150" fill="none" xmlns="http://www.w3.org/2000/svg">
    <rect width="150" height="150" rx="56" fill="#D8A82D"/>
    <ellipse cx="94.9502" cy="43.7673" rx="10.4092" ry="10.4099" fill="#EFEEDF"/>
    <ellipse cx="56.7784" cy="43.7673" rx="10.4092" ry="10.4099" fill="#EFEEDF"/>
    <path fill-rule="evenodd" clip-rule="evenodd" d="M67.1956 59.3857L48.112 55.9158L42.9074 61.1207L45.9898 85.7817L37.6875 94.0981L42.9017 109.698H51.5761L47.0798 94.0981L53.5524 90.6153H58.5163V116.641H67.1906V88.8813L67.1956 88.8803L70.6653 64.5906L67.1956 59.3857Z" fill="#EFEEDF"/>
    <path fill-rule="evenodd" clip-rule="evenodd" d="M86.8637 56.4907L105.36 59.3868V64.5918V75.0033L105.369 75.0017L112.309 95.8214H105.361V107.386L109.419 114.326H100.745L96.6871 107.386V95.8214H93.2234V116.643H84.549V95.8214H77.6113L84.5446 78.4872L84.5503 61.1218L86.8637 56.4907Z" fill="#EFEEDF"/>
</svg>