<svg width="150" height="150" viewBox="0 0 150 150" fill="none" xmlns="http://www.w3.org/2000/svg">
    <rect width="150" height="150" rx="56" fill="#D8A82D"/>
    <path d="M103.073 42.6143L112.325 51.8669L108.862 58.7362L97.2017 47.0548L103.073 42.6143Z" fill="#EFEEDF"/>
    <path fill-rule="evenodd" clip-rule="evenodd" d="M84.9488 35.1345L60.4594 31.0457L54.3371 41.2677H64.5404V46.2694C48.1852 49.9906 35.9766 64.6446 35.9766 82.1552C35.9766 102.479 52.4229 118.954 72.7106 118.954C92.9982 118.954 109.445 102.479 109.445 82.1552C109.445 64.6396 97.229 49.9821 80.8666 46.2662V41.2677H86.9895L84.9488 35.1345ZM76.8 57.6234L68.6369 53.5345L70.6792 82.1562H74.7592L76.8 57.6234Z" fill="#EFEEDF"/>
</svg>