<svg xmlns="http://www.w3.org/2000/svg" width="144" height="144" viewBox="0 0 144 144" fill="none">
    <path d="M73.0908 57.2906C71.9931 57.0098 70.3082 56.7035 68.266 56.8311C63.8497 57.0864 60.8373 59.1286 60.0715 59.6647C58.9738 60.4305 56.8805 61.9367 55.7062 64.5661C54.9404 66.2764 54.634 68.3952 54.5575 68.9313C54.4553 69.6206 54.4298 70.2077 54.4043 70.6162L64.59 67.3231L72.5547 59.971L73.0908 57.2906Z" fill="#EFEEDF" stroke="#070706" stroke-width="3.46699" stroke-miterlimit="10"/>
    <path d="M68.7327 62.958C67.0734 63.4686 64.6993 64.1833 61.8402 65.1024C56.3261 66.8638 53.5691 67.7317 51.3482 68.6252C48.0806 69.9271 44.813 71.2546 41.0094 73.9095C38.2779 75.8241 35.623 77.7132 33.351 81.185C32.2788 82.8187 30.594 85.4737 30.211 89.3028C29.726 94.1021 31.564 97.8292 32.432 99.3353L36.5675 87.8988L45.0683 81.1339L55.9432 77.4324L64.9035 70.259L68.7327 62.958Z" fill="#EFEEDF" stroke="#070706" stroke-width="3.46699" stroke-miterlimit="10"/>
    <path d="M81.6847 74.0114C80.9189 74.2156 80.1275 73.9859 79.3617 73.8072C73.5924 72.4542 67.2104 74.2411 62.9727 78.3767C62.4622 78.8617 61.9772 79.3978 61.339 79.6786C60.7008 79.9594 59.9604 79.9083 59.2456 79.8828C56.0547 79.7296 52.4808 79.9849 49.2898 79.8318C49.06 79.8318 48.8302 79.8062 48.626 79.6786C48.0389 79.2446 48.626 78.3511 49.2132 77.9172C56.4886 72.4542 65.6276 66.838 74.8432 66.1998C78.749 65.919 82.7058 66.3785 86.4074 67.6039C86.5605 67.6549 86.7392 67.706 86.8414 67.8591C87.0456 68.1144 86.8414 68.4973 86.6627 68.7526C85.7181 70.1567 84.646 71.4841 83.4717 72.735C82.9611 73.2711 82.3995 73.8072 81.6847 74.0114Z" fill="#FAD22A" stroke="#070706" stroke-width="3.46699" stroke-linecap="round" stroke-linejoin="round"/>
    <path d="M84.7709 87.8201C85.1283 87.9733 85.5368 87.8712 85.8942 87.718C87.6811 87.0543 89.3915 85.8289 90.0553 84.0675C90.719 82.3316 90.2594 80.3149 89.1873 78.7832C88.1151 77.2516 86.5324 76.1794 84.8731 75.3625C80.712 73.3202 75.8362 72.9118 71.3433 73.9584C69.0457 74.4945 66.8503 75.4135 64.8847 76.6899C64.2465 77.0984 62.434 78.0429 62.3063 78.8598C62.1021 80.0086 63.9912 80.851 64.8336 81.1573C66.8503 81.9487 68.9947 82.4337 71.1645 82.5358C73.5642 82.6635 75.9893 82.3827 78.3379 82.7656C80.6865 83.1485 83.1371 84.4249 84.0051 86.6458C84.1838 87.0798 84.337 87.6159 84.7709 87.8201Z" fill="#070706" stroke="#070706" stroke-width="3.46699" stroke-linecap="round" stroke-linejoin="round"/>
    <path d="M84.5948 87.7185C84.7479 87.4377 84.7735 87.1313 84.7479 86.825C84.6203 84.8849 82.9354 83.4553 81.2251 82.5108C75.4047 79.2432 68.4356 78.8603 61.7728 78.5029C56.0801 78.171 50.2597 77.8136 44.7967 79.3708C34.9174 82.1789 26.9782 94.2536 35.3769 103.112C35.5045 103.239 35.6832 103.393 35.8619 103.367C36.0406 103.367 36.1428 103.188 36.2193 103.035C37.9552 100.151 37.2149 96.3724 38.4658 93.2325C39.4358 90.8073 41.5802 88.9438 43.9543 87.8716C46.3284 86.7995 48.9833 86.4165 51.6127 86.2634C61.977 85.6507 72.2393 88.3311 82.6036 88.3822C83.3184 88.3822 84.1863 88.3056 84.5437 87.6674L84.5948 87.7185Z" fill="#FAD22A"/>
    <mask id="mask0_4632_15994" style="mask-type:luminance" maskUnits="userSpaceOnUse" x="31" y="78" width="54" height="26">
        <path d="M84.5948 87.719C84.7479 87.4381 84.7735 87.1318 84.7479 86.8255C84.6203 84.8854 82.9354 83.4558 81.2251 82.5113C75.4047 79.2437 68.4356 78.8608 61.7728 78.5034C56.0801 78.1715 50.2597 77.8141 44.7967 79.3713C34.9174 82.1794 26.9782 94.2541 35.3769 103.112C35.5045 103.24 35.6832 103.393 35.8619 103.368C36.0406 103.368 36.1428 103.189 36.2193 103.036C37.9552 100.151 37.2149 96.3729 38.4658 93.233C39.4358 90.8078 41.5802 88.9443 43.9543 87.8721C46.3284 86.7999 48.9833 86.417 51.6127 86.2639C61.977 85.6512 72.2393 88.3316 82.6036 88.3827C83.3184 88.3827 84.1863 88.3061 84.5437 87.6679L84.5948 87.719Z" fill="white"/>
    </mask>
    <g mask="url(#mask0_4632_15994)">
        <path d="M48.6149 79.676C48.6149 79.676 41.3905 83.5563 44.0199 87.896C45.8835 90.9849 35.3404 99.4091 35.3404 99.4091L27.248 92.7463L39.4759 79.9058L48.6405 79.676" fill="#EFEEDF"/>
        <path d="M72.384 79.4987C72.384 79.4987 79.5063 86.1104 67.1508 85.3956C57.6033 84.8595 84.6119 87.6931 84.6119 87.6931L84.7906 83.8384L78.6128 80.6219L72.384 79.4731" fill="#F6A42B"/>
    </g>
    <path d="M84.5948 87.7185C84.7479 87.4377 84.7735 87.1313 84.7479 86.825C84.6203 84.8849 82.9354 83.4553 81.2251 82.5108C75.4047 79.2432 68.4356 78.8603 61.7728 78.5029C56.0801 78.171 50.2597 77.8136 44.7967 79.3708C34.9174 82.1789 26.9782 94.2536 35.3769 103.112C35.5045 103.239 35.6832 103.393 35.8619 103.367C36.0406 103.367 36.1428 103.188 36.2193 103.035C37.9552 100.151 37.2149 96.3724 38.4658 93.2325C39.4358 90.8073 41.5802 88.9438 43.9543 87.8716C46.3284 86.7995 48.9833 86.4165 51.6127 86.2634C61.977 85.6507 72.2393 88.3311 82.6036 88.3822C83.3184 88.3822 84.1863 88.3056 84.5437 87.6674L84.5948 87.7185Z" stroke="#070706" stroke-width="3.46699" stroke-linecap="round" stroke-linejoin="round"/>
    <path d="M93.814 99.1536C93.814 99.1536 93.7374 99.3323 93.7119 99.4089C92.461 102.319 90.2656 104.77 87.6873 106.633C81.6117 111.075 73.3917 112.377 66.2183 110.105C62.7465 109.007 59.5811 107.169 56.2369 105.765C53.2501 104.514 50.0591 103.57 46.8171 103.468C46.3321 103.468 44.2388 103.544 45.2854 102.549C46.0257 101.834 47.7872 101.604 48.7317 101.323C50.876 100.685 53.0714 100.073 55.2924 100.302C57.4878 100.558 59.5045 101.63 61.5212 102.523C67.0607 104.923 73.5193 105.867 79.1865 103.749C80.7437 103.162 82.2499 102.345 83.4242 101.17C84.5984 99.996 85.3898 98.3623 85.3643 96.7029C85.3643 96.1924 85.2877 95.6563 85.4919 95.1713C85.9514 94.2012 87.2789 94.1246 88.351 94.0225C90.0614 93.8183 91.6952 93.078 92.9716 91.9037C93.278 91.6229 93.6609 91.2655 94.0693 91.3421C94.6054 91.4442 94.7841 92.1079 94.8351 92.644C94.9883 94.8394 94.6309 97.0858 93.814 99.1281V99.1536Z" fill="#FAD22A"/>
    <mask id="mask1_4632_15994" style="mask-type:luminance" maskUnits="userSpaceOnUse" x="45" y="91" width="50" height="21">
        <path d="M93.8355 99.1541C93.8355 99.1541 93.7589 99.3328 93.7334 99.4094C92.4825 102.32 90.2871 104.77 87.7088 106.634C81.6331 111.076 73.4131 112.378 66.2398 110.106C62.768 109.008 59.6026 107.17 56.2584 105.766C53.2716 104.515 50.0806 103.57 46.8386 103.468C46.3535 103.468 44.2602 103.545 45.3069 102.549C46.0472 101.835 47.8086 101.605 48.7532 101.324C50.8975 100.686 53.0929 100.073 55.3138 100.303C57.5092 100.558 59.526 101.63 61.5427 102.524C67.0822 104.923 73.5408 105.868 79.208 103.749C80.7652 103.162 82.2714 102.345 83.4456 101.171C84.6199 99.9965 85.4113 98.3627 85.3857 96.7034C85.3857 96.1929 85.3092 95.6568 85.5134 95.1717C85.9729 94.2017 87.3003 94.1251 88.3725 94.023C90.0829 93.8188 91.7167 93.0785 92.9931 91.9042C93.2994 91.6234 93.6823 91.266 94.0908 91.3425C94.6269 91.4447 94.8056 92.1084 94.8566 92.6445C95.0098 94.8399 94.6524 97.0863 93.8355 99.1286V99.1541Z" fill="white"/>
    </mask>
    <g mask="url(#mask1_4632_15994)">
        <path d="M76.652 104.491C76.652 104.491 76.4733 111.052 85.2804 106.048C92.658 101.862 83.9785 108.856 83.9785 108.856L70.4487 111.486L58.3485 106.125L48.3926 102.347L56.8168 101.53L63.7604 103.649C63.7604 103.649 68.6362 104.951 68.7384 104.951C68.8405 104.951 76.652 104.517 76.652 104.517" fill="#F6A42B"/>
    </g>
    <path d="M93.814 99.1536C93.814 99.1536 93.7374 99.3323 93.7119 99.4089C92.461 102.319 90.2656 104.77 87.6873 106.633C81.6117 111.075 73.3917 112.377 66.2183 110.105C62.7465 109.007 59.5811 107.169 56.2369 105.765C53.2501 104.514 50.0591 103.57 46.8171 103.468C46.3321 103.468 44.2388 103.544 45.2854 102.549C46.0257 101.834 47.7872 101.604 48.7317 101.323C50.876 100.685 53.0714 100.073 55.2924 100.302C57.4878 100.558 59.5045 101.63 61.5212 102.523C67.0607 104.923 73.5193 105.867 79.1865 103.749C80.7437 103.162 82.2499 102.345 83.4242 101.17C84.5984 99.996 85.3898 98.3623 85.3643 96.7029C85.3643 96.1924 85.2877 95.6563 85.4919 95.1713C85.9514 94.2012 87.2789 94.1246 88.351 94.0225C90.0614 93.8183 91.6952 93.078 92.9716 91.9037C93.278 91.6229 93.6609 91.2655 94.0693 91.3421C94.6054 91.4442 94.7841 92.1079 94.8351 92.644C94.9883 94.8394 94.6309 97.0858 93.814 99.1281V99.1536Z" stroke="#070706" stroke-width="3.46699" stroke-linecap="round" stroke-linejoin="round"/>
    <path d="M93.6325 70.821C93.0964 70.5147 92.4837 70.2849 91.871 70.3615C91.2839 70.4381 90.7478 70.7955 90.2627 71.1274C88.4503 72.3782 86.7144 73.7312 85.0295 75.1608C84.8508 75.3139 84.6721 75.4926 84.6466 75.7224C84.6466 76.1053 85.0806 76.3095 85.4635 76.4372C87.3271 77.0498 88.9863 78.3518 89.8288 80.1132C90.6712 81.8746 90.6202 84.0956 89.4969 85.6783C87.7355 88.1545 84.2126 88.4353 81.1493 88.3843C74.5631 88.2566 67.9769 87.6439 61.4162 87.0568C56.3361 86.6228 51.1284 86.2144 46.2015 87.5674C43.3679 88.3587 40.6364 89.8138 38.5431 91.9071C37.4965 92.9538 33.6162 97.9317 35.3011 99.4123C35.8882 99.9229 36.7817 99.5144 37.4455 99.106C42.6276 95.9916 48.7033 94.6131 54.7278 94.2302C60.7524 93.8472 66.8026 94.4344 72.8272 94.9449C77.3712 95.3279 81.9917 95.6852 86.4591 94.7662C90.9265 93.8472 95.2918 91.4731 97.6148 87.5418C99.172 84.8869 99.6826 81.6704 99.0444 78.6581C98.4062 75.6458 96.5682 72.9398 94.0664 71.1784C93.9132 71.0763 93.7346 70.9487 93.5814 70.8466L93.6325 70.821Z" fill="#FAD22A"/>
    <mask id="mask2_4632_15994" style="mask-type:luminance" maskUnits="userSpaceOnUse" x="34" y="70" width="66" height="30">
        <path d="M93.6207 70.8232C93.0846 70.5169 92.472 70.2871 91.8593 70.3637C91.2722 70.4403 90.7361 70.7977 90.251 71.1296C88.4385 72.3804 86.7027 73.7334 85.0178 75.163C84.8391 75.3161 84.6604 75.4948 84.6349 75.7246C84.6349 76.1075 85.0689 76.3117 85.4518 76.4394C87.3153 77.052 88.9746 78.354 89.8171 80.1154C90.6595 81.8768 90.6084 84.0978 89.4852 85.6805C87.7238 88.1567 84.2009 88.4375 81.1376 88.3864C74.5514 88.2588 67.9652 87.6461 61.4045 87.059C56.3244 86.625 51.1167 86.2166 46.1898 87.5696C43.3562 88.3609 40.6247 89.816 38.5314 91.9093C37.4848 92.956 33.6045 97.9339 35.2894 99.4145C35.8765 99.9251 36.77 99.5166 37.4337 99.1082C42.6159 95.9938 48.6915 94.6153 54.7161 94.2323C60.7407 93.8494 66.7909 94.4366 72.8155 94.9471C77.3594 95.33 81.98 95.6874 86.4474 94.7684C90.9148 93.8494 95.28 91.4753 97.6031 87.544C99.1603 84.8891 99.6708 81.6726 99.0326 78.6603C98.3944 75.648 96.5564 72.942 94.0547 71.1806C93.9015 71.0785 93.7228 70.9509 93.5697 70.8488L93.6207 70.8232Z" fill="white"/>
    </mask>
    <g mask="url(#mask2_4632_15994)">
        <path d="M46.7508 88.1067C46.7508 88.1067 39.8583 93.6207 44.2236 94.9992C46.5211 95.714 35.3398 99.3901 35.3398 99.3901L38.5819 91.8848L44.0194 87.877" fill="#EFEEDF"/>
        <path d="M84.7601 87.9028C84.7601 87.9028 92.3929 89.5621 86.496 94.7443C80.599 99.9265 97.6517 87.5199 97.6517 87.5199L99.3365 76.1089L94.0777 71.1565H90.1975L86.8278 75.8536L88.6658 81.1379L89.3806 87.0604L84.709 87.8773" fill="#F6A42B"/>
    </g>
    <path d="M93.6324 70.821C93.0964 70.5147 92.4837 70.2849 91.871 70.3615C91.2839 70.4381 90.7478 70.7955 90.2627 71.1274C88.4503 72.3782 86.7144 73.7312 85.0295 75.1608C84.8508 75.3139 84.6721 75.4926 84.6466 75.7224C84.6466 76.1053 85.0806 76.3095 85.4635 76.4372C87.3271 77.0498 88.9863 78.3518 89.8288 80.1132C90.6712 81.8746 90.6202 84.0956 89.4969 85.6783C87.7355 88.1545 84.2126 88.4353 81.1493 88.3843C74.5631 88.2566 67.9769 87.6439 61.4162 87.0568C56.3361 86.6228 51.1284 86.2144 46.2015 87.5674C43.3679 88.3587 40.6364 89.8138 38.5431 91.9071C37.4965 92.9538 33.6162 97.9317 35.3011 99.4123C35.8882 99.9229 36.7817 99.5144 37.4455 99.106C42.6276 95.9916 48.7033 94.6131 54.7278 94.2302C60.7524 93.8472 66.8026 94.4344 72.8272 94.9449C77.3712 95.3279 81.9917 95.6852 86.4591 94.7662C90.9265 93.8472 95.2918 91.4731 97.6148 87.5418C99.172 84.8869 99.6826 81.6704 99.0444 78.6581C98.4062 75.6458 96.5682 72.9398 94.0664 71.1784C93.9133 71.0763 93.7345 70.9487 93.5814 70.8466L93.6324 70.821Z" stroke="#070706" stroke-width="3.46699" stroke-linecap="round" stroke-linejoin="round"/>
    <path d="M85.8869 94.9435C86.5506 95.352 86.2698 97.675 85.2487 99.462C83.8191 102.015 81.2153 103.01 80.1176 103.419C79.173 103.776 77.8711 104.108 74.9864 104.185C70.1361 104.312 66.409 103.521 65.873 103.419C61.38 102.551 53.0324 100.943 45.0421 103.649C40.4982 105.18 38.0475 107.452 37.4603 108.014C34.4225 110.924 32.8398 114.064 32.3548 115.519C31.5379 118.123 31.3847 119.859 31.8697 121.85C32.125 122.948 32.6611 123.943 32.176 124.53C31.5378 125.347 29.5722 124.76 29.3425 124.684C26.6365 123.841 24.8496 121.646 24.2369 118.838C23.6242 116.081 24.2369 113.145 24.9006 111.358C26.5599 106.84 29.5467 104.134 31.4868 102.398C32.61 101.402 36.669 97.9303 43.2807 95.8115C48.7947 94.05 53.2877 94.1011 57.5253 94.1521C60.9716 94.2032 66.792 94.2798 72.6123 95.5051C72.6123 95.5051 77.335 96.5007 81.2663 95.9646C83.2064 95.7094 84.0233 95.4285 84.0233 95.4285C85.1976 95.0456 85.555 94.6882 85.8869 94.8925V94.9435Z" fill="#FAD22A"/>
    <mask id="mask3_4632_15994" style="mask-type:luminance" maskUnits="userSpaceOnUse" x="23" y="94" width="64" height="31">
        <path d="M85.8771 94.943C86.5408 95.3515 86.26 97.6745 85.2389 99.4615C83.8093 102.014 81.2055 103.01 80.1078 103.418C79.1633 103.776 77.8613 104.108 74.9767 104.184C70.1263 104.312 66.3993 103.52 65.8632 103.418C61.3703 102.55 53.0226 100.942 45.0324 103.648C40.4884 105.18 38.0377 107.452 37.4506 108.013C34.4128 110.924 32.83 114.063 32.345 115.519C31.5281 118.122 31.3749 119.858 31.86 121.849C32.1152 122.947 32.6513 123.943 32.1663 124.53C31.5281 125.347 29.5625 124.76 29.3327 124.683C26.6267 123.841 24.8398 121.645 24.2271 118.837C23.6145 116.08 24.2271 113.144 24.8908 111.357C26.5502 106.839 29.5369 104.133 31.477 102.397C32.6003 101.402 36.6592 97.9298 43.2709 95.811C48.785 94.0495 53.2779 94.1006 57.5155 94.1517C60.9618 94.2027 66.7822 94.2793 72.6026 95.5046C72.6026 95.5046 77.3252 96.5002 81.2565 95.9641C83.1967 95.7089 84.0136 95.4281 84.0136 95.4281C85.1879 95.0451 85.5452 94.6877 85.8771 94.892V94.943Z" fill="white"/>
    </mask>
    <g mask="url(#mask3_4632_15994)">
        <path d="M43.3062 95.8872C43.3062 95.8872 34.1927 102.933 39.4004 107.298C43.9955 111.127 28.7553 126.419 28.7553 126.419L21.9648 120.93L23.9816 107.349L32.4058 99.3335L43.2807 95.8872" fill="#EFEEDF"/>
    </g>
    <path d="M85.8869 94.9435C86.5506 95.352 86.2698 97.675 85.2487 99.462C83.8191 102.015 81.2153 103.01 80.1176 103.419C79.173 103.776 77.8711 104.108 74.9864 104.185C70.1361 104.312 66.409 103.521 65.873 103.419C61.38 102.551 53.0324 100.943 45.0421 103.649C40.4982 105.18 38.0475 107.452 37.4603 108.014C34.4225 110.924 32.8398 114.064 32.3548 115.519C31.5379 118.123 31.3847 119.859 31.8697 121.85C32.125 122.948 32.6611 123.943 32.176 124.53C31.5378 125.347 29.5722 124.76 29.3425 124.684C26.6365 123.841 24.8496 121.646 24.2369 118.838C23.6242 116.081 24.2369 113.145 24.9006 111.358C26.5599 106.84 29.5467 104.134 31.4868 102.398C32.61 101.402 36.669 97.9303 43.2807 95.8115C48.7947 94.05 53.2877 94.1011 57.5253 94.1521C60.9716 94.2032 66.792 94.2798 72.6123 95.5051C72.6123 95.5051 77.335 96.5007 81.2663 95.9646C83.2064 95.7094 84.0233 95.4285 84.0233 95.4285C85.1976 95.0456 85.555 94.6882 85.8869 94.8925V94.9435Z" stroke="#070706" stroke-width="3.46699" stroke-linecap="round" stroke-linejoin="round"/>
    <path d="M104.065 45.0366L77.4395 80.4694L83.0556 82.818L112.157 49.3764L104.065 45.0366Z" fill="#EFEEDF" stroke="#070706" stroke-width="3.46699" stroke-linecap="round" stroke-linejoin="round"/>
    <path d="M95.1835 91.1647C94.9792 91.8795 94.775 92.6198 94.5963 93.3346C93.0902 99.5379 93.3455 106.507 97.0215 111.715C97.7363 112.736 98.834 113.757 100.059 113.502C100.927 113.323 101.514 112.506 101.744 111.664C101.974 110.821 101.872 109.928 101.821 109.06C101.336 102.55 102.204 96.015 103.429 89.6075C104.144 85.8805 104.961 82.1534 105.012 78.3497C105.063 74.5461 104.322 70.6403 102.127 67.5259C98.9105 62.9564 93.0646 60.8886 87.474 60.6333C84.283 60.4802 80.9899 60.9141 78.0542 62.2416C76.9054 62.7777 74.6845 63.7733 74.0718 64.9475C73.2549 66.5558 75.2972 66.8111 76.6502 66.7345C80.6581 66.5047 84.7936 66.7345 88.5207 68.2151C92.2477 69.6957 95.5664 72.6059 96.8172 76.4351C97.7107 79.1921 97.5065 82.1789 96.8938 84.987C96.4343 87.0803 95.7706 89.097 95.1835 91.1647Z" fill="#FAD22A" stroke="#070706" stroke-width="3.46699" stroke-linecap="round" stroke-linejoin="round"/>
    <path d="M101.889 43.863L117.333 19.4328L109.011 15.042L95.4305 40.3912L94.537 39.9062V39.8552L86.2149 35.5154L63.6992 78.1471L70.0301 79.1427L87.9508 50.4493L83.5344 60.5838H90.7589L95.7368 54.1508L91.346 61.0944C91.346 61.0944 96.6558 62.1411 99.0299 64.3875L112.1 49.3771L104.008 45.0118L101.838 43.8375L101.889 43.863Z" fill="#EFEEDF" stroke="#070706" stroke-width="3.46699" stroke-linecap="round" stroke-linejoin="round"/>
</svg>