<svg xmlns="http://www.w3.org/2000/svg" width="144" height="144" viewBox="0 0 144 144" fill="none">
    <path d="M41.2305 98.5442V113.247C41.2305 116.317 54.1279 120.728 70.0434 120.728C85.9588 120.728 98.8563 116.343 98.8563 113.247V98.5442H41.2305Z" fill="#EFEEDF"/>
    <mask id="mask0_4632_15562" style="mask-type:luminance" maskUnits="userSpaceOnUse" x="41" y="98" width="58" height="23">
        <path d="M41.2402 98.5435V113.247C41.2402 116.316 54.1377 120.727 70.0531 120.727C85.9686 120.727 98.866 116.342 98.866 113.247V98.5435H41.2402Z" fill="white"/>
    </mask>
    <g mask="url(#mask0_4632_15562)">
        <path d="M86.4219 91.1133V129.754H108.657V88.1211L86.4219 91.1133Z" fill="#CECECE"/>
        <path d="M48.2957 91.9363H33.541V125.934H51.4427V91.6267L48.2957 91.9363Z" fill="white"/>
    </g>
    <path d="M41.2305 98.5442V113.247C41.2305 116.317 54.1279 120.728 70.0434 120.728C85.9588 120.728 98.8563 116.343 98.8563 113.247V98.5442H41.2305Z" stroke="#070706" stroke-width="3.46699" stroke-linecap="square" stroke-linejoin="round"/>
    <path d="M122.033 68.3909C119.092 69.7322 114.836 71.0478 109.599 72.0538C99.0752 74.0916 84.8106 75.0202 70.0043 75.0202C55.198 75.0202 40.4175 73.9884 29.8932 71.9506C24.6569 70.9446 20.9166 69.7322 17.976 68.3909C15.0354 66.7658 15.5255 65.8114 15.3965 65.4761C17.8212 91.9159 41.3462 110.798 70.0043 110.798C98.6624 110.798 122.187 91.9159 124.612 65.4761C124.612 66.2241 123.193 67.8492 122.007 68.3909H122.033Z" fill="#EFEEDF"/>
    <mask id="mask1_4632_15562" style="mask-type:luminance" maskUnits="userSpaceOnUse" x="15" y="65" width="110" height="46">
        <path d="M122.037 68.3904C119.096 69.7317 114.84 71.0473 109.603 72.0533C99.0791 74.0911 84.8145 75.0197 70.0082 75.0197C55.2019 75.0197 40.4214 73.9879 29.8971 71.9501C24.6608 70.9441 20.9205 69.7317 17.9799 68.3904C15.0393 66.7653 15.5294 65.8109 15.4004 65.4756C17.8251 91.9154 41.3501 110.797 70.0082 110.797C98.6663 110.797 122.191 91.9154 124.616 65.4756C124.616 66.2236 123.197 67.8487 122.011 68.3904H122.037Z" fill="white"/>
    </mask>
    <g mask="url(#mask1_4632_15562)">
        <path d="M25.9255 60.9374C25.9255 60.9374 27.9375 93.4132 43.7756 104.969L13.7503 100.3L10.2422 53.5601L25.9255 60.9374Z" fill="white"/>
        <path d="M105.783 65.4767C105.783 65.4767 110.246 91.5295 88.0622 109.638C72.2757 122.535 139.652 80.7989 139.858 65.4767C139.91 60.8336 105.783 65.4767 105.783 65.4767Z" fill="#CECECE"/>
    </g>
    <path d="M122.033 68.3909C119.092 69.7322 114.836 71.0478 109.599 72.0538C99.0752 74.0916 84.8106 75.0202 70.0043 75.0202C55.198 75.0202 40.4175 73.9884 29.8932 71.9506C24.6569 70.9446 20.9166 69.7322 17.976 68.3909C15.0354 66.7658 15.5255 65.8114 15.3965 65.4761C17.8212 91.9159 41.3462 110.798 70.0043 110.798C98.6624 110.798 122.187 91.9159 124.612 65.4761C124.612 66.2241 123.193 67.8492 122.007 68.3909H122.033Z" stroke="#070706" stroke-width="3.46699" stroke-linecap="square" stroke-linejoin="round"/>
    <path d="M70.0043 85.1093C100.163 85.1093 124.612 75.8934 124.612 64.525C124.612 53.1566 100.163 43.9407 70.0043 43.9407C39.8452 43.9407 15.3965 53.1566 15.3965 64.525C15.3965 75.8934 39.8452 85.1093 70.0043 85.1093Z" fill="#EFEEDF"/>
    <mask id="mask2_4632_15562" style="mask-type:luminance" maskUnits="userSpaceOnUse" x="15" y="43" width="110" height="43">
        <path d="M70.0082 85.1113C100.167 85.1113 124.616 75.8954 124.616 64.527C124.616 53.1585 100.167 43.9426 70.0082 43.9426C39.8491 43.9426 15.4004 53.1585 15.4004 64.527C15.4004 75.8954 39.8491 85.1113 70.0082 85.1113Z" fill="white"/>
    </mask>
    <g mask="url(#mask2_4632_15562)">
        <path d="M100.981 61.7649C100.981 56.0384 94.5063 52.7883 92.6491 51.8855C88.5993 49.9766 84.9364 50.312 84.0078 50.4152C82.6665 50.5699 80.0612 50.8795 77.7655 52.6335C76.2436 53.7943 74.9538 55.4968 74.6185 55.9353C74.2058 56.5028 73.8704 56.9929 73.6641 57.354L84.2916 59.366L99.201 61.378L100.981 61.7133V61.7649Z" fill="#7F3912" stroke="#070706" stroke-width="3.46699" stroke-miterlimit="10"/>
        <path d="M89.8662 60.0622C88.8602 58.9531 84.7846 56.7863 82.9274 56.1156C77.433 54.1036 73.796 53.8715 71.3712 53.5877C67.8373 53.175 64.8193 53.304 60.1762 53.8199C56.8229 54.181 53.547 54.5679 49.8583 56.5541C48.13 57.4827 45.3442 59.0304 43.1516 62.229C40.3916 66.253 40.211 70.4318 40.2626 72.1858L49.4714 64.0604L60.2794 62.1774L71.7066 64.1636L83.1337 62.1516L89.8404 60.0364L89.8662 60.0622Z" fill="#7F3912" stroke="#070706" stroke-width="3.46699" stroke-miterlimit="10"/>
        <path d="M96.1933 73.6294C95.4195 73.4231 94.8262 72.8556 94.2329 72.3139C89.7704 68.3157 83.2443 66.8196 77.4662 68.4189C76.7698 68.5994 76.0733 68.8574 75.3768 68.78C74.6804 68.7026 74.0355 68.3157 73.4422 67.9546C70.6822 66.2779 67.3804 64.756 64.6462 63.0793C64.4398 62.9504 64.2334 62.8214 64.1303 62.615C63.8207 61.9444 64.7751 61.4543 65.4974 61.3511C74.5772 60.0355 85.4111 59.4938 93.8976 63.3889C97.4831 65.0397 100.759 67.3613 103.468 70.2503C103.571 70.3793 103.7 70.5083 103.725 70.6888C103.777 71.0242 103.442 71.2563 103.132 71.4111C101.61 72.2107 100.011 72.8556 98.3859 73.3973C97.6894 73.6294 96.9156 73.8358 96.1675 73.6552L96.1933 73.6294Z" fill="#FAD22A" stroke="#070706" stroke-width="3.46699" stroke-linecap="round" stroke-linejoin="round"/>
        <path d="M92.2332 87.3535C92.4654 87.663 92.9039 87.7662 93.2908 87.8178C95.1997 88.0757 97.289 87.8436 98.7594 86.5796C100.178 85.3673 100.746 83.3553 100.539 81.4722C100.333 79.5892 99.4558 77.8867 98.3724 76.3391C95.664 72.5214 91.5626 69.7871 87.0743 68.549C84.7785 67.9041 82.3796 67.6462 80.0065 67.8267C79.2326 67.8783 77.1948 67.8267 76.6531 68.4974C75.9051 69.426 77.1948 71.0769 77.7623 71.7734C79.1552 73.45 80.8577 74.9203 82.7149 76.0811C84.7785 77.3451 87.0485 78.2737 88.9573 79.7698C90.8661 81.2659 92.4138 83.5616 92.1043 85.9606C92.0527 86.4249 91.9237 86.9665 92.2074 87.3535H92.2332Z" fill="#FAD22A" stroke="#070706" stroke-width="3.46699" stroke-miterlimit="10"/>
        <path d="M92.156 87.1991C92.4139 87.0443 92.5945 86.7606 92.7492 86.4769C93.5747 84.697 92.7492 82.6076 91.7174 80.9567C88.132 75.2303 82.1475 71.5416 76.4211 67.9561C71.5458 64.9123 66.5416 61.7653 60.9441 60.5014C50.8325 58.2056 37.9351 65.0671 41.082 76.9843C41.1336 77.1649 41.211 77.3713 41.3916 77.4486C41.5464 77.5002 41.7269 77.4486 41.8817 77.3455C44.8223 75.643 46.0089 71.9285 48.6142 69.7618C50.652 68.0851 53.4378 67.466 56.0947 67.6724C58.7516 67.8787 61.2537 68.8331 63.6526 69.9681C73.1193 74.4564 80.9352 81.808 90.0924 86.8896C90.7372 87.2507 91.5369 87.586 92.156 87.1991Z" fill="#FAD22A"/>
        <mask id="mask3_4632_15562" style="mask-type:luminance" maskUnits="userSpaceOnUse" x="40" y="60" width="54" height="28">
            <path d="M92.1677 87.2006C92.4256 87.0458 92.6062 86.7621 92.761 86.4783C93.5864 84.6985 92.761 82.6091 91.7292 80.9582C88.1437 75.2317 82.1593 71.5431 76.4328 67.9576C71.5576 64.9138 66.5533 61.7668 60.9558 60.5028C50.8442 58.2071 37.9468 65.0685 41.0938 76.9858C41.1454 77.1664 41.2227 77.3727 41.4033 77.4501C41.5581 77.5017 41.7386 77.4501 41.8934 77.3469C44.834 75.6445 46.0206 71.93 48.6259 69.7632C50.6637 68.0865 53.4495 67.4675 56.1064 67.6738C58.7633 67.8802 61.2654 68.8346 63.6643 69.9696C73.131 74.4579 80.9469 81.8094 90.1041 86.891C90.749 87.2522 91.5486 87.5875 92.1677 87.2006Z" fill="white"/>
        </mask>
        <g mask="url(#mask3_4632_15562)">
            <path d="M74.4724 66.7435C74.4724 66.7435 70.9385 69.1167 71.1448 74.1983C71.2996 77.8353 42.7962 73.6566 42.7962 73.6566L38.8496 63.8287L55.9 58.386L64.1286 62.6421" fill="#7F3912"/>
            <path d="M85.3111 73.9919C85.3111 73.9919 88.4323 83.3039 77.8048 76.6746C69.602 71.5672 92.1726 87.1989 92.1726 87.1989L94.1846 83.8714L90.2638 78.0417L85.2853 74.0177" fill="#F6A42B"/>
        </g>
        <path d="M92.156 87.1991C92.4139 87.0443 92.5945 86.7606 92.7492 86.4769C93.5747 84.697 92.7492 82.6076 91.7174 80.9567C88.132 75.2303 82.1475 71.5416 76.4211 67.9561C71.5458 64.9123 66.5416 61.7653 60.9441 60.5014C50.8325 58.2056 37.9351 65.0671 41.082 76.9843C41.1336 77.1649 41.211 77.3713 41.3916 77.4486C41.5464 77.5002 41.7269 77.4486 41.8817 77.3455C44.8223 75.643 46.0089 71.9285 48.6142 69.7618C50.652 68.0851 53.4378 67.466 56.0947 67.6724C58.7516 67.8787 61.2537 68.8331 63.6526 69.9681C73.1193 74.4564 80.9352 81.808 90.0924 86.8896C90.7372 87.2507 91.5369 87.586 92.156 87.1991Z" stroke="#070706" stroke-width="3.46699" stroke-linecap="round" stroke-linejoin="round"/>
        <path d="M94.7717 101.799C94.7717 101.799 94.617 101.928 94.5654 101.979C92.0375 103.965 88.8905 105.049 85.7177 105.487C78.1856 106.493 70.2666 103.656 65.0044 98.1616C62.4507 95.5047 60.5419 92.3319 58.2461 89.4687C56.2084 86.8892 53.8352 84.5418 51.0236 82.8652C50.5851 82.6072 48.702 81.6786 50.095 81.3175C51.101 81.0595 52.7776 81.6786 53.7578 81.885C55.9504 82.3751 58.2204 82.8652 60.0776 84.1807C61.909 85.4705 63.1472 87.4051 64.5401 89.1591C68.2804 93.9828 73.5425 97.9294 79.6043 98.8064C81.281 99.0644 83.0093 99.0644 84.6085 98.5743C86.2078 98.0842 87.7039 97.0266 88.5036 95.5563C88.7615 95.092 88.9421 94.5761 89.3548 94.2665C90.2318 93.6216 91.4442 94.2149 92.4502 94.6277C94.0495 95.2983 95.8809 95.4273 97.5576 94.9888C97.9703 94.8856 98.4604 94.7566 98.7957 95.0404C99.2343 95.3757 99.0795 96.0722 98.8473 96.5623C97.9187 98.6001 96.5258 100.406 94.7975 101.824L94.7717 101.799Z" fill="#FAD22A"/>
        <mask id="mask4_4632_15562" style="mask-type:luminance" maskUnits="userSpaceOnUse" x="49" y="81" width="51" height="25">
            <path d="M94.7932 101.799C94.7932 101.799 94.6385 101.928 94.5869 101.979C92.059 103.965 88.912 105.049 85.7392 105.487C78.2071 106.493 70.2881 103.656 65.0259 98.1616C62.4722 95.5047 60.5634 92.3319 58.2676 89.4687C56.2298 86.8892 53.8567 84.5418 51.0451 82.8652C50.6065 82.6072 48.7235 81.6786 50.1164 81.3175C51.1224 81.0595 52.7991 81.6786 53.7793 81.885C55.9719 82.3751 58.2418 82.8652 60.0991 84.1807C61.9305 85.4705 63.1687 87.4051 64.5616 89.1591C68.3019 93.9828 73.564 97.9294 79.6258 98.8064C81.3025 99.0644 83.0307 99.0644 84.63 98.5743C86.2293 98.0842 87.7254 97.0266 88.5251 95.5563C88.783 95.092 88.9636 94.5761 89.3763 94.2665C90.2533 93.6216 91.4657 94.2149 92.4717 94.6277C94.071 95.2983 95.9024 95.4273 97.5791 94.9888C97.9918 94.8856 98.4819 94.7566 98.8172 95.0404C99.2557 95.3757 99.101 96.0722 98.8688 96.5623C97.9402 98.6001 96.5473 100.406 94.819 101.824L94.7932 101.799Z" fill="white"/>
        </mask>
        <g mask="url(#mask4_4632_15562)">
            <path d="M76.9897 98.2156C76.9897 98.2156 73.6363 103.942 83.8769 103.787C92.4408 103.658 81.349 105.645 81.349 105.645L68.0904 101.414L59.965 90.8125L52.9746 82.6355L60.8421 85.9888L65.9752 91.2252C65.9752 91.2252 69.6897 94.7333 69.7671 94.7849C69.8445 94.8365 76.9897 98.2156 76.9897 98.2156Z" fill="#F6A42B"/>
        </g>
        <path d="M94.7717 101.799C94.7717 101.799 94.617 101.928 94.5654 101.979C92.0375 103.965 88.8905 105.049 85.7177 105.487C78.1856 106.493 70.2666 103.656 65.0044 98.1616C62.4507 95.5047 60.5419 92.3319 58.2461 89.4687C56.2084 86.8892 53.8352 84.5418 51.0236 82.8652C50.5851 82.6072 48.702 81.6786 50.095 81.3175C51.101 81.0595 52.7776 81.6786 53.7578 81.885C55.9504 82.3751 58.2204 82.8652 60.0776 84.1807C61.909 85.4705 63.1472 87.4051 64.5401 89.1591C68.2804 93.9828 73.5425 97.9294 79.6043 98.8064C81.281 99.0644 83.0093 99.0644 84.6085 98.5743C86.2078 98.0842 87.7039 97.0266 88.5036 95.5563C88.7615 95.092 88.9421 94.5761 89.3548 94.2665C90.2318 93.6216 91.4442 94.2149 92.4502 94.6277C94.0495 95.2983 95.8809 95.4273 97.5576 94.9888C97.9703 94.8856 98.4604 94.7566 98.7957 95.0404C99.2343 95.3757 99.0795 96.0722 98.8473 96.5623C97.9187 98.6001 96.5258 100.406 94.7975 101.824L94.7717 101.799Z" stroke="#070706" stroke-width="3.46699" stroke-linecap="round" stroke-linejoin="round"/>
        <path d="M108.355 76.5958C108.02 76.0541 107.323 74.945 107.194 74.3259C106.936 73.2167 100.281 66.4584 99.6879 66.5358C97.4696 66.768 96.2314 73.81 96.3862 73.9905C96.7215 74.3517 98.6304 76.8538 98.9141 77.1375C100.255 78.582 100.591 81.0068 100.513 82.9672C100.436 84.9276 99.2752 86.888 97.4954 87.7392C94.7353 89.0806 91.4594 87.636 88.8025 86.0884C83.0244 82.7866 77.5043 79.0463 71.9584 75.3577C67.6765 72.4944 63.2397 69.6054 58.2355 68.4188C55.3465 67.7224 52.2253 67.6966 49.3621 68.5478C47.9176 68.9605 42.0621 71.4884 42.8618 73.6294C43.1197 74.3775 44.1257 74.4291 44.9254 74.4033C51.0388 74.1453 57.0748 75.8736 62.6207 78.4789C68.1666 81.0841 73.2482 84.5149 78.3298 87.894C82.1732 90.4477 86.094 93.0014 90.505 94.3427C94.9159 95.6841 99.9459 95.7099 103.893 93.3367C106.549 91.7374 108.587 89.1322 109.464 86.1657C110.341 83.1993 110.057 79.8976 108.69 77.1117C108.613 76.9312 108.51 76.7506 108.407 76.5958H108.355Z" fill="#FAD22A"/>
        <mask id="mask5_4632_15562" style="mask-type:luminance" maskUnits="userSpaceOnUse" x="42" y="66" width="68" height="30">
            <path d="M108.377 76.5922C108.041 76.0505 107.345 74.9413 107.216 74.3222C106.958 73.213 100.303 66.4548 99.7094 66.5322C97.4911 66.7643 96.2529 73.8063 96.4077 73.9869C96.743 74.348 98.6518 76.8501 98.9356 77.1339C100.277 78.5784 100.612 81.0031 100.535 82.9635C100.457 84.9239 99.2967 86.8843 97.5169 87.7356C94.7568 89.0769 91.4809 87.6324 88.824 86.0847C83.0459 82.7829 77.5258 79.0427 71.9799 75.354C67.698 72.4908 63.2612 69.6017 58.257 68.4152C55.368 67.7187 52.2468 67.6929 49.3836 68.5442C47.9391 68.9569 42.0836 71.4848 42.8833 73.6258C43.1412 74.3738 44.1472 74.4254 44.9468 74.3996C51.0602 74.1417 57.0962 75.8699 62.6422 78.4752C68.1881 81.0805 73.2697 84.5112 78.3512 87.8903C82.1947 90.444 86.1155 92.9977 90.5264 94.3391C94.9374 95.6804 99.9674 95.7062 103.914 93.3331C106.571 91.7338 108.609 89.1285 109.486 86.1621C110.363 83.1957 110.079 79.8939 108.712 77.1081C108.634 76.9275 108.531 76.7469 108.428 76.5922H108.377Z" fill="white"/>
        </mask>
        <g mask="url(#mask5_4632_15562)">
            <path d="M70.048 74.1162C70.048 74.1162 62 72.5685 63.2124 78.4755C63.7025 80.8487 42.8086 73.6519 42.8086 73.6519L49.3089 68.5703L56.0672 67.6675" fill="#7F3912"/>
            <path d="M92.2555 87.4263C92.2555 87.4263 98.2141 92.6111 90.4756 94.3394C82.7372 96.0676 103.863 93.3334 103.863 93.3334L110.905 84.0472L108.661 77.1084L105.23 75.2253L99.9682 77.779L99.0395 83.3765L96.7954 88.974L92.2555 87.4263Z" fill="#F6A42B"/>
        </g>
        <path d="M108.355 76.5958C108.02 76.0541 107.323 74.945 107.194 74.3259C106.936 73.2167 100.281 66.4584 99.6879 66.5358C97.4696 66.768 96.2314 73.81 96.3862 73.9905C96.7215 74.3517 98.6304 76.8538 98.9141 77.1375C100.255 78.582 100.591 81.0068 100.513 82.9672C100.436 84.9276 99.2752 86.888 97.4954 87.7392C94.7353 89.0806 91.4594 87.636 88.8025 86.0884C83.0244 82.7866 77.5043 79.0463 71.9584 75.3577C67.6765 72.4944 63.2397 69.6054 58.2355 68.4188C55.3465 67.7224 52.2253 67.6966 49.3621 68.5478C47.9176 68.9605 42.0621 71.4884 42.8618 73.6294C43.1197 74.3775 44.1257 74.4291 44.9254 74.4033C51.0388 74.1453 57.0748 75.8736 62.6207 78.4789C68.1666 81.0841 73.2482 84.5149 78.3298 87.894C82.1732 90.4477 86.094 93.0014 90.505 94.3427C94.9159 95.6841 99.9459 95.7099 103.893 93.3367C106.549 91.7374 108.587 89.1322 109.464 86.1657C110.341 83.1993 110.057 79.8976 108.69 77.1117C108.613 76.9312 108.51 76.7506 108.407 76.5958H108.355Z" stroke="#070706" stroke-width="3.46699" stroke-linecap="round" stroke-linejoin="round"/>
        <path d="M89.8091 94.243C90.2218 94.9137 88.8031 96.8483 87.049 97.9575C84.5469 99.531 81.7611 99.1698 80.5745 98.9893C79.5685 98.8345 78.2529 98.525 75.6477 97.1836C71.2883 94.9395 68.3477 92.4374 67.935 92.0762C64.3753 89.1356 57.746 83.6671 49.3627 82.171C44.5648 81.3198 41.3146 82.171 40.515 82.3516C36.4136 83.4607 33.473 85.4727 32.3638 86.5561C30.3776 88.4649 29.3974 89.9353 28.8557 91.9473C28.572 93.0306 28.5462 94.1656 27.8239 94.4752C26.8437 94.8879 25.425 93.4176 25.2444 93.237C23.2582 91.1992 22.7423 88.3618 23.542 85.5759C24.3416 82.8417 26.3278 80.5459 27.7723 79.282C31.4352 76.0834 35.3818 75.129 37.9613 74.5357C39.4316 74.2004 44.7196 73.0912 51.6068 74.4067C57.3591 75.5159 61.3315 77.7343 65.046 79.8494C68.0898 81.5519 73.1971 84.4409 77.7628 88.3618C77.7628 88.3618 81.4515 91.5345 85.2176 92.9533C87.0748 93.6497 87.926 93.8045 87.926 93.8045C89.1642 94.0366 89.6543 93.9077 89.8349 94.2172L89.8091 94.243Z" fill="#FAD22A"/>
        <mask id="mask6_4632_15562" style="mask-type:luminance" maskUnits="userSpaceOnUse" x="23" y="73" width="67" height="27">
            <path d="M89.8286 94.2464C90.2413 94.9171 88.8226 96.8517 87.0685 97.9609C84.5664 99.5344 81.7806 99.1732 80.594 98.9927C79.588 98.8379 78.2725 98.5284 75.6672 97.187C71.3079 94.9429 68.3672 92.4408 67.9545 92.0797C64.3948 89.139 57.7655 83.6705 49.3822 82.1744C44.5843 81.3232 41.3342 82.1744 40.5345 82.355C36.4331 83.4642 33.4925 85.4762 32.3833 86.5595C30.3971 88.4684 29.4169 89.9387 28.8752 91.9507C28.5915 93.0341 28.5657 94.169 27.8434 94.4786C26.8632 94.8913 25.4445 93.421 25.2639 93.2404C23.2777 91.2026 22.7618 88.3652 23.5615 85.5793C24.3611 82.8451 26.3473 80.5493 27.7918 79.2854C31.4547 76.0868 35.4013 75.1324 37.9808 74.5391C39.4511 74.2038 44.7391 73.0946 51.6263 74.4101C57.3786 75.5193 61.351 77.7377 65.0655 79.8529C68.1093 81.5553 73.2167 84.4444 77.7824 88.3652C77.7824 88.3652 81.471 91.538 85.2371 92.9567C87.0943 93.6531 87.9456 93.8079 87.9456 93.8079C89.1837 94.0401 89.6738 93.9111 89.8544 94.2206L89.8286 94.2464Z" fill="white"/>
        </mask>
        <g mask="url(#mask6_4632_15562)">
            <path d="M62.6324 77.0172C62.6324 77.0172 49.6576 76.0628 53.63 85.2458C56.0289 90.7917 23.8885 94.403 23.8885 94.403L20.5352 86.2518L28.9185 75.2116L40.2683 72.1936L51.5664 74.412" fill="#7F3912"/>
        </g>
        <path d="M89.8091 94.243C90.2218 94.9137 88.8031 96.8483 87.049 97.9575C84.5469 99.531 81.7611 99.1698 80.5745 98.9893C79.5685 98.8345 78.2529 98.525 75.6477 97.1836C71.2883 94.9395 68.3477 92.4374 67.935 92.0762C64.3753 89.1356 57.746 83.6671 49.3627 82.171C44.5648 81.3198 41.3146 82.171 40.515 82.3516C36.4136 83.4607 33.473 85.4727 32.3638 86.5561C30.3776 88.4649 29.3974 89.9353 28.8557 91.9473C28.572 93.0306 28.5462 94.1656 27.8239 94.4752C26.8437 94.8879 25.425 93.4176 25.2444 93.237C23.2582 91.1992 22.7423 88.3618 23.542 85.5759C24.3416 82.8417 26.3278 80.5459 27.7723 79.282C31.4352 76.0834 35.3818 75.129 37.9613 74.5357C39.4316 74.2004 44.7196 73.0912 51.6068 74.4067C57.3591 75.5159 61.3315 77.7343 65.046 79.8494C68.0898 81.5519 73.1971 84.4409 77.7628 88.3618C77.7628 88.3618 81.4515 91.5345 85.2176 92.9533C87.0748 93.6497 87.926 93.8045 87.926 93.8045C89.1642 94.0366 89.6543 93.9077 89.8349 94.2172L89.8091 94.243Z" stroke="#070706" stroke-width="3.46699" stroke-linecap="round" stroke-linejoin="round"/>
        <path d="M99.8671 95.375C99.3254 95.9167 98.8095 96.4584 98.2936 97.0259C93.9601 101.798 90.7873 108.092 91.5353 114.515C91.6901 115.753 92.1544 117.223 93.3668 117.559C94.218 117.817 95.1466 117.378 95.7657 116.733C96.3848 116.088 96.7201 115.263 97.107 114.437C99.8413 108.427 103.788 103.062 107.967 97.9803C110.391 95.0139 112.945 92.099 114.828 88.7715C116.711 85.4439 117.949 81.6005 117.511 77.7829C116.866 72.1854 112.687 67.5165 107.864 64.5759C105.103 62.8992 101.982 61.6868 98.7321 61.4289C97.4424 61.3257 94.9919 61.1451 93.8827 61.8932C92.3608 62.925 94.2696 63.3377 95.5078 63.931C99.1706 65.685 102.498 68.6515 105.103 71.7726C107.709 74.8938 109.231 79.0726 108.483 83.0708C107.941 85.934 106.316 88.4877 104.381 90.6803C102.962 92.3054 101.389 93.7757 99.8671 95.3234V95.375Z" fill="#FAD22A" stroke="#070706" stroke-width="3.46699" stroke-linecap="round" stroke-linejoin="round"/>
    </g>
    <path d="M70.0043 85.1093C100.163 85.1093 124.612 75.8934 124.612 64.525C124.612 53.1566 100.163 43.9407 70.0043 43.9407C39.8452 43.9407 15.3965 53.1566 15.3965 64.525C15.3965 75.8934 39.8452 85.1093 70.0043 85.1093Z" stroke="#070706" stroke-width="3.46699" stroke-miterlimit="10"/>
    <path d="M114.065 24.2305L92.9648 68.1334L96.1118 69.6553L120.772 28.8736L114.065 24.2305Z" fill="#EFEDDE" stroke="#070706" stroke-width="3.46699" stroke-linecap="round" stroke-linejoin="round"/>
    <path d="M124.064 34.7314L92.7773 70.6629L96.6466 73.2424L128.01 41.954L124.064 34.7314Z" fill="#EFEDDE" stroke="#070706" stroke-width="3.46699" stroke-linecap="round" stroke-linejoin="round"/>
    <path d="M76.9795 57.2241C76.9795 59.3651 75.2513 59.9584 73.0845 59.9584C70.9177 59.9584 69.1895 59.3651 69.1895 57.2241C69.1895 55.0832 70.9177 53.3291 73.0845 53.3291C75.2513 53.3291 76.9795 55.0574 76.9795 57.2241Z" fill="#009133" stroke="#070706" stroke-width="2.66692" stroke-miterlimit="10"/>
    <path d="M65.0475 69.1151C63.5772 69.4505 62.3649 69.2183 62.0295 67.748C61.6942 66.2777 62.6228 64.8332 64.0673 64.5236C65.5118 64.2141 66.9821 65.1169 67.2917 66.5614C67.6012 68.0059 66.5178 68.7798 65.0475 69.1151Z" fill="#009133" stroke="#070706" stroke-width="2.66692" stroke-miterlimit="10"/>
</svg>