<svg xmlns="http://www.w3.org/2000/svg" width="144" height="144" viewBox="0 0 144 144" fill="none">
    <path d="M44.0488 99.4434V114.381C44.0488 117.499 57.152 121.981 73.3213 121.981C89.4905 121.981 102.594 117.526 102.594 114.381V99.4434H44.0488Z" fill="#EFEEDF"/>
    <mask id="mask0_4632_15636" style="mask-type:luminance" maskUnits="userSpaceOnUse" x="44" y="99" width="59" height="23">
        <path d="M44.0293 99.4458V114.383C44.0293 117.502 57.1324 121.983 73.3017 121.983C89.471 121.983 102.574 117.528 102.574 114.383V99.4458H44.0293Z" fill="white"/>
    </mask>
    <g mask="url(#mask0_4632_15636)">
        <path d="M51.2244 92.7367H36.2344V127.277H54.4215V92.396L51.2244 92.7367Z" fill="white"/>
    </g>
    <path d="M44.0488 99.4434V114.381C44.0488 117.499 57.152 121.981 73.3213 121.981C89.4905 121.981 102.594 117.526 102.594 114.381V99.4434H44.0488Z" stroke="#070706" stroke-width="3.46699" stroke-miterlimit="10"/>
    <path d="M126.136 68.8038C123.148 70.1666 118.824 71.5031 113.504 72.5251C102.812 74.5954 88.32 75.5389 73.2775 75.5389C58.2351 75.5389 43.2189 74.4906 32.5268 72.4203C27.2069 71.3983 23.407 70.1666 20.4195 68.8038C17.4319 67.1528 17.9299 66.1832 17.7988 65.8425C20.2622 92.704 44.1624 111.887 73.2775 111.887C102.393 111.887 126.293 92.704 128.756 65.8425C128.756 66.6025 127.315 68.2535 126.109 68.8038H126.136Z" fill="#EFEEDF"/>
    <mask id="mask1_4632_15636" style="mask-type:luminance" maskUnits="userSpaceOnUse" x="17" y="65" width="112" height="47">
        <path d="M126.145 68.8038C123.158 70.1666 118.834 71.5031 113.514 72.5251C102.822 74.5954 88.3297 75.5389 73.2873 75.5389C58.2449 75.5389 43.2287 74.4906 32.5365 72.4203C27.2167 71.3983 23.4167 70.1666 20.4292 68.8038C17.4417 67.1528 17.9396 66.1832 17.8086 65.8425C20.272 92.704 44.1721 111.887 73.2873 111.887C102.402 111.887 126.303 92.704 128.766 65.8425C128.766 66.6025 127.325 68.2535 126.119 68.8038H126.145Z" fill="white"/>
    </mask>
    <g mask="url(#mask1_4632_15636)">
        <path d="M28.5088 61.2329C28.5088 61.2329 30.5529 94.2266 46.6435 105.967L16.1394 101.224L12.6016 53.7117L28.535 61.2067L28.5088 61.2329Z" fill="white"/>
        <path d="M103.735 69.252C103.735 69.252 108.269 95.7204 85.7313 114.117C69.693 127.22 138.144 84.8186 138.353 69.252C138.406 64.5349 103.735 69.252 103.735 69.252Z" fill="#CECECE"/>
        <path d="M9.66406 80.2572C9.66406 80.2572 23.632 91.657 46.9294 97.3438C71.8516 103.424 107.099 103.109 137 80.2572V73.365C111.816 94.1204 74.4722 95.7714 49.2618 90.766C24.0513 85.7606 9.69027 73.365 9.69027 73.365V80.2572H9.66406Z" fill="#DD3E3D" stroke="#070706" stroke-width="3.46699" stroke-miterlimit="10"/>
    </g>
    <path d="M126.136 68.8038C123.148 70.1666 118.824 71.5031 113.504 72.5251C102.812 74.5954 88.32 75.5389 73.2775 75.5389C58.2351 75.5389 43.2189 74.4906 32.5268 72.4203C27.2069 71.3983 23.407 70.1666 20.4195 68.8038C17.4319 67.1528 17.9299 66.1832 17.7988 65.8425C20.2622 92.704 44.1624 111.887 73.2775 111.887C102.393 111.887 126.293 92.704 128.756 65.8425C128.756 66.6025 127.315 68.2535 126.109 68.8038H126.136Z" stroke="#070706" stroke-width="3.46699" stroke-linecap="square" stroke-linejoin="round"/>
    <path d="M73.2971 85.7625C103.937 85.7625 128.776 76.3996 128.776 64.8499C128.776 53.3002 103.937 43.9373 73.2971 43.9373C42.657 43.9373 17.8184 53.3002 17.8184 64.8499C17.8184 76.3996 42.657 85.7625 73.2971 85.7625Z" fill="#EFEEDF"/>
    <mask id="mask2_4632_15636" style="mask-type:luminance" maskUnits="userSpaceOnUse" x="17" y="43" width="112" height="43">
        <path d="M73.299 85.7649C103.939 85.7649 128.778 76.402 128.778 64.8523C128.778 53.3026 103.939 43.9397 73.299 43.9397C42.659 43.9397 17.8203 53.3026 17.8203 64.8523C17.8203 76.402 42.659 85.7649 73.299 85.7649Z" fill="white"/>
    </mask>
    <g mask="url(#mask2_4632_15636)">
        <path d="M104.754 62.0719C104.754 56.2541 98.1766 52.9521 96.2898 52.0349C92.1754 50.0956 88.4541 50.4363 87.5107 50.5411C86.148 50.6983 83.5011 51.0128 81.1688 52.7948C79.6226 53.9741 78.3123 55.7037 77.9716 56.1492C77.5523 56.7258 77.2116 57.2237 77.002 57.5906L87.799 59.6347L102.946 61.6788L104.754 62.0195V62.0719Z" fill="#EFEEDF" stroke="#070706" stroke-width="3.46699" stroke-miterlimit="10"/>
        <path d="M93.4621 60.3188C92.44 59.1919 88.2994 56.9906 86.4126 56.3093C80.8306 54.2652 77.1356 54.0293 74.6722 53.741C71.0819 53.3217 68.0158 53.4528 63.2986 53.9769C59.8918 54.3438 56.5636 54.7369 52.8161 56.7548C51.0603 57.6982 48.23 59.2706 46.0025 62.5201C43.1984 66.6083 43.015 70.8537 43.0674 72.6358L52.423 64.3808L63.4035 62.4677L75.0129 64.4856L86.6222 62.4415L93.4359 60.2926L93.4621 60.3188Z" fill="#EFEEDF" stroke="#070706" stroke-width="3.46699" stroke-miterlimit="10"/>
        <path d="M99.8736 74.126C99.0874 73.9164 98.4847 73.3398 97.8819 72.7895C93.3482 68.7275 86.718 67.2075 80.8478 68.8323C80.1403 69.0158 79.4327 69.2778 78.7251 69.1992C78.0176 69.1206 77.3624 68.7275 76.7597 68.3606C73.9556 66.6572 70.6012 65.111 67.8233 63.4076C67.6137 63.2766 67.404 63.1456 67.2992 62.9359C66.9847 62.2546 67.9543 61.7566 68.6881 61.6518C77.9127 60.3153 88.9194 59.765 97.5413 63.7221C101.184 65.3993 104.512 67.7579 107.264 70.693C107.369 70.824 107.5 70.955 107.526 71.1385C107.578 71.4792 107.238 71.715 106.923 71.8723C105.377 72.6847 103.752 73.3398 102.101 73.8901C101.394 74.126 100.607 74.3357 99.8474 74.1522L99.8736 74.126Z" fill="#FAD22A" stroke="#070706" stroke-width="3.46699" stroke-linecap="round" stroke-linejoin="round"/>
        <path d="M95.8721 88.0664C96.1079 88.3809 96.5534 88.4857 96.9465 88.5381C98.8858 88.8002 101.008 88.5643 102.502 87.2802C103.944 86.0485 104.52 84.0045 104.31 82.0914C104.101 80.1783 103.21 78.4487 102.109 76.8763C99.3575 72.9978 95.1907 70.2199 90.6308 68.962C88.2984 68.3069 85.8613 68.0448 83.4503 68.2283C82.6641 68.2807 80.5938 68.2283 80.0435 68.9096C79.2835 69.8531 80.5938 71.5303 81.1703 72.2378C82.5855 73.9412 84.3151 75.435 86.2019 76.6143C88.2984 77.8984 90.6046 78.8418 92.5439 80.3618C94.4831 81.8817 96.0555 84.2141 95.741 86.6513C95.6886 87.123 95.5576 87.6733 95.8459 88.0664H95.8721Z" fill="#FAD22A" stroke="#070706" stroke-width="3.46699" stroke-miterlimit="10"/>
        <path d="M95.7809 87.8868C96.043 87.7296 96.2264 87.4413 96.3837 87.153C97.2223 85.3448 96.3837 83.2221 95.3354 81.5449C91.6927 75.7271 85.6129 71.9796 79.7951 68.3369C74.8421 65.2446 69.7581 62.0474 64.0713 60.7633C53.7985 58.4309 40.6953 65.4018 43.8925 77.5091C43.9449 77.6926 44.0235 77.9022 44.207 77.9808C44.3642 78.0332 44.5476 77.9808 44.7049 77.876C47.6924 76.1464 48.8979 72.3727 51.5447 70.1713C53.615 68.4679 56.4453 67.839 59.1445 68.0486C61.8438 68.2583 64.3858 69.2279 66.823 70.381C76.4407 74.9409 84.3812 82.4097 93.6844 87.5723C94.3396 87.9392 95.152 88.2799 95.7809 87.8868Z" fill="#FAD22A"/>
        <mask id="mask3_4632_15636" style="mask-type:luminance" maskUnits="userSpaceOnUse" x="43" y="60" width="54" height="29">
            <path d="M95.7595 87.8834C96.0215 87.7261 96.205 87.4379 96.3622 87.1496C97.2008 85.3414 96.3622 83.2187 95.3139 81.5415C91.6713 75.7237 85.5914 71.9762 79.7736 68.3335C74.8206 65.2411 69.7366 62.044 64.0498 60.7599C53.777 58.4275 40.6738 65.3984 43.871 77.5057C43.9234 77.6891 44.002 77.8988 44.1855 77.9774C44.3427 78.0298 44.5261 77.9774 44.6834 77.8726C47.6709 76.143 48.8764 72.3693 51.5232 70.1679C53.5935 68.4645 56.4238 67.8356 59.1231 68.0452C61.8223 68.2549 64.3643 69.2245 66.8015 70.3776C76.4192 74.9375 84.3597 82.4063 93.6629 87.5689C94.3181 87.9358 95.1305 88.2765 95.7595 87.8834Z" fill="white"/>
        </mask>
        <g mask="url(#mask3_4632_15636)">
            <path d="M67.3178 62.9392C67.3178 62.9392 58.9055 62.8868 59.1152 68.0756C59.2724 71.7707 45.619 74.1555 45.619 74.1555L41.6094 64.1709L58.9317 58.6414L67.2915 62.9654" fill="#EFEEDF"/>
            <path d="M88.7798 74.4705C88.7798 74.4705 91.9508 83.9309 81.1538 77.1959C72.8202 72.0071 95.7507 87.8881 95.7507 87.8881L97.7948 84.5075L93.8114 78.5848L88.7536 74.4967" fill="#F6A42B"/>
        </g>
        <path d="M95.7809 87.8868C96.043 87.7296 96.2264 87.4413 96.3837 87.153C97.2223 85.3448 96.3837 83.2221 95.3354 81.5449C91.6927 75.7271 85.6129 71.9796 79.7951 68.3369C74.8421 65.2446 69.7581 62.0474 64.0713 60.7633C53.7985 58.4309 40.6953 65.4018 43.8925 77.5091C43.9449 77.6926 44.0235 77.9022 44.207 77.9808C44.3642 78.0332 44.5476 77.9808 44.7049 77.876C47.6924 76.1464 48.8979 72.3727 51.5447 70.1713C53.615 68.4679 56.4453 67.839 59.1445 68.0486C61.8438 68.2583 64.3858 69.2279 66.823 70.381C76.4407 74.9409 84.3812 82.4097 93.6844 87.5723C94.3396 87.9392 95.152 88.2799 95.7809 87.8868Z" stroke="#070706" stroke-width="3.46699" stroke-linecap="round" stroke-linejoin="round"/>
        <path d="M98.422 102.74C98.422 102.74 98.2648 102.871 98.2123 102.923C95.6441 104.941 92.447 106.042 89.2236 106.488C81.5713 107.51 73.526 104.627 68.1799 99.0449C65.5855 96.3457 63.6462 93.1223 61.3139 90.2134C59.2436 87.5928 56.8326 85.208 53.9761 83.5046C53.5306 83.2425 51.6176 82.2991 53.0327 81.9322C54.0547 81.6702 55.7581 82.2991 56.754 82.5088C58.9815 83.0067 61.2877 83.5046 63.1745 84.8411C65.0352 86.1514 66.2931 88.1169 67.7082 89.8989C71.5081 94.7995 76.8542 98.8091 83.0127 99.7001C84.7161 99.9622 86.4719 99.9622 88.0967 99.4642C89.7215 98.9663 91.2415 97.8919 92.0539 96.3981C92.3159 95.9264 92.4994 95.4023 92.9187 95.0878C93.8097 94.4326 95.0414 95.0354 96.0634 95.4547C97.6882 96.136 99.5489 96.2671 101.252 95.8216C101.672 95.7167 102.169 95.5857 102.51 95.874C102.956 96.2147 102.798 96.9222 102.563 97.4202C101.619 99.4904 100.204 101.325 98.4482 102.766L98.422 102.74Z" fill="#FAD22A"/>
        <mask id="mask4_4632_15636" style="mask-type:luminance" maskUnits="userSpaceOnUse" x="52" y="81" width="51" height="26">
            <path d="M98.4122 102.74C98.4122 102.74 98.255 102.871 98.2026 102.923C95.6344 104.941 92.4372 106.042 89.2138 106.488C81.5616 107.51 73.5163 104.627 68.1702 99.0449C65.5757 96.3457 63.6365 93.1223 61.3041 90.2134C59.2338 87.5928 56.8228 85.208 53.9664 83.5046C53.5209 83.2425 51.6078 82.2991 53.0229 81.9322C54.045 81.6702 55.7484 82.2991 56.7442 82.5088C58.9718 83.0067 61.2779 83.5046 63.1648 84.8411C65.0254 86.1514 66.2833 88.1169 67.6985 89.8989C71.4984 94.7995 76.8444 98.8091 83.0029 99.7001C84.7063 99.9622 86.4622 99.9622 88.0869 99.4642C89.7117 98.9663 91.2317 97.8919 92.0441 96.3981C92.3062 95.9264 92.4896 95.4023 92.9089 95.0878C93.7999 94.4326 95.0316 95.0354 96.0537 95.4547C97.6785 96.136 99.5391 96.2671 101.243 95.8216C101.662 95.7167 102.16 95.5857 102.5 95.874C102.946 96.2147 102.789 96.9222 102.553 97.4202C101.609 99.4904 100.194 101.325 98.4384 102.766L98.4122 102.74Z" fill="white"/>
        </mask>
        <g mask="url(#mask4_4632_15636)">
            <path d="M80.3141 99.0725C80.3141 99.0725 76.9072 104.89 87.3111 104.733C96.0116 104.602 84.7429 106.62 84.7429 106.62L71.2729 102.322L63.0179 91.5513L55.916 83.2439L63.9089 86.6507L69.124 91.9706C69.124 91.9706 72.8977 95.5346 72.9763 95.5871C73.0549 95.6395 80.3141 99.0725 80.3141 99.0725Z" fill="#F6A42B"/>
        </g>
        <path d="M98.422 102.74C98.422 102.74 98.2648 102.871 98.2123 102.923C95.6441 104.941 92.447 106.042 89.2236 106.488C81.5713 107.51 73.526 104.627 68.1799 99.0449C65.5855 96.3457 63.6462 93.1223 61.3139 90.2134C59.2436 87.5928 56.8326 85.208 53.9761 83.5046C53.5306 83.2425 51.6176 82.2991 53.0327 81.9322C54.0547 81.6702 55.7581 82.2991 56.754 82.5088C58.9815 83.0067 61.2877 83.5046 63.1745 84.8411C65.0352 86.1514 66.2931 88.1169 67.7082 89.8989C71.5081 94.7995 76.8542 98.8091 83.0127 99.7001C84.7161 99.9622 86.4719 99.9622 88.0967 99.4642C89.7215 98.9663 91.2415 97.8919 92.0539 96.3981C92.3159 95.9264 92.4994 95.4023 92.9187 95.0878C93.8097 94.4326 95.0414 95.0354 96.0634 95.4547C97.6882 96.136 99.5489 96.2671 101.252 95.8216C101.672 95.7167 102.169 95.5857 102.51 95.874C102.956 96.2147 102.798 96.9222 102.563 97.4202C101.619 99.4905 100.204 101.325 98.4482 102.766L98.422 102.74Z" stroke="#070706" stroke-width="3.46699" stroke-linecap="round" stroke-linejoin="round"/>
        <path d="M112.237 77.1159C111.896 76.5656 111.188 75.4387 111.057 74.8097C110.795 73.6829 104.034 66.8168 103.431 66.8954C101.178 67.1313 99.9197 74.2856 100.077 74.4691C100.418 74.836 102.357 77.378 102.645 77.6662C104.008 79.1338 104.349 81.5972 104.27 83.5889C104.191 85.5805 103.012 87.5722 101.204 88.437C98.3997 89.7997 95.0715 88.3322 92.3723 86.7598C86.5021 83.4054 80.8939 79.6055 75.2596 75.858C70.9093 72.9491 66.4019 70.014 61.3178 68.8085C58.3827 68.1009 55.2118 68.0747 52.3029 68.9395C50.8353 69.3588 44.8865 71.9271 45.6989 74.1022C45.961 74.8622 46.983 74.9146 47.7954 74.8884C54.0063 74.6263 60.1386 76.3821 65.7729 79.029C71.4073 81.6758 76.5699 85.1612 81.7325 88.5943C85.6373 91.1887 89.6206 93.7831 94.1019 95.1458C98.5832 96.5086 103.693 96.5348 107.703 94.1238C110.402 92.499 112.473 89.8522 113.364 86.8384C114.255 83.8247 113.966 80.4703 112.577 77.64C112.499 77.4566 112.394 77.2731 112.289 77.1159H112.237Z" fill="#FAD22A"/>
        <mask id="mask5_4632_15636" style="mask-type:luminance" maskUnits="userSpaceOnUse" x="45" y="66" width="69" height="31">
            <path d="M112.227 77.1157C111.886 76.5653 111.179 75.4384 111.048 74.8095C110.786 73.6826 104.024 66.8166 103.422 66.8952C101.168 67.1311 99.9099 74.2854 100.067 74.4688C100.408 74.8357 102.347 77.3777 102.635 77.666C103.998 79.1335 104.339 81.5969 104.26 83.5886C104.182 85.5803 103.002 87.572 101.194 88.4368C98.39 89.7995 95.0618 88.3319 92.3625 86.7596C86.4923 83.4052 80.8842 79.6053 75.2498 75.8578C70.8996 72.9489 66.3921 70.0137 61.3081 68.8083C58.373 68.1007 55.202 68.0745 52.2931 68.9393C50.8256 69.3586 44.8767 71.9268 45.6891 74.1019C45.9512 74.8619 46.9732 74.9143 47.7856 74.8881C53.9965 74.6261 60.1288 76.3819 65.7632 79.0287C71.3975 81.6755 76.5601 85.161 81.7228 88.594C85.6275 91.1884 89.6109 93.7829 94.0922 95.1456C98.5734 96.5083 103.684 96.5345 107.693 94.1235C110.392 92.4987 112.463 89.8519 113.354 86.8382C114.245 83.8245 113.957 80.4701 112.568 77.6398C112.489 77.4563 112.384 77.2729 112.279 77.1157H112.227Z" fill="white"/>
        </mask>
        <g mask="url(#mask5_4632_15636)">
            <path d="M61.4876 69.5935C61.4876 69.5935 52.5513 71.1659 55.8008 74.5465C57.5043 76.3286 45.6328 74.1272 45.6328 74.1272L52.2368 68.9646L59.1028 68.0474" fill="#EFEEDF"/>
            <path d="M95.8442 88.1446C95.8442 88.1446 101.898 93.4121 94.036 95.1679C86.1741 96.9237 107.637 94.1458 107.637 94.1458L114.791 84.7116L112.511 77.6621L109.026 75.749L103.68 78.3434L102.737 84.0302L100.457 89.717L95.8442 88.1446Z" fill="#F6A42B"/>
        </g>
        <path d="M112.237 77.1159C111.896 76.5656 111.188 75.4387 111.057 74.8097C110.795 73.6829 104.034 66.8168 103.431 66.8954C101.178 67.1313 99.9197 74.2856 100.077 74.4691C100.418 74.836 102.357 77.378 102.645 77.6662C104.008 79.1338 104.349 81.5972 104.27 83.5889C104.191 85.5805 103.012 87.5722 101.204 88.437C98.3997 89.7997 95.0715 88.3322 92.3723 86.7598C86.5021 83.4054 80.8939 79.6055 75.2596 75.858C70.9093 72.9491 66.4019 70.014 61.3178 68.8085C58.3827 68.1009 55.2118 68.0747 52.3029 68.9395C50.8353 69.3588 44.8865 71.9271 45.6989 74.1022C45.961 74.8622 46.983 74.9146 47.7954 74.8884C54.0063 74.6263 60.1386 76.3821 65.7729 79.029C71.4073 81.6758 76.5699 85.1612 81.7325 88.5943C85.6373 91.1887 89.6206 93.7831 94.1019 95.1458C98.5832 96.5086 103.693 96.5348 107.703 94.1238C110.402 92.499 112.473 89.8522 113.364 86.8384C114.255 83.8247 113.966 80.4703 112.577 77.64C112.499 77.4566 112.394 77.2731 112.289 77.1159H112.237Z" stroke="#070706" stroke-width="3.46699" stroke-linecap="round" stroke-linejoin="round"/>
        <path d="M93.3834 95.0403C93.8027 95.7217 92.3613 97.6872 90.5793 98.814C88.0373 100.413 85.207 100.046 84.0015 99.8623C82.9795 99.705 81.643 99.3906 78.9961 98.0278C74.5673 95.7479 71.5797 93.2059 71.1604 92.839C67.544 89.8515 60.809 84.2957 52.2919 82.7758C47.4176 81.911 44.1156 82.7758 43.3032 82.9592C39.1364 84.0861 36.1488 86.1302 35.022 87.2308C33.0041 89.1701 32.0082 90.6639 31.4579 92.708C31.1696 93.8086 31.1434 94.9617 30.4097 95.2762C29.4138 95.6955 27.9725 94.2017 27.789 94.0183C25.7711 91.948 25.247 89.0653 26.0594 86.235C26.8718 83.4571 28.8897 81.1248 30.3572 79.8407C34.0785 76.5911 38.0881 75.6215 40.7087 75.0187C42.2025 74.678 47.5748 73.5512 54.5719 74.8877C60.4159 76.0146 64.4516 78.2683 68.2253 80.4172C71.3177 82.1468 76.5065 85.0819 81.145 89.0653C81.145 89.0653 84.8925 92.2887 88.7187 93.73C90.6055 94.4376 91.4703 94.5948 91.4703 94.5948C92.7282 94.8307 93.2261 94.6996 93.4096 95.0141L93.3834 95.0403Z" fill="#FAD22A"/>
        <mask id="mask6_4632_15636" style="mask-type:luminance" maskUnits="userSpaceOnUse" x="25" y="74" width="69" height="27">
            <path d="M93.3931 95.0381C93.8124 95.7195 92.3711 97.685 90.5891 98.8118C88.0471 100.41 85.2168 100.044 84.0113 99.8601C82.9893 99.7028 81.6527 99.3884 79.0059 98.0256C74.577 95.7457 71.5895 93.2037 71.1702 92.8368C67.5537 89.8493 60.8187 84.2935 52.3017 82.7736C47.4273 81.9088 44.1253 82.7736 43.3129 82.957C39.1461 84.0839 36.1586 86.128 35.0317 87.2286C33.0138 89.1679 32.018 90.6617 31.4677 92.7058C31.1794 93.8064 31.1532 94.9595 30.4194 95.274C29.4236 95.6933 27.9822 94.1995 27.7988 94.0161C25.7809 91.9458 25.2568 89.0631 26.0692 86.2328C26.8816 83.4549 28.8995 81.1226 30.367 79.8385C34.0883 76.5889 38.0979 75.6193 40.7185 75.0165C42.2123 74.6758 47.5845 73.549 54.5816 74.8855C60.4256 76.0124 64.4614 78.2661 68.2351 80.415C71.3274 82.1446 76.5163 85.0797 81.1548 89.0631C81.1548 89.0631 84.9023 92.2865 88.7284 93.7278C90.6153 94.4354 91.4801 94.5926 91.4801 94.5926C92.738 94.8285 93.2359 94.6974 93.4193 95.0119L93.3931 95.0381Z" fill="white"/>
        </mask>
        <g mask="url(#mask6_4632_15636)">
            <path d="M54.5778 74.9102C54.5778 74.9102 42.8898 76.7446 45.4318 83.27C47.6593 88.9829 26.4322 95.2462 26.4322 95.2462L23.0254 86.9651L31.5424 75.7488L43.0732 72.6826L54.5515 74.9364" fill="#EFEEDF"/>
        </g>
        <path d="M93.3834 95.0403C93.8027 95.7217 92.3613 97.6872 90.5793 98.814C88.0373 100.413 85.207 100.046 84.0015 99.8623C82.9795 99.705 81.643 99.3906 78.9961 98.0278C74.5673 95.7479 71.5797 93.2059 71.1604 92.839C67.544 89.8515 60.809 84.2957 52.2919 82.7758C47.4176 81.911 44.1156 82.7758 43.3032 82.9592C39.1364 84.0861 36.1488 86.1302 35.022 87.2308C33.0041 89.1701 32.0082 90.6639 31.4579 92.708C31.1696 93.8086 31.1434 94.9617 30.4097 95.2762C29.4138 95.6955 27.9725 94.2017 27.789 94.0183C25.7711 91.948 25.247 89.0653 26.0594 86.235C26.8718 83.4571 28.8897 81.1248 30.3572 79.8407C34.0785 76.5911 38.0881 75.6215 40.7087 75.0187C42.2025 74.678 47.5748 73.5512 54.5719 74.8877C60.4159 76.0146 64.4516 78.2683 68.2253 80.4172C71.3177 82.1468 76.5065 85.0819 81.145 89.0653C81.145 89.0653 84.8925 92.2887 88.7187 93.73C90.6055 94.4376 91.4703 94.5948 91.4703 94.5948C92.7282 94.8307 93.2261 94.6996 93.4096 95.0141L93.3834 95.0403Z" stroke="#070706" stroke-width="3.46699" stroke-linecap="round" stroke-linejoin="round"/>
        <path d="M103.609 96.1933C103.059 96.7436 102.535 97.294 102.011 97.8705C97.6079 102.719 94.3845 109.113 95.1445 115.638C95.3018 116.896 95.7735 118.39 97.0052 118.731C97.87 118.993 98.8134 118.547 99.4423 117.892C100.071 117.237 100.412 116.398 100.805 115.56C103.583 109.454 107.592 104.003 111.838 98.8401C114.301 95.8264 116.896 92.8651 118.809 89.4845C120.722 86.1039 121.98 82.1991 121.534 78.3206C120.879 72.6338 116.634 67.8905 111.733 64.903C108.929 63.1996 105.758 61.9679 102.456 61.7058C101.146 61.601 98.6561 61.4176 97.5293 62.1775C95.9831 63.2258 97.9224 63.6451 99.1803 64.2478C102.902 66.0299 106.282 69.0436 108.929 72.2145C111.576 75.3855 113.122 79.6309 112.362 83.6929C111.812 86.6018 110.161 89.1962 108.195 91.4238C106.754 93.0748 105.155 94.5685 103.609 96.1409V96.1933Z" fill="#FAD22A" stroke="#070706" stroke-width="3.46699" stroke-linecap="round" stroke-linejoin="round"/>
    </g>
    <path d="M73.2971 85.7625C103.937 85.7625 128.776 76.3996 128.776 64.8499C128.776 53.3002 103.937 43.9373 73.2971 43.9373C42.657 43.9373 17.8184 53.3002 17.8184 64.8499C17.8184 76.3996 42.657 85.7625 73.2971 85.7625Z" stroke="#070706" stroke-width="3.46699" stroke-miterlimit="10"/>
    <path d="M44.6399 70.7973C44.6399 70.7973 40.5079 62.3109 49.2498 53.0431L42.7847 53.7975C42.2507 50.0257 40.0863 44.3951 38.5122 41.9973C38.5122 41.9973 38.2873 46.7389 36.6288 50.6723C36.6288 50.6723 30.5292 45.9576 20.5786 45.7152C20.5786 45.7152 23.6425 48.9212 24.1484 52.666C24.1484 52.666 17.1212 53.5011 15.1816 56.3569C15.1816 56.3569 38.4559 56.3569 44.6399 70.8242V70.7973Z" fill="#009133" stroke="#070706" stroke-width="2.66692" stroke-linecap="round" stroke-linejoin="round"/>
    <path d="M44.0066 71.2908C44.0066 71.2908 31.0607 68.8536 26.396 75.4576C26.396 75.4576 25.7146 69.2729 31.218 67.517C31.218 67.517 28.5187 65.604 25.9505 66.0233C23.3823 66.4426 38.084 56.0911 44.0328 71.2645L44.0066 71.2908Z" fill="#009133" stroke="#070706" stroke-width="2.66692" stroke-linecap="round" stroke-linejoin="round"/>
    <path d="M117.561 24.1572L96.4727 68.4435L99.6178 69.9787L124.263 28.8409L117.561 24.1572Z" fill="#EFEDDE" stroke="#070706" stroke-width="3.46699" stroke-linecap="round" stroke-linejoin="round"/>
    <path d="M127.545 34.7466L97.8984 68.807L100.94 72.1636L131.49 42.0322L127.545 34.7466Z" fill="#EFEDDE" stroke="#070706" stroke-width="3.46699" stroke-linecap="round" stroke-linejoin="round"/>
</svg>