<svg xmlns="http://www.w3.org/2000/svg" width="144" height="144" viewBox="0 0 144 144" fill="none">
    <path d="M52.8156 100.748L42.968 90.9006L36.9831 96.8855C35.3856 95.4548 33.2873 94.5726 30.9745 94.5726C25.9195 94.5726 21.8184 98.6738 21.8184 103.729C21.8184 108.426 25.3711 112.241 29.9015 112.789C30.1399 117.63 34.1219 121.492 39.0099 121.492C43.8979 121.492 48.166 117.391 48.166 112.336C48.166 110.286 47.4745 108.426 46.33 106.924L52.8156 100.748Z" fill="#EFEEDF"/>
    <mask id="mask0_4632_15455" style="mask-type:luminance" maskUnits="userSpaceOnUse" x="21" y="90" width="32" height="32">
        <path d="M52.3273 100.517L42.4797 90.6694L36.4949 96.6543C34.8973 95.2236 32.799 94.3414 30.4862 94.3414C25.4312 94.3414 21.3301 98.4426 21.3301 103.498C21.3301 108.195 24.8828 112.01 29.4132 112.558C29.6516 117.399 33.6336 121.261 38.5216 121.261C43.4096 121.261 47.6777 117.16 47.6777 112.105C47.6777 110.055 46.9862 108.195 45.8417 106.693L52.3273 100.517Z" fill="white"/>
    </mask>
    <g mask="url(#mask0_4632_15455)">
        <path d="M47.1534 92.0293L38.8318 100.637C37.5681 101.925 35.5175 101.328 34.1822 100.112C31.6071 97.8234 29.0319 98.801 27.792 99.5163C25.6222 100.78 23.1424 104.309 23.6432 109.578C24.1439 114.848 19.8281 108.577 19.8281 108.577L20.1858 95.0098C20.1858 95.0098 43.6006 88.5004 45.0551 88.6911C46.5096 88.8819 47.1534 92.0293 47.1534 92.0293Z" fill="#EFEEDF"/>
    </g>
    <path d="M52.8156 100.748L42.968 90.9006L36.9831 96.8855C35.3856 95.4548 33.2873 94.5726 30.9745 94.5726C25.9195 94.5726 21.8184 98.6738 21.8184 103.729C21.8184 108.426 25.3711 112.241 29.9015 112.789C30.1399 117.63 34.1219 121.492 39.0099 121.492C43.8979 121.492 48.166 117.391 48.166 112.336C48.166 110.286 47.4745 108.426 46.33 106.924L52.8156 100.748Z" stroke="#070706" stroke-width="3.46699" stroke-miterlimit="10"/>
    <path d="M47.2743 83.6981C45.3668 81.7906 45.3906 78.6909 47.3458 76.7595C49.301 74.8281 50.1833 70.5601 50.1833 67.8418C50.2548 54.1792 55.0951 39.3006 66.6595 30.9075C79.6068 21.5368 99.5881 22.2282 110.842 33.4826C121.024 43.664 122.645 60.1879 116.064 73.016C113.37 78.2617 109.269 82.649 104.405 85.9394C99.5404 89.2299 94.0086 91.4474 88.3814 92.9496C85.9254 93.6172 83.4695 94.1179 80.9659 94.5471C78.2 95.0002 75.3149 95.1671 72.692 96.2877C71.3568 96.86 70.1646 97.6945 68.8531 98.4099C66.5164 99.6974 63.8936 100.317 61.843 98.2668L47.2743 83.6981Z" fill="#F6A42B"/>
    <mask id="mask1_4632_15455" style="mask-type:luminance" maskUnits="userSpaceOnUse" x="45" y="24" width="75" height="76">
        <path d="M47.2724 83.6971C45.3648 81.7896 45.3887 78.6899 47.3439 76.7585C49.2991 74.8272 50.1813 70.5591 50.1813 67.8409C50.2529 54.1782 55.0932 39.2996 66.6575 30.9065C79.6048 21.5358 99.5861 22.2273 110.84 33.4816C121.022 43.663 122.643 60.1869 116.062 73.015C113.368 78.2607 109.267 82.648 104.403 85.9385C99.5384 89.2289 94.0066 91.4464 88.3794 92.9486C85.9235 93.6162 83.4676 94.117 80.9639 94.5462C78.198 94.9992 75.3129 95.1661 72.6901 96.2868C71.3548 96.859 70.1626 97.6936 68.8512 98.4089C66.5145 99.6964 63.8916 100.316 61.841 98.2658L47.2724 83.6971Z" fill="white"/>
    </mask>
    <g mask="url(#mask1_4632_15455)">
        <path d="M58.582 95.5485L63.327 90.8036C65.0438 89.0868 67.4997 89.2537 69.9318 88.8722C79.7078 87.3462 91.1768 82.935 102.073 72.1814C112.97 61.4277 115.975 31.9327 95.2303 27.2116C55.3392 18.1509 151.836 37.7268 151.836 37.7268L93.1558 100.556C93.1558 100.556 71.5532 100.556 69.8126 101.2C68.0719 101.843 58.582 95.5247 58.582 95.5247V95.5485Z" fill="#7F3912"/>
        <path d="M62.5372 33.4589C62.5372 33.4589 55.5509 47.1454 56.4808 63.7169C57.4107 80.2885 45.8464 87.7279 45.8464 87.7279L36.6426 80.3839C36.6426 80.3839 49.1607 33.1012 50.1144 32.7436C51.0682 32.3859 62.561 33.4827 62.561 33.4827L62.5372 33.4589Z" fill="#EFEEDF"/>
    </g>
    <path d="M47.2743 83.6981C45.3668 81.7906 45.3906 78.6909 47.3458 76.7595C49.301 74.8281 50.1833 70.5601 50.1833 67.8418C50.2548 54.1792 55.0951 39.3006 66.6595 30.9075C79.6068 21.5368 99.5881 22.2282 110.842 33.4826C121.024 43.664 122.645 60.1879 116.064 73.016C113.37 78.2617 109.269 82.649 104.405 85.9394C99.5404 89.2299 94.0086 91.4474 88.3814 92.9496C85.9254 93.6172 83.4695 94.1179 80.9659 94.5471C78.2 95.0002 75.3149 95.1671 72.692 96.2877C71.3568 96.86 70.1646 97.6945 68.8531 98.4099C66.5164 99.6974 63.8936 100.317 61.843 98.2668L47.2743 83.6981Z" stroke="#070706" stroke-width="3.46699" stroke-miterlimit="10"/>
    <path d="M49.7542 86.1817L47.6083 84.0357C46.5353 82.9627 44.8185 82.9627 43.7455 84.0357L41.7188 86.0624C40.6458 87.1354 40.6458 88.8522 41.7188 89.9252L54.7615 102.968C55.8344 104.041 57.5512 104.041 58.6242 102.968L60.6509 100.941C61.7239 99.8681 61.7239 98.1513 60.6509 97.0784L56.6928 93.1203L55.0953 91.5227L49.7781 86.2055L49.7542 86.1817Z" fill="#F6A42B"/>
    <mask id="mask2_4632_15455" style="mask-type:luminance" maskUnits="userSpaceOnUse" x="40" y="83" width="22" height="21">
        <path d="M49.7542 86.1821L47.6083 84.0362C46.5353 82.9632 44.8185 82.9632 43.7455 84.0362L41.7188 86.0629C40.6458 87.1359 40.6458 88.8527 41.7188 89.9256L54.7615 102.968C55.8344 104.041 57.5512 104.041 58.6242 102.968L60.6509 100.942C61.7239 99.8686 61.7239 98.1518 60.6509 97.0789L56.6928 93.1208L55.0953 91.5232L49.7781 86.206L49.7542 86.1821Z" fill="white"/>
    </mask>
    <g mask="url(#mask2_4632_15455)">
        <path d="M49.9277 101.992L58.297 93.6226L61.8497 98.2721L62.3743 104.138L57.0332 105.235L49.9277 101.992Z" fill="#7F3912"/>
        <path d="M48.7564 84.8236L41.8655 91.7145L40.3633 87.3272L46.3958 83.2261L48.7564 84.8236Z" fill="#EFEEDF"/>
    </g>
    <path d="M49.7542 86.1817L47.6083 84.0357C46.5353 82.9627 44.8185 82.9627 43.7455 84.0357L41.7188 86.0624C40.6458 87.1354 40.6458 88.8522 41.7188 89.9252L54.7615 102.968C55.8344 104.041 57.5512 104.041 58.6242 102.968L60.6509 100.941C61.7239 99.8681 61.7239 98.1513 60.6509 97.0784L56.6928 93.1203L55.0953 91.5227L49.7781 86.2055L49.7542 86.1817Z" stroke="#070706" stroke-width="3.46699" stroke-miterlimit="10" stroke-linecap="round"/>
    <path d="M96.0596 72.1832C97.8637 72.1832 99.3262 71.5214 99.3262 70.7049C99.3262 69.8884 97.8637 69.2266 96.0596 69.2266C94.2555 69.2266 92.793 69.8884 92.793 70.7049C92.793 71.5214 94.2555 72.1832 96.0596 72.1832Z" fill="#070706"/>
    <path d="M57.4794 66.961C58.9017 66.961 60.0546 66.4379 60.0546 65.7926C60.0546 65.1474 58.9017 64.6243 57.4794 64.6243C56.0572 64.6243 54.9043 65.1474 54.9043 65.7926C54.9043 66.4379 56.0572 66.961 57.4794 66.961Z" fill="#EFEEDF"/>
    <path d="M61.4384 60.117C62.8607 60.117 64.0136 59.5939 64.0136 58.9486C64.0136 58.3034 62.8607 57.7803 61.4384 57.7803C60.0162 57.7803 58.8633 58.3034 58.8633 58.9486C58.8633 59.5939 60.0162 60.117 61.4384 60.117Z" fill="#070706"/>
    <path d="M105.794 67.2254C107.848 67.2254 109.514 66.4461 109.514 65.4848C109.514 64.5234 107.848 63.7441 105.794 63.7441C103.74 63.7441 102.074 64.5234 102.074 65.4848C102.074 66.4461 103.74 67.2254 105.794 67.2254Z" fill="#070706"/>
</svg>