<svg width="144" height="144" viewBox="0 0 144 144" fill="none" xmlns="http://www.w3.org/2000/svg">
    <g clip-path="url(#clip0_4632_15919)">
        <path d="M68.8965 66.6943L72.1226 69.4578L109.308 29.7663L104.796 24.1904L68.8965 66.6943Z" fill="#EFEEDF" stroke="#070706" stroke-width="3.46699" stroke-miterlimit="10"/>
        <path d="M99.6063 92.6653L98.2722 93.2033C97.9326 93.35 97.6416 93.5457 97.3747 93.7902L84.9312 106.336C84.3006 106.972 83.4031 107.241 82.5541 107.07L82.069 106.972C81.3413 106.825 80.6136 106.996 80.0072 107.436C78.8672 108.268 77.7271 109.099 76.5871 109.931C75.3985 110.787 73.7976 111.349 72.9971 112.646C72.6333 113.208 72.3665 113.819 71.9541 114.333C70.8383 115.751 68.8978 116.363 67.3697 117.243C65.987 118.05 64.0951 118.711 62.8822 117.243L59.4378 113.11C59.268 112.915 59.1225 112.694 59.0255 112.45L56.5756 106.678L54.7321 102.35C54.1742 101.029 53.7861 99.1949 52.5733 98.339C51.9426 97.8743 51.1907 97.5564 50.5843 97.0673C49.8323 96.4314 49.323 95.551 48.8621 94.6706C45.636 88.8257 42.4342 82.9808 39.6447 76.9158C39.2566 76.0843 38.8927 75.2528 38.3348 74.5192C37.7527 73.761 37.0007 73.1497 36.2488 72.5138C34.5266 71.0709 32.8286 69.4813 31.8341 67.4515C31.5188 66.7912 31.2762 66.1064 31.3005 65.3728C31.349 63.6853 33.1925 62.8294 34.4053 61.9734L40.5422 57.6937C43.5257 55.615 46.5092 53.5362 49.4927 51.4575C49.8081 51.2374 50.1477 51.0907 50.5115 51.0173C52.0397 50.7238 53.5921 50.4059 55.1202 50.1124C56.2845 49.8923 57.4488 49.6478 58.6131 49.4277C59.8987 49.1831 61.2813 49.1342 62.3729 48.2783C63.0763 47.7402 63.6099 46.9821 64.4104 46.6153C64.9683 46.3463 65.6232 46.2974 66.2539 46.2974C67.7093 46.2974 69.1889 46.4196 70.5472 46.9577C72.2937 47.618 73.555 49.0609 74.598 50.5771C75.447 51.8488 77.2905 53.9275 77.0479 55.5416C76.9509 56.1041 76.7569 56.6421 76.7326 57.2046C76.6841 58.2806 77.3148 59.2833 78.0182 60.0903C82.7967 65.544 87.1386 71.4622 91.6745 77.1359C92.766 78.5299 93.8818 79.8994 94.9734 81.2934C95.2887 81.6847 95.701 81.9781 96.1619 82.1493L99.3152 83.2743C100.334 83.6411 101.037 84.5949 101.086 85.6954L101.28 90.0241C101.329 91.1735 100.649 92.2251 99.6063 92.6408V92.6653Z" fill="#EDC49F"/>
        <mask id="mask0_4632_15919" style="mask-type:luminance" maskUnits="userSpaceOnUse" x="31" y="46" width="71" height="73">
            <path d="M99.6024 92.666L98.2683 93.204C97.9287 93.3507 97.6376 93.5464 97.3708 93.7909L84.9273 106.337C84.2967 106.973 83.3992 107.242 82.5502 107.07L82.0651 106.973C81.3374 106.826 80.6097 106.997 80.0033 107.437C78.8633 108.269 77.7232 109.1 76.5832 109.932C75.3946 110.788 73.7937 111.35 72.9932 112.646C72.6294 113.209 72.3626 113.82 71.9502 114.334C70.8344 115.752 68.8939 116.364 67.3658 117.244C65.9831 118.051 64.0911 118.711 62.8783 117.244L59.4339 113.111C59.2641 112.915 59.1186 112.695 59.0216 112.451L56.5717 106.679L54.7282 102.35C54.1703 101.03 53.7822 99.1956 52.5694 98.3397C51.9387 97.875 51.1868 97.5571 50.5804 97.068C49.8284 96.4322 49.319 95.5518 48.8582 94.6713C45.6321 88.8265 42.4302 82.9816 39.6408 76.9166C39.2527 76.0851 38.8888 75.2536 38.3309 74.5199C37.7488 73.7618 36.9968 73.1504 36.2449 72.5145C34.5227 71.0717 32.8247 69.482 31.8302 67.4522C31.5149 66.7919 31.2723 66.1072 31.2966 65.3735C31.3451 63.6861 33.1886 62.8301 34.4014 61.9742L40.5383 57.6944C43.5218 55.6157 46.5053 53.537 49.4888 51.4582C49.8042 51.2381 50.1438 51.0914 50.5076 51.018C52.0358 50.7246 53.5882 50.4066 55.1163 50.1132C56.2806 49.8931 57.4449 49.6485 58.6092 49.4284C59.8948 49.1839 61.2774 49.135 62.3689 48.279C63.0724 47.741 63.606 46.9829 64.4065 46.616C64.9644 46.347 65.6193 46.2981 66.25 46.2981C67.7053 46.2981 69.185 46.4204 70.5433 46.9584C72.2898 47.6187 73.5511 49.0616 74.5941 50.5778C75.4431 51.8495 77.2866 53.9283 77.044 55.5423C76.947 56.1048 76.753 56.6428 76.7287 57.2053C76.6802 58.2814 77.3108 59.284 78.0143 60.0911C82.7928 65.5447 87.1347 71.4629 91.6706 77.1367C92.7621 78.5306 93.8779 79.9001 94.9695 81.2941C95.2848 81.6854 95.6971 81.9789 96.158 82.1501L99.3113 83.275C100.33 83.6419 101.034 84.5956 101.082 85.6961L101.276 90.0248C101.325 91.1742 100.645 92.2258 99.6024 92.6415V92.666Z" fill="white"/>
        </mask>
        <g mask="url(#mask0_4632_15919)">
            <path d="M107.562 89.881L106.64 91.5196C106.446 91.8864 106.276 92.3266 106.01 92.6445C105.524 93.1825 104.748 93.4516 104.142 93.8184C103.584 94.1608 103.05 94.5031 102.517 94.87C102.274 95.0412 102.056 95.2124 101.813 95.3836C101.668 95.5058 100.989 95.9705 100.795 95.9705C100.649 95.9705 100.6 95.7504 100.479 95.7015C100.334 95.6281 100.188 95.5547 100.018 95.4814C99.7757 95.3591 99.5332 95.2368 99.2906 95.1145L97.6412 94.3075L95.2641 93.1336L90.2188 84.6231L90.6311 81.6395L93.5176 80.5879L97.7867 79.5852L102.153 81.6395L107.562 89.881Z" fill="#EA9E59" stroke="#070706" stroke-width="3.46699" stroke-miterlimit="10"/>
            <path d="M95.4997 80.7821L95.2087 82.3472C94.9903 83.5455 94.5295 84.6705 93.8746 85.6976L93.2439 86.6514L82.8379 78.4832L80.291 75.7931L82.4013 73.7388L86.7675 70.5841L88.1016 69.8259L90.3331 73.103L95.524 80.7576L95.4997 80.7821Z" fill="#F7DECD" stroke="#070706" stroke-width="3.46699" stroke-miterlimit="10"/>
            <path d="M88.8511 69.4106L87.9293 71.0491C87.7353 71.4159 87.5655 71.8561 87.2987 72.1741C86.8136 72.7121 86.0374 72.9811 85.4309 73.3479C84.873 73.6903 84.3394 74.0327 83.8058 74.3995C83.5632 74.5707 83.3449 74.7419 83.1023 74.9131C82.9568 75.0354 82.2776 75.5 82.0836 75.5C81.938 75.5 81.8895 75.2799 81.7682 75.231C81.6227 75.1576 81.4772 75.0843 81.3074 75.0109C81.0648 74.8886 80.8222 74.7664 80.5797 74.6441L78.9302 73.837L76.5531 72.6632L71.5078 64.1526L71.9202 61.169L74.8067 60.1174L79.0758 59.1147L83.4419 61.169L88.8511 69.4106Z" fill="#EA9E59" stroke="#070706" stroke-width="3.46699" stroke-miterlimit="10"/>
            <path d="M79.877 59.2378C79.877 59.2378 72.7214 61.0719 71.7511 63.9088L69.5195 60.8274L69.8591 56.4987L74.4678 55.227L78.3973 54.5178L79.877 59.2378Z" fill="#E2AA6D" stroke="#070706" stroke-width="3.46699" stroke-miterlimit="10"/>
            <path d="M69.7622 57.8658L71.4844 57.4256L79.6103 54.5398L75.6323 46.1515L63.3828 44.9043L65.202 54.1241L69.7622 57.8658Z" fill="#D37935" stroke="#070706" stroke-width="3.46699" stroke-miterlimit="10"/>
            <path d="M102.68 89.0025L101.491 89.6383C99.2838 90.8367 96.5428 90.103 95.1844 87.9998C95.1844 87.9998 95.0389 87.8041 94.9661 87.6819L94.0201 86.4346C93.5593 85.8232 92.9529 85.3341 92.2737 84.9918L90.6485 84.2092C89.46 83.6222 88.5382 82.5951 88.1259 81.299L88.0773 81.1278C87.762 80.174 87.1799 79.3425 86.4037 78.7311L82.0375 75.4051C81.1885 74.7448 80.5579 73.8155 80.2911 72.7884L80.0242 71.8102C79.7574 70.8319 79.2238 69.976 78.4476 69.3157L74.4695 65.9897C73.4265 65.1338 72.7959 63.8621 72.7473 62.517L72.6503 60.585C72.6018 59.8758 72.432 59.191 72.0924 58.5797L67.6778 50.1425C67.3867 49.58 66.9743 49.0664 66.4892 48.6507L63.2874 45.985C61.929 44.8356 60.037 44.5666 58.3876 45.2513L28.0915 57.7726C25.5203 58.8242 24.3802 61.8567 25.5688 64.3756L34.5194 83.1087L49.1702 110.23C49.3885 110.646 49.6796 111.013 49.9949 111.355L61.2741 122.678C62.6325 124.047 64.67 124.463 66.465 123.754L86.4037 115.708C87.3982 115.317 88.2229 114.608 88.7565 113.678L99.4778 95.5077C99.4778 95.5077 99.6234 95.2631 99.6719 95.1408L102.631 88.978L102.68 89.0025Z" fill="#D4914A" stroke="#070706" stroke-width="3.46699" stroke-miterlimit="10"/>
            <path d="M70.733 65.7204L69.8355 66.2585C68.938 66.7965 68.2831 67.6524 67.9678 68.6551L65.8817 75.5761C65.7119 76.1141 65.4451 76.6277 65.0813 77.0434L61.4186 81.4699C60.6424 82.3992 59.5023 82.9617 58.2895 82.9861L52.759 83.1084C52.5892 83.1084 52.4437 83.1084 52.2739 83.1573L43.8327 84.3556C42.0863 84.6002 40.3883 83.7198 39.5636 82.1791C38.7389 80.6384 38.9572 78.6819 40.1215 77.3613L43.2021 73.8642C43.3718 73.6685 43.5902 73.4729 43.8085 73.3017L54.8451 64.8645C54.9906 64.7667 55.1362 64.6688 55.2817 64.571L64.208 59.362C64.5476 59.1663 64.9357 59.0196 65.3238 58.9218L71.4607 57.4055C71.4607 57.4055 71.9215 58.3104 71.9701 58.3837C72.2126 58.8239 72.4067 59.2886 72.5037 59.7777C72.5765 60.0712 72.6007 60.3647 72.6492 60.6826C72.722 61.3673 72.819 62.0521 72.722 62.7368C72.6492 63.2504 72.4309 63.7884 72.1641 64.2531C71.8003 64.84 71.3151 65.3536 70.733 65.696V65.7204Z" fill="#BC8F58" stroke="#070706" stroke-width="3.46699" stroke-miterlimit="10"/>
            <path d="M38.5933 82.2497L44.9727 77.0895C45.5791 76.6004 46.2825 76.2091 47.0345 75.9646L52.0555 74.375C53.4382 73.9348 54.651 73.0299 55.4514 71.8071L59.6235 65.4731C60.7151 63.8346 62.4858 62.783 64.4263 62.6118C66.0515 62.4895 67.5553 61.7314 68.6469 60.5331L71.4364 57.4272L67.8707 50.4818C67.4826 49.7237 66.9489 49.0389 66.294 48.452L60.3512 43.2429L31.8743 50.8975L22.7539 64.2992L31.2436 77.3341L38.569 82.2497H38.5933Z" fill="#9A5B25" stroke="#070706" stroke-width="3.46699" stroke-miterlimit="10"/>
            <path d="M92.5901 86.259C92.4688 86.259 92.1292 86.8704 91.9837 86.9682C91.3045 87.5063 90.6739 87.8731 90.1887 88.6557C89.7036 89.4383 89.7036 90.392 89.2427 91.1746C88.7819 91.9572 88.127 92.593 87.4235 93.1555C84.9736 95.112 82.1356 96.6282 79.4917 98.2423C79.3704 98.3157 79.2734 98.389 79.1521 98.4379C78.3759 98.9026 77.8423 99.6118 77.4299 100.394C77.0418 101.128 76.775 101.813 76.1201 102.4C75.5864 102.889 74.9558 103.256 74.3494 103.647C73.4761 104.185 72.6029 104.723 71.6812 105.09C69.9105 105.775 68.0427 105.408 66.1992 105.31C65.0834 105.237 63.9677 105.603 63.0944 106.288C62.1242 107.046 60.8871 107.389 59.65 107.242L57.2001 106.924C55.9388 106.753 54.7988 106.093 54.0468 105.041L51.2573 101.177C50.1173 99.5874 50.0688 97.4597 51.1603 95.8212L52.1548 94.3294C52.6399 93.6202 53.2949 93.0577 54.0711 92.6909C56.1086 91.7615 58.0734 90.661 60.2807 90.1719C61.7118 89.854 63.1915 89.6339 64.6711 89.4872C65.9809 89.3404 67.3635 89.2671 68.5278 88.6068C69.4496 88.0687 70.2015 87.3106 71.0262 86.6259C71.7297 86.0389 72.4331 85.4764 73.1365 84.8895C74.034 84.1558 74.9315 83.4222 75.829 82.664C76.1928 82.3706 76.5082 82.0037 76.775 81.6125C77.915 79.8516 79.0551 78.1153 80.1951 76.3545C80.3164 76.1588 80.462 75.9632 80.656 75.8165C80.8743 75.6453 81.505 75.6942 81.7718 75.6208C82.2812 75.4741 81.9659 75.3518 82.4025 75.6697C83.2757 76.33 84.1489 76.9659 85.0221 77.6017C85.7256 78.1153 86.6473 78.6044 87.181 79.2892C87.4235 79.5826 87.6903 80.0473 87.8359 80.3897C88.1755 81.1723 88.418 81.9304 88.9274 82.6396C89.4125 83.2999 90.116 83.7646 90.8194 84.1558C91.8139 84.6939 91.7897 85.452 92.5659 86.259H92.5901Z" fill="#E0C8B6" stroke="#070706" stroke-width="3.46699" stroke-miterlimit="10"/>
        </g>
        <path d="M99.6063 92.6653L98.2722 93.2033C97.9326 93.35 97.6416 93.5457 97.3747 93.7902L84.9312 106.336C84.3006 106.972 83.4031 107.241 82.5541 107.07L82.069 106.972C81.3413 106.825 80.6136 106.996 80.0072 107.436C78.8672 108.268 77.7271 109.099 76.5871 109.931C75.3985 110.787 73.7976 111.349 72.9971 112.646C72.6333 113.208 72.3665 113.819 71.9541 114.333C70.8383 115.751 68.8978 116.363 67.3697 117.243C65.987 118.05 64.0951 118.711 62.8822 117.243L59.4378 113.11C59.268 112.915 59.1225 112.694 59.0255 112.45L56.5756 106.678L54.7321 102.35C54.1742 101.029 53.7861 99.1949 52.5733 98.339C51.9426 97.8743 51.1907 97.5564 50.5843 97.0673C49.8323 96.4314 49.323 95.551 48.8621 94.6706C45.636 88.8257 42.4342 82.9808 39.6447 76.9158C39.2566 76.0843 38.8927 75.2528 38.3348 74.5192C37.7527 73.761 37.0007 73.1497 36.2488 72.5138C34.5266 71.0709 32.8286 69.4813 31.8341 67.4515C31.5188 66.7912 31.2762 66.1064 31.3005 65.3728C31.349 63.6853 33.1925 62.8294 34.4053 61.9734L40.5422 57.6937C43.5257 55.615 46.5092 53.5362 49.4927 51.4575C49.8081 51.2374 50.1477 51.0907 50.5115 51.0173C52.0397 50.7238 53.5921 50.4059 55.1202 50.1124C56.2845 49.8923 57.4488 49.6478 58.6131 49.4277C59.8987 49.1831 61.2813 49.1342 62.3729 48.2783C63.0763 47.7402 63.6099 46.9821 64.4104 46.6153C64.9683 46.3463 65.6232 46.2974 66.2539 46.2974C67.7092 46.2974 69.1889 46.4196 70.5472 46.9577C72.2937 47.618 73.555 49.0609 74.598 50.5771C75.447 51.8488 77.2905 53.9275 77.0479 55.5416C76.9509 56.1041 76.7569 56.6421 76.7326 57.2046C76.6841 58.2806 77.3148 59.2833 78.0182 60.0903C82.7967 65.544 87.1386 71.4622 91.6745 77.1359C92.766 78.5299 93.8818 79.8994 94.9734 81.2934C95.2887 81.6847 95.7011 81.9781 96.1619 82.1493L99.3152 83.2743C100.334 83.6411 101.037 84.5949 101.086 85.6954L101.28 90.0241C101.329 91.1735 100.649 92.2251 99.6063 92.6408V92.6653Z" stroke="#070706" stroke-width="3.46699" stroke-miterlimit="10"/>
        <path d="M102.317 81.9524L100.91 82.3192C100.571 82.417 100.231 82.5638 99.9401 82.7839L85.9927 93.5933C85.2893 94.1313 84.3676 94.3025 83.5186 94.009L83.0577 93.8623C82.3543 93.6422 81.6023 93.6911 80.9474 94.0579C79.7104 94.7182 78.4733 95.403 77.2362 96.0633C75.9506 96.7725 74.3012 97.1149 73.3309 98.2643C72.9186 98.7779 72.5547 99.3403 72.0939 99.805C70.8083 101.077 68.795 101.419 67.1698 102.104C65.6902 102.715 63.7497 103.131 62.7309 101.517L59.8444 96.9682C59.6989 96.7481 59.6019 96.5035 59.5291 96.2589L57.8312 90.2184L56.5698 85.6941C56.1817 84.3001 56.0362 82.4415 54.9689 81.4388C54.3867 80.9008 53.6833 80.485 53.1497 79.9226C52.4705 79.1889 52.1067 78.2596 51.7428 77.3303C49.3172 71.1185 46.8673 64.8823 44.9025 58.5239C44.6357 57.6435 44.3689 56.7631 43.908 55.9805C43.4229 55.149 42.768 54.4398 42.113 53.7306C40.5849 52.0676 39.1053 50.2823 38.3776 48.1302C38.1593 47.4455 37.9895 46.7118 38.1108 46.0026C38.3776 44.3396 40.3181 43.7282 41.6279 43.0435L48.2742 39.5952C51.5002 37.9322 54.7263 36.2448 57.9767 34.5818C58.3163 34.4106 58.6559 34.3128 59.044 34.2883C60.5964 34.1905 62.173 34.0927 63.7254 33.9949C64.914 33.9215 66.1026 33.8481 67.2911 33.7748C68.601 33.7014 69.9593 33.8237 71.1479 33.1389C71.9241 32.6987 72.5547 32.014 73.3795 31.745C73.9859 31.5493 74.6165 31.5982 75.2472 31.6716C76.7026 31.8428 78.1337 32.1852 79.4193 32.8699C81.0687 33.7748 82.136 35.3399 82.9607 37.0029C83.6399 38.3724 85.2165 40.6713 84.7557 42.2364C84.5859 42.7744 84.3191 43.288 84.222 43.8505C84.028 44.9265 84.5374 45.9781 85.1195 46.883C89.1461 52.9235 92.7117 59.3554 96.4715 65.5671C97.3932 67.0834 98.2907 68.5996 99.2124 70.1159C99.4793 70.5316 99.8431 70.8984 100.28 71.1185L103.263 72.6348C104.233 73.1239 104.816 74.1755 104.719 75.276L104.355 79.5802C104.258 80.7296 103.457 81.6834 102.366 81.9524H102.317Z" fill="#EDC49F"/>
        <mask id="mask1_4632_15919" style="mask-type:luminance" maskUnits="userSpaceOnUse" x="38" y="31" width="67" height="72">
            <path d="M102.317 81.9517L100.91 82.3185C100.571 82.4163 100.231 82.563 99.9401 82.7831L85.9927 93.5925C85.2893 94.1306 84.3676 94.3018 83.5186 94.0083L83.0577 93.8616C82.3543 93.6415 81.6023 93.6904 80.9474 94.0572C79.7104 94.7175 78.4733 95.4023 77.2362 96.0626C75.9506 96.7718 74.3012 97.1142 73.3309 98.2636C72.9186 98.7771 72.5547 99.3396 72.0939 99.8043C70.8083 101.076 68.795 101.418 67.1698 102.103C65.6902 102.714 63.7497 103.13 62.7309 101.516L59.8444 96.9674C59.6989 96.7473 59.6019 96.5028 59.5291 96.2582L57.8312 90.2177L56.5698 85.6934C56.1817 84.2994 56.0362 82.4408 54.9689 81.4381C54.3867 80.9001 53.6833 80.4843 53.1497 79.9218C52.4705 79.1882 52.1067 78.2589 51.7428 77.3295C49.3172 71.1178 46.8673 64.8816 44.9025 58.5231C44.6357 57.6427 44.3689 56.7623 43.908 55.9798C43.4229 55.1483 42.768 54.4391 42.113 53.7298C40.5849 52.0669 39.1053 50.2816 38.3776 48.1295C38.1593 47.4447 37.9895 46.7111 38.1108 46.0019C38.3776 44.3389 40.3181 43.7275 41.6279 43.0427L48.2742 39.5945C51.5002 37.9315 54.7263 36.2441 57.9767 34.5811C58.3163 34.4099 58.6559 34.3121 59.044 34.2876C60.5964 34.1898 62.173 34.092 63.7254 33.9941C64.914 33.9208 66.1026 33.8474 67.2911 33.774C68.601 33.7007 69.9593 33.8229 71.1479 33.1382C71.9241 32.698 72.5547 32.0132 73.3795 31.7442C73.9859 31.5486 74.6165 31.5975 75.2472 31.6709C76.7026 31.842 78.1337 32.1844 79.4193 32.8692C81.0687 33.774 82.136 35.3392 82.9607 37.0022C83.6399 38.3717 85.2165 40.6705 84.7557 42.2357C84.5859 42.7737 84.3191 43.2873 84.222 43.8498C84.028 44.9258 84.5374 45.9774 85.1195 46.8823C89.1461 52.9228 92.7117 59.3546 96.4715 65.5664C97.3932 67.0826 98.2907 68.5989 99.2124 70.1151C99.4793 70.5309 99.8431 70.8977 100.28 71.1178L103.263 72.6341C104.233 73.1232 104.816 74.1748 104.719 75.2753L104.355 79.5795C104.258 80.7289 103.457 81.6826 102.366 81.9517H102.317Z" fill="white"/>
        </mask>
        <g mask="url(#mask1_4632_15919)">
            <path d="M110.59 80.2383L109.474 81.7546C109.232 82.097 109.013 82.5127 108.698 82.7817C108.164 83.2464 107.34 83.4176 106.709 83.6866C106.103 83.9311 105.52 84.2246 104.963 84.5181C104.696 84.6648 104.453 84.7871 104.186 84.9338C104.017 85.0316 103.289 85.4229 103.119 85.3985C102.974 85.3985 102.949 85.1539 102.828 85.0806C102.682 84.9827 102.537 84.8849 102.416 84.7871C102.197 84.6404 101.979 84.4936 101.736 84.3469L100.208 83.3197L98.001 81.8524L94.0957 72.7305L94.8962 69.8202L97.9039 69.1599L102.27 68.7197L106.321 71.3365L110.614 80.2139L110.59 80.2383Z" fill="#EA9E59" stroke="#070706" stroke-width="2.66692" stroke-miterlimit="10"/>
            <path d="M99.8025 69.627L99.3174 71.1433C98.9535 72.2927 98.3471 73.3687 97.5466 74.2736L96.7947 75.154L87.5288 65.6897L85.3457 62.6816L87.6986 60.9208L92.4286 58.3774L93.8354 57.8149L95.6304 61.361L99.7782 69.627H99.8025Z" fill="#FFF0E6" stroke="#070706" stroke-width="2.66692" stroke-miterlimit="10"/>
            <path d="M94.6818 57.4971L93.566 59.0134C93.3234 59.3558 93.1051 59.7715 92.7898 60.0405C92.2562 60.5052 91.4315 60.6764 90.8008 60.9454C90.1944 61.1899 89.6122 61.4834 89.0543 61.7769C88.7875 61.9236 88.545 62.0459 88.2781 62.1926C88.1083 62.2904 87.3806 62.6817 87.2109 62.6573C87.0653 62.6573 87.0411 62.4127 86.9198 62.3393C86.7742 62.2415 86.6287 62.1437 86.5074 62.0459C86.2891 61.8991 86.0708 61.7524 85.8282 61.6057L84.3001 60.5785L82.0928 59.1112L78.1875 49.9892L78.988 47.079L81.9957 46.4187L86.3619 45.9785L90.4127 48.5953L94.7061 57.4727L94.6818 57.4971Z" fill="#EA9E59" stroke="#070706" stroke-width="2.66692" stroke-miterlimit="10"/>
            <path d="M87.1155 46.1995C87.1155 46.1995 79.79 47.0799 78.4559 49.77L76.6367 46.4196L77.5342 42.1643L82.2642 41.504L86.2665 41.3083L87.1397 46.175L87.1155 46.1995Z" fill="#E2AA6D" stroke="#070706" stroke-width="2.66692" stroke-miterlimit="10"/>
            <path d="M77.2412 43.5316L79.0119 43.3115L87.4531 41.5262L84.5909 32.6733L72.584 29.8364L73.2146 39.2274L77.2412 43.5316Z" fill="#D37935" stroke="#070706" stroke-width="2.66692" stroke-miterlimit="10"/>
            <path d="M105.871 78.7002L104.61 79.1648C102.257 80.0452 99.6375 78.9936 98.5702 76.7193C98.5702 76.7193 98.4489 76.4992 98.4004 76.3769L97.6242 75.0074C97.2361 74.3471 96.7025 73.7846 96.0718 73.3688L94.5679 72.3906C93.4521 71.6569 92.7002 70.5075 92.4576 69.1869V69.0157C92.2393 68.0375 91.7784 67.1326 91.075 66.4234L87.1697 62.5594C86.3935 61.8013 85.9084 60.7986 85.7629 59.7226L85.6416 58.7199C85.5203 57.7172 85.0837 56.7879 84.4045 56.0542L80.8873 52.2392C79.9656 51.2365 79.5047 49.9159 79.626 48.5708L79.7716 46.6388C79.8201 45.9296 79.723 45.2448 79.4805 44.5845L76.2059 35.6338C75.9876 35.0224 75.648 34.4844 75.2114 33.9953L72.3734 30.9383C71.1606 29.6177 69.3413 29.1041 67.6191 29.5688L35.9646 38.006C33.2722 38.7152 31.744 41.5765 32.6173 44.2177L39.0937 63.9534L50.1061 92.7866C50.2759 93.2268 50.4942 93.6426 50.7852 94.0094L60.512 106.726C61.6763 108.267 63.6654 108.952 65.5088 108.463L86.3208 103.107C87.3395 102.838 88.2613 102.251 88.9162 101.395L101.893 84.7896C101.893 84.7896 102.063 84.5695 102.136 84.4472L105.871 78.7246V78.7002Z" fill="#D4914A" stroke="#070706" stroke-width="2.66692" stroke-miterlimit="10"/>
            <path d="M77.2199 51.4307L76.2739 51.8465C75.3037 52.2622 74.5517 53.0203 74.1151 53.9741L71.1559 60.5527C70.9133 61.0662 70.598 61.5309 70.1856 61.9222L65.9893 65.8351C65.0918 66.6666 63.9032 67.0579 62.6904 66.9356L57.1842 66.3487C57.0144 66.3487 56.8689 66.3242 56.6991 66.3487L48.1851 66.422C46.4387 66.422 44.862 65.346 44.2313 63.7074C43.6007 62.0689 44.0858 60.1614 45.3956 59.012L48.9128 55.955C49.1311 55.7838 49.3494 55.6126 49.592 55.4904L61.6231 48.5694C61.7687 48.4716 61.9385 48.3982 62.084 48.3493L71.6167 44.3386C71.9806 44.1918 72.3687 44.094 72.781 44.0451L79.0634 43.3604C79.0634 43.3604 79.4273 44.3141 79.4515 44.3875C79.6213 44.8521 79.7669 45.3413 79.8154 45.8548C79.8396 46.1483 79.8154 46.4662 79.8154 46.7597C79.8154 47.4444 79.8154 48.1537 79.6213 48.814C79.4758 49.3275 79.209 49.8166 78.8694 50.2324C78.4328 50.7704 77.8749 51.2106 77.2442 51.4796L77.2199 51.4307Z" fill="#BC8F58" stroke="#070706" stroke-width="2.66692" stroke-miterlimit="10"/>
            <path d="M43.2093 63.6102L50.2194 59.3305C50.8986 58.9147 51.6505 58.6457 52.4267 58.499L57.6176 57.5696C59.0487 57.3251 60.3585 56.567 61.3288 55.4665L66.3013 49.7194C67.5869 48.2276 69.4789 47.4206 71.4437 47.5184C73.0688 47.5917 74.6455 47.0537 75.8826 46.0021L79.0601 43.2875L76.4162 35.9509C76.1251 35.1438 75.6885 34.3857 75.1064 33.7498L69.8913 27.8071L40.6624 31.6711L29.8926 43.7522L36.6358 57.7897L43.2821 63.6102H43.2093Z" fill="#9A5B25" stroke="#070706" stroke-width="2.66692" stroke-miterlimit="10"/>
            <path d="M96.2088 74.6892C96.0875 74.6892 95.6751 75.2272 95.5296 75.3006C94.7777 75.7408 94.0985 76.0343 93.5406 76.719C92.9827 77.4038 92.8372 78.382 92.2793 79.0912C91.7214 79.8004 90.9937 80.3385 90.2175 80.8031C87.5493 82.4172 84.5415 83.5422 81.7035 84.8139C81.5822 84.8628 81.4609 84.9117 81.3397 84.985C80.5149 85.3519 79.8843 85.9633 79.3749 86.6969C78.8898 87.3817 78.5502 88.0175 77.8225 88.5311C77.2403 88.9469 76.5612 89.2403 75.9062 89.5338C74.9845 89.9495 74.0385 90.3653 73.0682 90.6098C71.2248 91.0745 69.4055 90.4631 67.6106 90.1207C66.519 89.9006 65.379 90.1207 64.4087 90.6832C63.3415 91.3191 62.0801 91.4902 60.8673 91.1723L58.4902 90.5365C57.2531 90.2185 56.2344 89.3871 55.6037 88.2621L53.3236 84.0802C52.4019 82.3683 52.6202 80.2406 53.9057 78.7489L55.0701 77.4038C55.6279 76.7679 56.3556 76.2788 57.1804 76.0343C59.3149 75.374 61.4252 74.5425 63.6568 74.3468C65.1364 74.2246 66.6161 74.2001 68.0957 74.2246C69.4055 74.249 70.8124 74.3713 72.0495 73.8577C73.0197 73.442 73.893 72.7817 74.7904 72.2192C75.5667 71.7301 76.3429 71.2654 77.0948 70.7763C78.0893 70.1649 79.0596 69.5535 80.0541 68.9421C80.4664 68.6976 80.806 68.3797 81.1213 68.0128C82.4797 66.4232 83.8381 64.8336 85.1964 63.244C85.3419 63.0728 85.5117 62.8771 85.7058 62.7793C85.9484 62.657 86.5548 62.7793 86.8216 62.7304C87.331 62.657 87.0641 62.4859 87.428 62.8527C88.2042 63.6108 88.9804 64.3689 89.7566 65.1271C90.3873 65.7385 91.2362 66.3498 91.6971 67.0835C91.8912 67.4014 92.1095 67.8906 92.2065 68.2574C92.4491 69.0889 92.5703 69.8715 93.0069 70.6296C93.4193 71.3388 94.05 71.9013 94.7049 72.3904C95.6024 73.0507 95.5053 73.8088 96.1845 74.6892H96.2088Z" fill="#E0C8B6" stroke="#070706" stroke-width="2.66692" stroke-miterlimit="10"/>
        </g>
        <path d="M102.317 81.9524L100.91 82.3192C100.571 82.417 100.231 82.5638 99.9401 82.7839L85.9927 93.5933C85.2893 94.1313 84.3676 94.3025 83.5186 94.009L83.0577 93.8623C82.3543 93.6422 81.6023 93.6911 80.9474 94.0579C79.7104 94.7182 78.4733 95.403 77.2362 96.0633C75.9506 96.7725 74.3012 97.1149 73.3309 98.2643C72.9186 98.7779 72.5547 99.3404 72.0939 99.805C70.8083 101.077 68.795 101.419 67.1698 102.104C65.6902 102.715 63.7497 103.131 62.7309 101.517L59.8444 96.9682C59.6989 96.7481 59.6019 96.5035 59.5291 96.2589L57.8311 90.2184L56.5698 85.6941C56.1817 84.3001 56.0362 82.4415 54.9689 81.4388C54.3867 80.9008 53.6833 80.485 53.1497 79.9226C52.4705 79.1889 52.1067 78.2596 51.7428 77.3303C49.3172 71.1185 46.8673 64.8823 44.9025 58.5239C44.6357 57.6435 44.3689 56.7631 43.908 55.9805C43.4229 55.149 42.768 54.4398 42.113 53.7306C40.5849 52.0676 39.1053 50.2823 38.3776 48.1302C38.1593 47.4455 37.9895 46.7118 38.1108 46.0026C38.3776 44.3396 40.3181 43.7282 41.6279 43.0435L48.2742 39.5952C51.5002 37.9322 54.7263 36.2448 57.9767 34.5818C58.3163 34.4106 58.6559 34.3128 59.044 34.2883C60.5964 34.1905 62.173 34.0927 63.7254 33.9949C64.914 33.9215 66.1026 33.8481 67.2911 33.7748C68.601 33.7014 69.9593 33.8237 71.1479 33.1389C71.9241 32.6987 72.5547 32.014 73.3795 31.745C73.9859 31.5493 74.6165 31.5982 75.2472 31.6716C76.7026 31.8428 78.1337 32.1852 79.4193 32.8699C81.0687 33.7748 82.136 35.3399 82.9607 37.0029C83.6399 38.3724 85.2165 40.6713 84.7557 42.2364C84.5859 42.7744 84.3191 43.288 84.222 43.8505C84.028 44.9265 84.5374 45.9781 85.1195 46.883C89.1461 52.9235 92.7117 59.3554 96.4715 65.5671C97.3932 67.0834 98.2907 68.5996 99.2124 70.1159C99.4793 70.5316 99.8431 70.8984 100.28 71.1185L103.263 72.6348C104.233 73.1239 104.816 74.1755 104.719 75.276L104.355 79.5802C104.258 80.7296 103.457 81.6834 102.366 81.9524H102.317Z" stroke="#070706" stroke-width="3.46699" stroke-miterlimit="10"/>
        <path d="M71.8027 72.1972L74.4467 75.5721L120.024 42.9972L115.537 37.4702L71.8027 72.1972Z" fill="#EFEEDF" stroke="#070706" stroke-width="3.46699" stroke-miterlimit="10"/>
    </g>
    <defs>
        <clipPath id="clip0_4632_15919">
            <rect width="101.343" height="104.01" fill="white" transform="translate(21.3301 21.3286)"/>
        </clipPath>
    </defs>
</svg>