<svg xmlns="http://www.w3.org/2000/svg" width="144" height="144" viewBox="0 0 144 144" fill="none">
    <path d="M41.9668 99.4707V114.405C41.9668 117.526 54.9547 122.006 70.9562 122.006C86.9577 122.006 99.9456 117.552 99.9456 114.405V99.4707H41.9668Z" fill="#CFB199"/>
    <path d="M88.1719 108.938V118.272H96.1726L100.173 114.272V104.938L88.1719 108.938Z" fill="#A27C5E"/>
    <path d="M49.1255 107.605L41.4902 106.271V110.045L42.8237 115.606L52.2992 120.94V105.951L49.1255 107.605Z" fill="#E2C9AF"/>
    <path d="M41.9668 99.4707V114.405C41.9668 117.526 54.9547 122.006 70.9562 122.006C86.9577 122.006 99.9456 117.552 99.9456 114.405V99.4707H41.9668Z" stroke="#070706" stroke-width="3.46699" stroke-linecap="square" stroke-linejoin="round"/>
    <path d="M123.313 68.8548C120.353 70.2149 116.059 71.5484 110.805 72.5885C100.217 74.6687 85.8694 75.6021 70.9613 75.6021C56.0532 75.6021 41.1985 74.562 30.5841 72.4818C25.3036 71.4684 21.5433 70.2416 18.583 68.8548C15.6227 67.2013 16.1294 66.2412 15.9961 65.8945C18.423 92.7504 42.1052 111.926 70.9613 111.926C99.8174 111.926 123.473 92.7504 125.926 65.8945C125.926 66.6413 124.486 68.2948 123.313 68.8548Z" fill="#CFB199"/>
    <path d="M26.6114 61.2803C26.6114 61.2803 28.6383 94.2701 44.5865 106.005L25.4859 91.6035L16.1621 68.9346L26.6114 61.2803Z" fill="#E2C9AF"/>
    <path d="M106.969 65.8942C106.969 65.8942 111.449 92.35 89.127 110.752C89.1234 112.94 124.176 95.6051 125.499 67.6024C125.553 62.882 106.942 65.8942 106.942 65.8942H106.969Z" fill="#A27C5E"/>
    <path d="M123.313 68.8548C120.353 70.2149 116.059 71.5484 110.805 72.5885C100.217 74.6687 85.8694 75.6021 70.9613 75.6021C56.0532 75.6021 41.1985 74.562 30.5841 72.4818C25.3036 71.4684 21.5433 70.2416 18.583 68.8548C15.6227 67.2013 16.1294 66.2412 15.9961 65.8945C18.423 92.7504 42.1052 111.926 70.9613 111.926C99.8174 111.926 123.473 92.7504 125.926 65.8945C125.926 66.6413 124.486 68.2948 123.313 68.8548Z" stroke="#070706" stroke-width="3.46699" stroke-linecap="square" stroke-linejoin="round"/>
    <path d="M70.9346 85.8144C101.284 85.8144 125.9 76.4535 125.9 64.9057C125.9 53.358 101.284 43.9971 70.9346 43.9971C40.5851 43.9971 15.9961 53.358 15.9961 64.9057C15.9961 76.4535 40.6118 85.8144 70.9613 85.8144H70.9346Z" fill="#EECCAE"/>
    <mask id="mask0_4632_16040" style="mask-type:luminance" maskUnits="userSpaceOnUse" x="15" y="43" width="111" height="43">
        <path d="M70.9366 85.8148C101.286 85.8148 125.902 76.454 125.902 64.9062C125.902 53.3584 101.286 43.9976 70.9366 43.9976C40.587 43.9976 15.998 53.3584 15.998 64.9062C15.998 76.454 40.6137 85.8148 70.9632 85.8148H70.9366Z" fill="white"/>
    </mask>
    <g mask="url(#mask0_4632_16040)">
        <path d="M37.8641 93.683C38.0241 93.7896 38.2108 93.8963 38.4241 93.9763C39.5976 94.4297 40.9044 93.9763 42.1578 93.9763C43.7313 93.9763 45.5982 94.4564 47.2516 95.2298C48.7985 95.9498 50.5853 95.7632 51.9188 94.6964C53.4922 93.4429 55.3591 92.1895 56.6925 91.4428C57.626 90.9094 58.6661 90.4293 59.2261 89.4959C59.8128 88.5091 59.7062 87.2557 59.3328 86.1622C58.9594 85.0688 58.3194 84.1087 57.866 83.0686C57.0126 81.0951 56.7726 78.8816 57.1993 76.7747C57.5726 74.9612 58.3994 73.0143 57.6526 71.3075C57.0392 69.894 55.4924 69.1206 53.9723 68.8273C52.4521 68.5339 50.9053 68.6673 49.3852 68.4806C48.4518 68.3472 47.4917 68.0805 46.8783 67.3871C46.1582 66.5604 46.1049 65.3603 45.6515 64.3469C43.1713 58.7463 35.0905 63.8135 32.8236 66.9871C30.8501 69.7607 30.05 73.3077 27.7565 75.8413C27.0097 76.668 26.103 77.3881 25.7296 78.4549C25.3562 79.4683 25.5963 80.6417 26.183 81.5751C26.7697 82.5086 27.5965 83.202 28.5032 83.7887C31.6768 85.8422 35.7572 86.6956 38.1041 89.6826C38.8509 90.616 36.904 93.0696 37.8908 93.7096L37.8641 93.683Z" fill="#92DA38" stroke="#070706" stroke-width="2.66692" stroke-linecap="round" stroke-linejoin="round"/>
        <path d="M107.819 92.8312C107.979 92.9378 108.166 93.0445 108.379 93.1245C109.553 93.5779 110.859 93.1245 112.113 93.1245C113.686 93.1245 115.553 93.6046 117.207 94.378C118.754 95.098 120.54 94.9114 121.874 93.8446C123.447 92.5911 125.314 91.3377 126.648 90.5909C127.581 90.0576 128.621 89.5775 129.181 88.6441C129.768 87.6573 129.661 86.4039 129.288 85.3104C128.915 84.217 128.274 83.2569 127.821 82.2168C126.968 80.2433 126.728 78.0298 127.154 75.9229C127.528 74.1094 128.354 72.1625 127.608 70.4557C126.994 69.0422 125.448 68.2688 123.927 67.9755C122.407 67.6821 120.86 67.8155 119.34 67.6288C118.407 67.4954 117.447 67.2287 116.833 66.5353C116.113 65.7086 116.06 64.5085 115.607 63.495C113.126 57.8945 105.046 62.9617 102.779 66.1353C100.805 68.9089 100.005 72.4559 97.7116 74.9895C96.9648 75.8162 96.0581 76.5363 95.6847 77.603C95.3113 78.6165 95.5513 79.7899 96.1381 80.7233C96.7248 81.6568 97.5515 82.3502 98.4583 82.9369C101.632 84.9904 105.712 85.8438 108.059 88.8308C108.806 89.7642 106.859 92.2178 107.846 92.8578L107.819 92.8312Z" fill="#92DA38" stroke="#070706" stroke-width="2.66692" stroke-linecap="round" stroke-linejoin="round"/>
        <path d="M74.3751 79.0139C74.5618 78.9339 74.7485 78.8272 74.9085 78.6939C75.8953 77.9205 76.1886 76.587 76.8553 75.4936C77.6554 74.1334 79.0689 72.8 80.5624 71.7866C81.9758 70.8265 82.7492 69.2263 82.5359 67.5195C82.2692 65.5193 82.1892 63.2791 82.2425 61.7589C82.2959 60.6922 82.4025 59.5454 81.8958 58.5853C81.3624 57.5719 80.2423 57.0118 79.1222 56.7451C78.0021 56.4784 76.8553 56.5318 75.7086 56.3718C73.575 56.0784 71.5482 55.1183 69.9747 53.6782C68.6146 52.4247 67.3878 50.6912 65.5476 50.4512C64.0275 50.2379 62.534 51.1446 61.5206 52.2914C60.5071 53.4382 59.7871 54.825 58.827 56.0251C58.2403 56.7451 57.5202 57.4385 56.5868 57.5986C55.4933 57.7852 54.4532 57.1985 53.3598 57.0652C47.2792 56.2651 47.4126 65.8127 48.9327 69.413C50.2662 72.56 52.8797 75.0669 53.8665 78.3472C54.1865 79.4139 54.3466 80.5607 55.0399 81.4408C55.7333 82.2676 56.8535 82.6943 57.9202 82.6943C58.987 82.6943 60.0538 82.3209 61.0405 81.8675C64.4542 80.214 67.3078 77.1737 71.0681 76.747C72.2682 76.6137 73.3617 79.5206 74.4018 79.0406L74.3751 79.0139Z" fill="#92DA38" stroke="#070706" stroke-width="2.66692" stroke-linecap="round" stroke-linejoin="round"/>
        <path d="M62.7735 75.5748C62.7735 75.5748 58.8532 67.174 67.1473 57.9998L61.0134 58.7465C60.5066 55.0128 58.4531 49.439 56.9596 47.0654C56.9596 47.0654 56.7463 51.7592 55.1728 55.6529C55.1728 55.6529 49.3856 50.9858 39.9447 50.7458C39.9447 50.7458 42.8516 53.9194 43.3317 57.6264C43.3317 57.6264 36.6644 58.4532 34.8242 61.2801C34.8242 61.2801 56.9063 61.2801 62.7735 75.6015V75.5748Z" fill="#009133" stroke="#070706" stroke-width="2.66692" stroke-linecap="round" stroke-linejoin="round"/>
        <path d="M62.6902 75.0157C62.6902 75.0157 49.5156 72.5355 44.7685 79.2561C44.7685 79.2561 44.0751 72.9622 49.6756 71.1754C49.6756 71.1754 46.9287 69.2285 44.3151 69.6552C41.7016 70.0819 56.663 59.5476 62.7169 74.9891L62.6902 75.0157Z" fill="#009133" stroke="#070706" stroke-width="2.66692" stroke-linecap="round" stroke-linejoin="round"/>
        <path d="M80.5625 66.9076C80.5625 66.9076 75.7087 54.3998 81.4692 48.5059C81.4692 48.5059 75.1753 48.9859 74.4286 54.7998C74.4286 54.7998 72.0017 52.4529 71.9483 49.8126C71.895 47.1724 64.2676 63.7873 80.5625 66.9076Z" fill="#009133" stroke="#070706" stroke-width="2.66692" stroke-linecap="round" stroke-linejoin="round"/>
        <path d="M86.9325 81.8944C87.0925 82.0011 87.2792 82.1077 87.4925 82.1877C88.666 82.6411 89.9727 82.1877 91.2262 82.1877C92.7997 82.1877 94.6665 82.6678 96.32 83.4412C97.8668 84.1613 99.6537 83.9746 100.987 82.9078C102.561 81.6544 104.427 80.4009 105.761 79.6542C106.694 79.1208 107.734 78.6408 108.294 77.7073C108.881 76.7206 108.775 75.4671 108.401 74.3737C108.028 73.2802 107.388 72.3201 106.934 71.28C106.081 69.3065 105.841 67.093 106.268 64.9861C106.641 63.1726 107.468 61.2258 106.721 59.5189C106.108 58.1055 104.561 57.3321 103.041 57.0387C101.521 56.7453 99.9737 56.8787 98.4535 56.692C97.5201 56.5587 96.56 56.292 95.9466 55.5986C95.2266 54.7718 95.1732 53.5717 94.7199 52.5583C92.2396 46.9577 84.1589 52.0249 81.892 55.1985C79.9185 57.9721 79.1184 61.5191 76.8248 64.0527C76.0781 64.8794 75.1713 65.5995 74.798 66.6663C74.4246 67.6797 74.6646 68.8532 75.2513 69.7866C75.8381 70.72 76.6648 71.4134 77.5716 72.0001C80.7452 74.0536 84.8256 74.9071 87.1725 77.894C87.9192 78.8274 85.9724 81.281 86.9591 81.9211L86.9325 81.8944Z" fill="#92DA38" stroke="#070706" stroke-width="2.66692" stroke-linecap="round" stroke-linejoin="round"/>
        <path d="M96.7214 78.9893C96.7214 78.9893 100.642 70.5886 92.3477 61.4143L98.4816 62.1611C98.9883 58.4274 101.042 52.8535 102.535 50.48C102.535 50.48 102.749 55.1738 104.322 59.0675C104.322 59.0675 110.109 54.4004 119.55 54.1603C119.55 54.1603 116.643 57.334 116.163 61.041C116.163 61.041 122.831 61.8677 124.671 64.6947C124.671 64.6947 102.589 64.6947 96.7214 79.016V78.9893Z" fill="#009133" stroke="#070706" stroke-width="2.66692" stroke-linecap="round" stroke-linejoin="round"/>
        <path d="M91.6575 78.4012C91.6575 78.4012 104.832 75.921 109.579 82.6416C109.579 82.6416 110.273 76.3477 104.672 74.5609C104.672 74.5609 107.419 72.614 110.033 73.0407C112.646 73.4674 97.6848 62.9331 91.6309 78.3746L91.6575 78.4012Z" fill="#009133" stroke="#070706" stroke-width="2.66692" stroke-linecap="round" stroke-linejoin="round"/>
        <path d="M97.7106 82.217C94.9903 87.9242 88.8831 90.6978 84.0559 88.4042C79.2288 86.1107 77.4953 79.6301 80.2156 73.8962C82.9358 68.1623 84.7493 74.4563 89.5765 76.7498C94.4036 79.0434 100.431 76.4831 97.7106 82.1903V82.217Z" fill="#DD2E23" stroke="#070706" stroke-width="2.66692" stroke-miterlimit="10"/>
        <path d="M98.3065 80.9474C100.054 77.2606 97.554 72.4155 92.7226 70.1255C87.8912 67.8355 82.558 68.9678 80.8105 72.6546C79.0631 76.3414 81.5631 81.1865 86.3945 83.4765C91.2259 85.7664 96.5591 84.6341 98.3065 80.9474Z" fill="#DD2E23"/>
        <mask id="mask1_4632_16040" style="mask-type:luminance" maskUnits="userSpaceOnUse" x="80" y="68" width="19" height="17">
            <path d="M98.3046 80.9478C100.052 77.2611 97.552 72.416 92.7206 70.126C87.8892 67.836 82.556 68.9683 80.8086 72.6551C79.0611 76.3419 81.5612 81.187 86.3925 83.4769C91.2239 85.7669 96.5571 84.6346 98.3046 80.9478Z" fill="white"/>
        </mask>
        <g mask="url(#mask1_4632_16040)">
            <path d="M99.5968 68.8027C99.5702 69.0428 100.024 79.9505 83.2486 75.1233C66.4737 70.2962 76.0746 86.2444 74.7411 82.5374C71.9942 74.9633 97.8367 75.8967 102.744 81.8706C107.651 87.8445 99.5968 68.8027 99.5968 68.8027Z" fill="#FC4F38"/>
            <path d="M99.5968 68.8027C99.5702 69.0428 100.024 79.9505 83.2486 75.1233C66.4737 70.2962 76.0746 86.2444 74.7411 82.5374C71.9942 74.9633 97.8367 75.8967 102.744 81.8706C107.651 87.8445 99.5968 68.8027 99.5968 68.8027Z" fill="#FC4F38"/>
        </g>
        <path d="M98.3065 80.9474C100.054 77.2606 97.554 72.4155 92.7226 70.1255C87.8912 67.8355 82.558 68.9678 80.8105 72.6546C79.0631 76.3414 81.5631 81.1865 86.3945 83.4765C91.2259 85.7664 96.5591 84.6341 98.3065 80.9474Z" stroke="#070706" stroke-width="2.66692" stroke-miterlimit="10"/>
        <path d="M74.7127 71.9461C79.9665 75.4665 81.8067 81.9204 78.8464 86.3742C75.8861 90.8279 69.1921 91.5746 63.9383 88.0543C58.6845 84.534 65.1651 83.6539 68.152 79.2001C71.139 74.7464 69.4588 68.4258 74.7393 71.9461H74.7127Z" fill="#DD2E23" stroke="#070706" stroke-width="2.66692" stroke-miterlimit="10"/>
        <path d="M74.2548 83.3351C77.2291 78.8921 76.8918 73.4505 73.5015 71.1808C70.1111 68.9112 64.9516 70.673 61.9772 75.116C59.0029 79.5589 59.3402 85.0006 62.7306 87.2702C66.1209 89.5399 71.2805 87.778 74.2548 83.3351Z" fill="#DD2E23"/>
        <mask id="mask2_4632_16040" style="mask-type:luminance" maskUnits="userSpaceOnUse" x="59" y="70" width="18" height="19">
            <path d="M74.2548 83.3341C77.2291 78.8911 76.8918 73.4495 73.5015 71.1798C70.1111 68.9102 64.9516 70.672 61.9772 75.115C59.0029 79.5579 59.3402 84.9996 62.7306 87.2692C66.1209 89.5389 71.2805 87.7771 74.2548 83.3341Z" fill="white"/>
        </mask>
        <g mask="url(#mask2_4632_16040)">
            <path d="M61.7285 68.1049C61.9685 68.1849 72.8229 69.3317 65.5689 85.1998C58.3149 101.068 75.5165 93.9207 71.6495 94.6941C63.7554 96.2942 68.4758 70.8785 75.1165 66.8781C81.7571 62.9044 61.7285 68.0782 61.7285 68.0782V68.1049Z" fill="#FC4F38"/>
        </g>
        <path d="M74.2548 83.3351C77.2291 78.8921 76.8918 73.4505 73.5015 71.1808C70.1111 68.9112 64.9516 70.673 61.9772 75.116C59.0029 79.5589 59.3402 85.0006 62.7306 87.2702C66.1209 89.5399 71.2805 87.778 74.2548 83.3351Z" stroke="#070706" stroke-width="2.66692" stroke-miterlimit="10"/>
    </g>
    <path d="M70.9346 85.8141C101.284 85.8141 125.9 76.4532 125.9 64.9055C125.9 53.3577 101.284 43.9968 70.9346 43.9968C40.5851 43.9968 15.9961 53.3577 15.9961 64.9055C15.9961 76.4532 40.6118 85.8141 70.9613 85.8141H70.9346Z" stroke="#070706" stroke-width="3.46699" stroke-miterlimit="10"/>
    <path d="M115.283 23.9951L94.0547 68.586L97.2283 70.1328L122.031 28.7156L115.283 23.9951Z" fill="#EFEEDF" stroke="#070706" stroke-width="3.46699" stroke-linecap="round" stroke-linejoin="round"/>
    <path d="M42.7679 35.2747C37.1407 37.6749 31.9402 46.2091 35.9939 55.0099C40.0743 63.8107 48.0484 63.8107 53.6489 61.3838C59.2761 58.9836 57.1426 48.4226 55.7558 45.0889C54.369 41.7553 48.3684 32.8745 42.7679 35.248V35.2747Z" fill="#EFEEDF" stroke="#070706" stroke-width="2.66692" stroke-linecap="square" stroke-linejoin="round"/>
    <path d="M53.651 61.4139C57.8114 59.6271 58.7715 52.3464 55.7579 45.1457C52.7443 37.945 46.9304 33.5446 42.77 35.3315C38.6096 37.1183 37.6495 44.399 40.6631 51.5997C43.6767 58.8004 49.4906 63.2008 53.651 61.4139Z" fill="#EFEEDF" stroke="#070706" stroke-width="2.66692" stroke-linecap="square" stroke-linejoin="round"/>
    <path d="M51.4073 56.0513C53.0075 55.3846 53.2741 52.3976 52.0207 49.4374C50.7672 46.4504 48.4737 44.5836 46.9002 45.277C45.3001 45.9437 45.0334 48.9306 46.2868 51.8909C47.5403 54.8779 49.8338 56.7447 51.4073 56.0513Z" fill="#FAD22A" stroke="#FAD22A" stroke-width="2.66692" stroke-linecap="square" stroke-linejoin="round"/>
    <path d="M23.9624 51.0895C19.8821 55.6766 18.7619 65.6243 26.1493 71.8382C33.5367 78.0788 40.764 74.6651 44.8444 70.1047C48.9248 65.5176 42.5509 56.9034 39.8839 54.4499C37.217 52.023 28.0428 46.5291 23.9624 51.0629V51.0895Z" fill="#EFEEDF" stroke="#070706" stroke-width="2.66692" stroke-linecap="square" stroke-linejoin="round"/>
    <path d="M44.8515 70.0805C47.8918 66.6935 45.6516 59.6795 39.891 54.4524C34.1305 49.1985 27.0098 47.705 23.9695 51.092C20.9292 54.479 23.1694 61.493 28.93 66.7202C34.6905 71.974 41.8112 73.4675 44.8515 70.0805Z" fill="#EFEEDF" stroke="#070706" stroke-width="2.66692" stroke-linecap="square" stroke-linejoin="round"/>
    <path d="M40.5803 66.214C41.7271 64.9339 40.7404 62.1069 38.3668 59.9467C35.9932 57.7865 33.113 57.0664 31.9662 58.3466C30.8194 59.6267 31.8062 62.427 34.1797 64.6138C36.5533 66.774 39.4336 67.4941 40.5803 66.214Z" fill="#FAD22A" stroke="#FAD22A" stroke-width="2.66692" stroke-linecap="square" stroke-linejoin="round"/>
</svg>