<svg xmlns="http://www.w3.org/2000/svg" width="144" height="144" viewBox="0 0 144 144" fill="none">
    <path d="M84.2169 99.7161C106.927 88.2148 119.384 67.1373 112.041 52.6382C104.698 38.1392 80.335 35.709 57.6253 47.2104C34.9157 58.7117 22.4586 79.7892 29.8017 94.2883C37.1447 108.787 61.5073 111.217 84.2169 99.7161Z" fill="#EFEEDF" stroke="#070706" stroke-width="3.46699" stroke-miterlimit="10" stroke-linecap="round"/>
    <path d="M76.0146 92.0839C91.1069 84.4403 99.3813 70.4242 94.4959 60.7779C89.6106 51.1316 73.4155 49.5081 58.3231 57.1516C43.2308 64.7952 34.9565 78.8113 39.8418 88.4576C44.7272 98.1038 60.9223 99.7274 76.0146 92.0839Z" fill="#EFEEDF" stroke="#070706" stroke-width="3.46699" stroke-miterlimit="10" stroke-linecap="round"/>
    <path d="M112.218 52.3673C112.386 52.295 112.555 52.1987 112.699 52.0783C113.59 51.3799 113.855 50.1758 114.457 49.1885C115.18 47.9603 116.456 46.7563 117.805 45.8412C119.081 44.9742 119.779 43.5293 119.587 41.9881C119.346 40.182 119.274 38.1591 119.322 36.7865C119.37 35.8232 119.466 34.7877 119.009 33.9207C118.527 33.0056 117.516 32.4999 116.504 32.2591C115.493 32.0183 114.457 32.0665 113.422 31.922C111.495 31.6571 109.665 30.7901 108.244 29.4897C107.016 28.3579 105.908 26.7926 104.247 26.5759C102.874 26.3832 101.525 27.202 100.61 28.2375C99.6953 29.273 99.045 30.5252 98.1781 31.6089C97.6483 32.2591 96.9981 32.8852 96.1552 33.0297C95.1679 33.1983 94.2287 32.6685 93.2413 32.5481C87.7507 31.8256 87.8712 40.4469 89.2438 43.6979C90.4479 46.5395 92.8078 48.8032 93.6989 51.7652C93.9878 52.7285 94.1323 53.764 94.7585 54.5587C95.3846 55.3052 96.3961 55.6905 97.3593 55.6905C98.3226 55.6905 99.2858 55.3534 100.177 54.944C103.259 53.4509 105.836 50.7056 109.232 50.3203C110.315 50.1999 111.303 52.8248 112.242 52.3913L112.218 52.3673Z" fill="#009133"/>
    <mask id="mask0_4632_15798" style="mask-type:luminance" maskUnits="userSpaceOnUse" x="88" y="26" width="32" height="30">
        <path d="M112.218 52.368C112.386 52.2958 112.555 52.1994 112.699 52.079C113.59 51.3806 113.855 50.1766 114.457 49.1892C115.18 47.9611 116.456 46.757 117.805 45.8419C119.081 44.9749 119.779 43.53 119.587 41.9888C119.346 40.1827 119.274 38.1598 119.322 36.7872C119.37 35.8239 119.466 34.7884 119.009 33.9215C118.527 33.0064 117.516 32.5007 116.504 32.2598C115.493 32.019 114.457 32.0672 113.422 31.9227C111.495 31.6578 109.665 30.7909 108.244 29.4905C107.016 28.3586 105.908 26.7933 104.247 26.5766C102.874 26.3839 101.525 27.2027 100.61 28.2382C99.6953 29.2737 99.045 30.526 98.1781 31.6096C97.6483 32.2598 96.9981 32.886 96.1552 33.0304C95.1679 33.199 94.2287 32.6692 93.2413 32.5488C87.7507 31.8264 87.8712 40.4476 89.2438 43.6986C90.4479 46.5402 92.8078 48.8039 93.6989 51.766C93.9878 52.7292 94.1323 53.7647 94.7585 54.5594C95.3846 55.306 96.3961 55.6913 97.3593 55.6913C98.3226 55.6913 99.2858 55.3541 100.177 54.9447C103.259 53.4517 105.836 50.7064 109.232 50.321C110.315 50.2006 111.303 52.8255 112.242 52.3921L112.218 52.368Z" fill="white"/>
    </mask>
    <g mask="url(#mask0_4632_15798)">
        <path d="M109.442 35.8988C108.937 35.7062 108.359 35.7062 107.829 35.8266C106.962 35.9951 106.071 36.4286 105.252 36.1156C104.867 35.9711 104.554 35.6821 104.217 35.4413C103.88 35.2004 103.446 35.0078 103.061 35.1282C102.579 35.2727 102.314 35.8025 102.218 36.3082C102.17 36.5731 102.122 36.838 101.977 37.0547C101.544 37.6327 100.436 37.416 100.123 38.0662C99.9301 38.4515 100.147 38.8849 100.123 39.3184C100.075 40.0168 99.3762 40.4743 98.7742 40.8115C97.6424 41.4376 96.5105 42.0637 95.5473 42.9306C95.3305 43.1233 95.0656 43.2678 95.3064 43.5568C95.475 43.7494 95.6917 43.8698 95.8844 43.9902C96.3178 44.2311 96.8236 44.4478 97.0885 44.8813C97.1848 45.0498 97.257 45.2184 97.3774 45.387C97.6182 45.7482 97.9795 45.9649 98.3648 46.1817C100.364 47.2172 102.675 47.6266 104.915 47.3617C106.023 47.2413 107.179 46.9282 108.022 46.1817C108.744 45.5315 109.202 44.5923 109.924 43.9421C110.406 43.5086 111.056 43.1233 111.152 42.4731C111.297 41.4617 109.996 40.7633 109.948 39.776C109.9 39.0053 110.574 38.3551 110.646 37.6086C110.695 36.9825 110.261 36.3564 109.707 36.0674C109.635 36.0192 109.539 35.9952 109.466 35.947L109.442 35.8988Z" fill="#92DA38"/>
    </g>
    <path d="M112.218 52.3673C112.386 52.295 112.555 52.1987 112.699 52.0783C113.59 51.3799 113.855 50.1758 114.457 49.1885C115.18 47.9603 116.456 46.7563 117.805 45.8412C119.081 44.9742 119.779 43.5293 119.587 41.9881C119.346 40.182 119.274 38.1591 119.322 36.7865C119.37 35.8232 119.466 34.7877 119.009 33.9207C118.527 33.0056 117.516 32.4999 116.504 32.2591C115.493 32.0183 114.457 32.0665 113.422 31.922C111.495 31.6571 109.665 30.7901 108.244 29.4897C107.016 28.3579 105.908 26.7926 104.247 26.5759C102.874 26.3832 101.525 27.202 100.61 28.2375C99.6953 29.273 99.045 30.5252 98.1781 31.6089C97.6483 32.2591 96.9981 32.8852 96.1552 33.0297C95.1679 33.1983 94.2287 32.6685 93.2413 32.5481C87.7507 31.8256 87.8712 40.4469 89.2438 43.6979C90.4479 46.5395 92.8078 48.8032 93.6989 51.7652C93.9878 52.7285 94.1323 53.764 94.7585 54.5587C95.3846 55.3052 96.3961 55.6905 97.3593 55.6905C98.3226 55.6905 99.2858 55.3534 100.177 54.944C103.259 53.4509 105.836 50.7056 109.232 50.3203C110.315 50.1999 111.303 52.8248 112.242 52.3913L112.218 52.3673Z" stroke="#070706" stroke-width="3.46699" stroke-linecap="round" stroke-linejoin="round"/>
    <path d="M102.13 75.3889L50.041 72.3064C55.1704 54.9195 80.6247 37.0269 80.6247 37.0269L86.8378 37.3881C101.214 38.2309 108.054 55.2566 102.105 75.3889H102.13Z" fill="#7F3912" stroke="#070706" stroke-width="3.46699" stroke-linecap="round" stroke-linejoin="round"/>
    <path d="M95.8893 75.0265L43.8008 71.9441C49.7489 51.8118 66.2208 36.1829 80.6216 37.0257C94.9983 37.8686 101.837 54.8943 95.8893 75.0265Z" fill="#EFEEDF" stroke="#070706" stroke-width="3.46699" stroke-linecap="round" stroke-linejoin="round"/>
    <path d="M89.9131 74.6653L50.1543 72.3053C54.6816 56.9412 67.2764 44.9967 78.2576 45.6469C89.2388 46.2971 94.4645 59.2771 89.9131 74.6653Z" fill="#68675E" stroke="#070706" stroke-width="3.46699" stroke-linecap="round" stroke-linejoin="round"/>
    <path d="M89.6608 79.5046L37.5723 76.4222C42.7017 59.0352 68.1559 41.1426 68.1559 41.1426L74.3689 41.5038C88.7457 42.3467 95.5848 59.3724 89.6367 79.5046H89.6608Z" fill="#7F3912" stroke="#070706" stroke-width="3.46699" stroke-linecap="round" stroke-linejoin="round"/>
    <path d="M83.4518 79.1452L31.3633 76.0627C37.3114 55.9305 53.7833 40.3015 68.1841 41.1444C82.5608 41.9872 89.4 59.0129 83.4518 79.1452Z" fill="#EFEEDF" stroke="#070706" stroke-width="3.46699" stroke-linecap="round" stroke-linejoin="round"/>
    <path d="M77.4755 78.7839L37.7168 76.4239C42.2441 61.0598 54.8388 49.1154 65.82 49.7656C76.8013 50.4158 82.027 63.3958 77.4755 78.7839Z" fill="#68675E" stroke="#070706" stroke-width="3.46699" stroke-linecap="round" stroke-linejoin="round"/>
    <path d="M77.1999 83.645L25.1113 80.5625C30.2407 63.1756 55.6949 45.283 55.6949 45.283L61.908 45.6442C76.2848 46.487 83.1239 63.5127 77.1758 83.645H77.1999Z" fill="#7F3912" stroke="#070706" stroke-width="3.46699" stroke-linecap="round" stroke-linejoin="round"/>
    <path d="M70.9596 83.2855L18.8711 80.2031C24.8193 60.0709 41.2911 44.4419 55.6919 45.2847C70.0927 46.1276 76.9078 63.1533 70.9596 83.2855Z" fill="#EFEEDF" stroke="#070706" stroke-width="3.46699" stroke-linecap="round" stroke-linejoin="round"/>
    <path d="M64.9834 82.9243L25.2246 80.5643C29.752 65.2002 42.3467 53.2557 53.3279 53.906C64.3091 54.5562 69.5348 67.5361 64.9834 82.9243Z" fill="#FCD297" stroke="#070706" stroke-width="3.46699" stroke-linecap="round" stroke-linejoin="round"/>
    <path d="M119.131 86.1296L67.043 83.0472C72.1724 65.6602 97.6266 47.7676 97.6266 47.7676L103.84 48.1288C118.216 48.9717 125.056 65.9974 119.107 86.1296H119.131Z" fill="#7F3912" stroke="#070706" stroke-width="3.46699" stroke-linecap="round" stroke-linejoin="round"/>
    <path d="M112.923 85.7672L60.834 82.6848C66.7821 62.5526 83.254 46.9236 97.6548 47.7664C112.056 48.6093 118.871 65.635 112.923 85.7672Z" fill="#EFEEDF" stroke="#070706" stroke-width="3.46699" stroke-linecap="round" stroke-linejoin="round"/>
    <path d="M106.946 85.406L67.1875 83.046C71.7148 67.6819 84.3095 55.7374 95.2907 56.3876C106.272 57.0378 111.498 70.0178 106.946 85.406Z" fill="#68675E" stroke="#070706" stroke-width="3.46699" stroke-linecap="round" stroke-linejoin="round"/>
    <path d="M48.71 65.6791C49.9141 62.3077 52.4186 59.2012 57.0182 59.2012C61.6178 59.2012 64.8447 64.451 65.1096 68.0391C65.7116 76.251 64.4594 79.5261 63.6888 82.5604L52.5631 81.9101C47.9876 81.9101 47.1206 70.1342 48.71 65.7032V65.6791Z" fill="#F2AE6C" stroke="#070706" stroke-width="3.46699" stroke-linecap="round" stroke-linejoin="round"/>
    <path d="M104.797 90.1492L54.5625 87.1631C59.6919 69.7762 85.1462 51.8835 85.1462 51.8835L91.3592 52.2448C105.302 53.0635 112.166 69.1019 107.133 88.4394C106.868 89.499 105.856 90.1974 104.773 90.1252L104.797 90.1492Z" fill="#7F3912" stroke="#070706" stroke-width="3.46699" stroke-linecap="round" stroke-linejoin="round"/>
    <path d="M100.442 89.9106L51.2913 86.9967C49.7982 86.9004 48.7627 85.4314 49.2443 84.0106C55.8186 65.251 71.4476 51.091 85.15 51.9098C99.5267 52.7526 106.366 69.7783 100.418 89.9106H100.442Z" fill="#EFEEDF" stroke="#070706" stroke-width="3.46699" stroke-linecap="round" stroke-linejoin="round"/>
    <path d="M94.4678 89.5508L54.709 87.1908C59.2363 71.8267 71.831 59.8822 82.8123 60.5324C93.7935 61.1826 99.0192 74.1626 94.4678 89.5508Z" fill="#FCD297" stroke="#070706" stroke-width="3.46699" stroke-linecap="round" stroke-linejoin="round"/>
    <path d="M79.4951 72.664C80.6992 69.2926 83.2037 66.186 87.8033 66.186C92.4029 66.186 95.6298 71.4358 95.8947 75.024C96.4968 83.2358 95.2445 86.5109 94.4739 89.5452L83.3482 88.895C78.7727 88.895 77.9058 77.1191 79.4951 72.6881V72.664Z" fill="#F2AE6C" stroke="#070706" stroke-width="3.46699" stroke-linecap="round" stroke-linejoin="round"/>
</svg>