<svg xmlns="http://www.w3.org/2000/svg" width="144" height="144" viewBox="0 0 144 144" fill="none">
    <path d="M111.829 65.6894C111.97 66.6075 112.394 69.1262 111.005 71.5037C109.122 74.7286 104.673 76.3293 101.683 76.3057C95.6336 76.2351 95.1393 69.4557 86.9711 59.2631C83.2754 54.6494 72.1883 40.3138 61.3366 41.7027C54.6043 42.5736 56.1108 42.3147 53.4979 40.9259C51.7089 39.9843 48.3193 37.9128 49.3315 33.7463C50.2966 29.8152 52.8623 26.0254 54.9338 24.613C72.2353 12.961 109.851 53.9903 111.805 65.6894H111.829Z" fill="#EC651E"/>
    <mask id="mask0_4632_15753" style="mask-type:luminance" maskUnits="userSpaceOnUse" x="49" y="22" width="63" height="55">
        <path d="M111.819 65.6884C111.96 66.6065 112.384 69.1252 110.995 71.5027C109.112 74.7276 104.663 76.3283 101.673 76.3047C95.6238 76.2341 95.1295 69.4548 86.9613 59.2622C83.2656 54.6484 72.1785 40.3129 61.3268 41.7017C54.5945 42.5727 56.101 42.3137 53.4881 40.9249C51.6991 39.9833 48.3095 37.9119 49.3217 33.7454C50.2868 29.8143 52.8526 26.0244 54.9241 24.612C72.2256 12.96 109.842 53.9893 111.795 65.6884H111.819Z" fill="white"/>
    </mask>
    <g mask="url(#mask0_4632_15753)">
        <path d="M109.352 80.9688C109.352 80.9688 82.2818 25.3449 55.894 34.2429C30.848 42.67 62.6498 50.438 62.6498 50.438L96.8527 79.4151L109.376 80.9688H109.352Z" fill="#B62500"/>
    </g>
    <path d="M111.805 65.6894C111.946 66.6075 112.394 69.1262 111.005 71.5037C109.122 74.7286 104.673 76.3293 101.683 76.3057C95.6336 76.2351 95.1393 69.4557 86.9711 59.2631C83.2754 54.6494 72.1883 40.3138 61.3366 41.7027C54.6043 42.5736 56.1108 42.3147 53.4979 40.9259C51.7089 39.9843 48.3193 37.9128 49.3315 33.7463C50.2966 29.8152 52.8624 26.0254 54.9338 24.613C72.2354 12.961 109.851 53.9903 111.805 65.6894Z" stroke="#070706" stroke-width="3.46699" stroke-miterlimit="10"/>
    <path d="M50.3709 28.5704C49.0762 30.4535 48.3465 32.6898 48.5113 34.9731C48.7231 37.8214 50.465 40.5755 53.1015 41.6819C55.3848 42.647 58.1154 42.2939 60.281 41.0934C62.1406 40.0576 63.6236 38.4099 64.7064 36.5738C66.0011 34.3846 66.5896 31.7953 66.4248 29.253C65.8128 19.5547 55.8556 22.2147 51.4537 27.2286C51.0771 27.6523 50.7005 28.0996 50.3709 28.5704Z" fill="#EC651E" stroke="#070706" stroke-width="3.46699" stroke-miterlimit="10"/>
    <path d="M72.4246 29.3212C77.0619 31.7458 81.1813 34.8766 84.6651 38.7135C84.9476 39.0195 84.9241 39.4903 84.618 39.7728C84.312 40.0317 83.8648 40.0317 83.5823 39.7728C80.122 36.336 75.8614 33.4877 71.4595 31.4633C69.9765 30.8513 70.9887 28.5915 72.4246 29.3212Z" fill="#EFEEDF"/>
    <path d="M86.9899 42.2088C87.3043 41.8981 87.2184 41.3014 86.7981 40.876C86.3777 40.4507 85.7821 40.3577 85.4677 40.6684C85.1533 40.9791 85.2392 41.5758 85.6595 42.0012C86.0799 42.4265 86.6755 42.5195 86.9899 42.2088Z" fill="#EFEEDF"/>
    <path d="M103.587 81.8393C103.728 82.7574 104.152 85.2761 102.763 87.6536C100.88 90.8785 96.4306 92.4792 93.4411 92.4556C87.3915 92.385 86.8971 85.6056 78.7289 75.413C75.0332 70.7993 63.9461 56.4638 53.0944 57.8526C46.3621 58.7235 47.8686 58.4646 45.2558 57.0758C43.4668 56.1342 40.0771 54.0627 41.0893 49.8962C42.0544 45.9651 44.6202 42.1753 46.6917 40.7629C63.9932 29.1109 101.609 70.1402 103.563 81.8393H103.587Z" fill="#EC651E"/>
    <mask id="mask1_4632_15753" style="mask-type:luminance" maskUnits="userSpaceOnUse" x="40" y="38" width="64" height="55">
        <path d="M103.587 81.8388C103.728 82.7569 104.152 85.2756 102.763 87.6531C100.88 90.878 96.4306 92.4787 93.4411 92.4551C87.3915 92.3845 86.8971 85.6051 78.7289 75.4126C75.0332 70.7988 63.9461 56.4633 53.0944 57.8521C46.3621 58.7231 47.8686 58.4641 45.2558 57.0753C43.4668 56.1337 40.0771 54.0622 41.0893 49.8958C42.0544 45.9647 44.6202 42.1748 46.6917 40.7624C63.9932 29.1104 101.609 70.1397 103.563 81.8388H103.587Z" fill="white"/>
    </mask>
    <g mask="url(#mask1_4632_15753)">
        <path d="M101.114 97.1172C101.114 97.1172 74.0434 41.4934 47.6557 50.3913C21.2679 59.2892 54.4115 66.5865 54.4115 66.5865L88.6144 95.5636L101.137 97.1172H101.114Z" fill="#B62500"/>
    </g>
    <path d="M103.563 81.8393C103.704 82.7574 104.152 85.2761 102.763 87.6536C100.88 90.8785 96.4306 92.4792 93.4411 92.4556C87.3915 92.385 86.8971 85.6056 78.7289 75.413C75.0332 70.7993 63.9461 56.4638 53.0944 57.8526C46.3621 58.7235 47.8686 58.4646 45.2558 57.0758C43.4668 56.1342 40.0771 54.0627 41.0893 49.8962C42.0544 45.9651 44.6202 42.1753 46.6917 40.7629C63.9932 29.1109 101.609 70.1402 103.563 81.8393Z" stroke="#070706" stroke-width="3.46699" stroke-miterlimit="10"/>
    <path d="M42.119 44.7183C40.8243 46.6015 40.0946 48.8377 40.2594 51.1211C40.4712 53.9693 42.2131 56.7235 44.8496 57.8298C47.1329 58.7949 49.8635 58.4418 52.0291 57.2413C53.8887 56.2056 55.3717 54.5578 56.4545 52.7218C57.7492 50.5326 58.3377 47.9432 58.1729 45.401C57.5609 35.7027 47.6037 38.3627 43.2018 43.3766C42.8252 43.8003 42.4485 44.2475 42.119 44.7183Z" fill="#EC651E" stroke="#070706" stroke-width="3.46699" stroke-miterlimit="10"/>
    <path d="M64.1746 45.4721C68.8119 47.8967 72.9313 51.0274 76.4151 54.8644C76.6976 55.1704 76.6741 55.6412 76.3681 55.9237C76.062 56.1826 75.6148 56.1826 75.3323 55.9237C71.872 52.4869 67.6114 49.6386 63.2095 47.6142C61.7265 47.0022 62.7387 44.7424 64.1746 45.4721Z" fill="#EFEEDF"/>
    <path d="M78.7497 58.3775C79.0641 58.0668 78.9782 57.4701 78.5579 57.0447C78.1375 56.6194 77.5419 56.5264 77.2275 56.8371C76.9131 57.1478 76.999 57.7445 77.4193 58.1699C77.8397 58.5952 78.4353 58.6882 78.7497 58.3775Z" fill="#EFEEDF"/>
    <path d="M95.323 97.9877C95.4642 98.9058 95.8879 101.425 94.4991 103.802C92.6159 107.027 88.167 108.628 85.1774 108.604C79.1278 108.533 78.6335 101.754 70.4653 91.5615C66.7696 86.9477 55.6825 72.6122 44.8307 74.001C38.0985 74.872 39.605 74.613 36.9921 73.2242C35.2031 72.2826 31.8134 70.2112 32.8256 66.0447C33.7907 62.1136 36.3565 58.3237 38.428 56.9113C55.7295 45.2593 93.3456 86.2886 95.2994 97.9877H95.323Z" fill="#EC651E"/>
    <mask id="mask2_4632_15753" style="mask-type:luminance" maskUnits="userSpaceOnUse" x="32" y="54" width="64" height="55">
        <path d="M95.323 97.9904C95.4642 98.9085 95.8879 101.427 94.4991 103.805C92.6159 107.03 88.167 108.63 85.1774 108.607C79.1278 108.536 78.6335 101.757 70.4653 91.5642C66.7696 86.9504 55.6825 72.6149 44.8307 74.0037C38.0985 74.8747 39.605 74.6157 36.9921 73.2269C35.2031 72.2853 31.8134 70.2138 32.8256 66.0473C33.7907 62.1163 36.3565 58.3264 38.428 56.914C55.7295 45.262 93.3456 86.2913 95.2994 97.9904H95.323Z" fill="white"/>
    </mask>
    <g mask="url(#mask2_4632_15753)">
        <path d="M92.8268 113.267C92.8268 113.267 65.7564 57.6428 39.3686 66.5407C14.3226 74.9679 46.1244 82.7359 46.1244 82.7359L80.3273 111.713L92.8503 113.267H92.8268Z" fill="#B62500"/>
    </g>
    <path d="M95.2994 97.9877C95.4407 98.9058 95.8879 101.425 94.4991 103.802C92.6159 107.027 88.167 108.628 85.1774 108.604C79.1278 108.533 78.6335 101.754 70.4653 91.5615C66.7696 86.9477 55.6825 72.6122 44.8307 74.001C38.0985 74.872 39.605 74.613 36.9921 73.2242C35.2031 72.2826 31.8134 70.2112 32.8256 66.0447C33.7907 62.1136 36.3565 58.3237 38.428 56.9113C55.7295 45.2593 93.3456 86.2886 95.2994 97.9877Z" stroke="#070706" stroke-width="3.46699" stroke-miterlimit="10"/>
    <path d="M33.8572 60.8665C32.5626 62.7497 31.8329 64.9859 31.9976 67.2693C32.2095 70.1175 33.9514 72.8717 36.5878 73.978C38.8712 74.9431 41.6018 74.59 43.7674 73.3895C45.627 72.3538 47.11 70.706 48.1928 68.8699C49.4875 66.6808 50.076 64.0914 49.9112 61.5492C49.2992 51.8509 39.342 54.5109 34.9401 59.5248C34.5634 59.9485 34.1868 60.3957 33.8572 60.8665Z" fill="#EC651E" stroke="#070706" stroke-width="3.46699" stroke-miterlimit="10"/>
    <path d="M55.9012 61.6171C60.5384 64.0417 64.6579 67.1725 68.1417 71.0094C68.4242 71.3154 68.4007 71.7862 68.0946 72.0687C67.7886 72.3276 67.3414 72.3276 67.0589 72.0687C63.5986 68.6319 59.3379 65.7836 54.936 63.7592C53.4531 63.1472 54.4653 60.8874 55.9012 61.6171Z" fill="#EFEEDF"/>
    <path d="M70.4763 74.4988C70.7907 74.1881 70.7048 73.5914 70.2845 73.1661C69.8641 72.7407 69.2685 72.6477 68.9541 72.9584C68.6397 73.2691 68.7255 73.8658 69.1459 74.2912C69.5662 74.7166 70.1619 74.8095 70.4763 74.4988Z" fill="#EFEEDF"/>
    <path d="M46.1796 121.2L65.9057 84.4077C66.6119 83.066 66.1647 81.4182 64.8465 80.6414C63.5283 79.8646 61.8334 80.2648 61.0331 81.5595L38.5293 117.128L46.2032 121.176L46.1796 121.2Z" fill="#EFEEDF" stroke="#070706" stroke-width="3.46699" stroke-linecap="round" stroke-linejoin="round"/>
</svg>