<svg xmlns="http://www.w3.org/2000/svg" width="144" height="144" viewBox="0 0 144 144" fill="none">
    <path d="M116.498 62.5074C117.207 63.6078 112.414 67.0067 113.197 69.5253C113.588 70.7724 114.077 71.0414 114.151 72.2395C114.224 73.3643 112.61 74.8071 112.341 76.3231C111.95 78.4505 112.635 78.7195 112.243 80.5534C111.974 81.8494 111.681 81.6782 110.898 83.83C109.969 86.3731 110.409 86.5932 109.725 87.6935C108.942 88.9406 108.355 88.6961 106.13 90.6523C104.394 92.1928 104.565 92.5107 103.44 93.2931C101.729 94.4913 100.506 94.3202 98.5499 94.907C95.2733 95.8607 95.7623 97.2055 92.0211 98.9906C87.8153 101.02 86.3481 99.7242 83.5606 102.023C82.2646 103.074 81.9956 103.857 80.3573 104.81C78.8168 105.715 78.0832 105.568 75.6135 106.277C71.1142 107.549 71.2854 108.625 68.7668 108.747C66.2971 108.869 66.0281 107.867 63.3139 108.185C61.1621 108.429 60.893 109.114 59.2303 109.016C57.1518 108.869 57.054 107.745 54.7066 107.231C51.919 106.62 51.1121 107.989 49.2292 107.084C47.3953 106.229 47.811 104.761 45.9526 103.93C44.0697 103.123 43.165 104.37 41.3066 103.514C39.6928 102.756 40.0351 101.631 38.2989 100.653C36.2694 99.5286 34.4599 99.8709 33.7752 98.8194C33.0417 97.7191 33.3595 96.4231 32.6504 95.0048C31.8924 93.4399 30.4008 93.1709 29.3004 91.5326C28.6158 90.53 29.4472 88.6716 29.2271 86.8866C29.0315 85.2972 27.8333 85.2483 27.6866 83.7811C27.4909 81.9961 28.2001 80.7246 28.1512 78.7439C28.1023 77.13 29.5694 78.4261 29.6917 77.8147C30.1318 75.6385 46.0259 81.3603 59.9394 79.5508C75.4912 77.5457 95.2733 67.1045 106.301 65.0505C107.084 64.9038 115.544 60.8691 116.571 62.4585L116.498 62.5074Z" fill="#EFEEDF"/>
    <mask id="mask0_4632_15710" style="mask-type:luminance" maskUnits="userSpaceOnUse" x="27" y="62" width="90" height="48">
        <path d="M116.498 62.5072C117.207 63.6076 112.414 67.0064 113.197 69.5251C113.588 70.7721 114.077 71.0411 114.151 72.2393C114.224 73.3641 112.61 74.8068 112.341 76.3229C111.95 78.4503 112.635 78.7192 112.243 80.5532C111.974 81.8491 111.681 81.678 110.898 83.8298C109.969 86.3728 110.409 86.5929 109.725 87.6933C108.942 88.9404 108.355 88.6959 106.13 90.6521C104.394 92.1926 104.565 92.5104 103.44 93.2929C101.729 94.4911 100.506 94.3199 98.5499 94.9068C95.2733 95.8604 95.7623 97.2053 92.0211 98.9903C87.8153 101.02 86.3481 99.7239 83.5606 102.022C82.2646 103.074 81.9956 103.856 80.3573 104.81C78.8168 105.715 78.0832 105.568 75.6135 106.277C71.1142 107.549 71.2854 108.625 68.7668 108.747C66.2971 108.869 66.0281 107.867 63.3139 108.184C61.1621 108.429 60.893 109.114 59.2303 109.016C57.1518 108.869 57.054 107.744 54.7066 107.231C51.919 106.62 51.1121 107.989 49.2292 107.084C47.3953 106.228 47.811 104.761 45.9526 103.93C44.0697 103.123 43.165 104.37 41.3066 103.514C39.6928 102.756 40.0351 101.631 38.2989 100.653C36.2694 99.5283 34.4599 99.8706 33.7752 98.8192C33.0417 97.7188 33.3595 96.4228 32.6504 95.0046C31.8924 93.4396 30.4008 93.1706 29.3004 91.5323C28.6158 90.5298 29.4472 88.6714 29.2271 86.8864C29.0315 85.2969 27.8333 85.248 27.6866 83.7809C27.4909 81.9958 28.2001 80.7243 28.1512 78.7437C28.1023 77.1298 29.5694 78.4258 29.6917 77.8145C30.1318 75.6382 46.0259 81.3601 59.9394 79.5506C75.4912 77.5455 95.2733 67.1043 106.301 65.0503C107.084 64.9036 115.544 60.8689 116.571 62.4583L116.498 62.5072Z" fill="white"/>
    </mask>
    <g mask="url(#mask0_4632_15710)">
        <path d="M53.095 111.166C53.7796 108.574 56.8851 103.073 54.6355 101.532C52.3859 99.9916 51.53 98.5978 51.53 97.3996C51.53 96.2015 48.1311 95.0033 47.5932 93.096C47.0552 91.1887 46.7862 86.2982 48.9381 81.75C51.0899 77.2018 18.1523 75.05 18.1523 75.05L18.837 98.6223L48.9381 114.272L53.0705 111.166H53.095Z" fill="#EFEEDF"/>
    </g>
    <path d="M116.498 62.5074C117.207 63.6078 112.414 67.0067 113.197 69.5253C113.588 70.7724 114.077 71.0414 114.151 72.2395C114.224 73.3643 112.61 74.8071 112.341 76.3231C111.95 78.4505 112.635 78.7195 112.243 80.5534C111.974 81.8494 111.681 81.6782 110.898 83.83C109.969 86.3731 110.409 86.5932 109.725 87.6935C108.942 88.9406 108.355 88.6961 106.13 90.6523C104.394 92.1928 104.565 92.5107 103.44 93.2931C101.729 94.4913 100.506 94.3202 98.5499 94.907C95.2733 95.8607 95.7623 97.2055 92.0211 98.9906C87.8153 101.02 86.3481 99.7242 83.5606 102.023C82.2646 103.074 81.9956 103.857 80.3573 104.81C78.8168 105.715 78.0832 105.568 75.6135 106.277C71.1142 107.549 71.2854 108.625 68.7668 108.747C66.2971 108.869 66.0281 107.867 63.3139 108.185C61.1621 108.429 60.893 109.114 59.2303 109.016C57.1518 108.869 57.054 107.745 54.7066 107.231C51.919 106.62 51.1121 107.989 49.2292 107.084C47.3953 106.229 47.811 104.761 45.9526 103.93C44.0697 103.123 43.165 104.37 41.3066 103.514C39.6928 102.756 40.0351 101.631 38.2989 100.653C36.2694 99.5286 34.4599 99.8709 33.7752 98.8194C33.0417 97.7191 33.3595 96.4231 32.6504 95.0048C31.8924 93.4399 30.4008 93.1709 29.3004 91.5326C28.6158 90.53 29.4472 88.6716 29.2271 86.8866C29.0315 85.2972 27.8333 85.2483 27.6866 83.7811C27.4909 81.9961 28.2001 80.7246 28.1512 78.7439C28.1023 77.13 29.5694 78.426 29.6917 77.8147C30.1318 75.6385 46.0259 81.3603 59.9394 79.5508C75.4912 77.5457 95.2733 67.1045 106.301 65.0505C107.084 64.9038 115.544 60.8691 116.571 62.4585L116.498 62.5074Z" stroke="#070706" stroke-width="3.46699" stroke-miterlimit="10"/>
    <path d="M58.6278 100.056C58.7574 99.6299 57.9511 99.0074 56.8269 98.6658C55.7027 98.3243 54.6864 98.3931 54.5568 98.8195C54.4273 99.2459 55.2336 99.8684 56.3577 100.21C57.4819 100.552 58.4983 100.483 58.6278 100.056Z" fill="#EFEEDF"/>
    <path d="M57.2666 94.5781C57.4786 93.8803 56.3934 92.9328 54.8429 92.4617C53.2923 91.9906 51.8634 92.1743 51.6514 92.8721C51.4394 93.5698 52.5246 94.5174 54.0751 94.9885C55.6257 95.4596 57.0546 95.2758 57.2666 94.5781Z" fill="#EFEEDF"/>
    <path d="M119.848 57.9128V51.5796L112.341 47.9607V52.4599L108.429 50.7727C99.0877 46.738 87.3016 42.7523 77.9607 46.7625L30.6207 67.3515V65.053L23.1627 64.9796V73.1467C23.1382 75.0296 23.8962 76.9124 25.9258 77.7193L47.0772 85.6908C53.7283 88.3317 61.1374 88.185 67.6907 85.2996L117.109 63.5369C119.481 62.4854 119.897 59.9913 119.897 57.9128H119.848Z" fill="#FAD22A"/>
    <mask id="mask1_4632_15710" style="mask-type:luminance" maskUnits="userSpaceOnUse" x="23" y="45" width="97" height="43">
        <path d="M119.848 57.9138V51.5806L112.341 47.9616V52.4609L108.429 50.7737C99.0877 46.739 87.3016 42.7532 77.9607 46.7634L30.6207 67.3524V65.0539L23.1627 64.9806V73.1477C23.1382 75.0306 23.8962 76.9134 25.9258 77.7203L47.0772 85.6918C53.7283 88.3327 61.1374 88.186 67.6907 85.3006L117.109 63.5379C119.481 62.4864 119.897 59.9922 119.897 57.9138H119.848Z" fill="white"/>
    </mask>
    <g mask="url(#mask1_4632_15710)">
        <path d="M38.1261 70.8956L49.252 76.7397C42.3808 74.1477 30.1056 74.5145 30.6191 79.5028L37.8571 89.8218L15.7031 77.8401L17.5615 56.5908L38.1261 70.8956Z" fill="#FFEB33"/>
        <path d="M71.6013 87.8415L135.789 66.2744L141.022 24.5095C141.022 24.5095 94.4399 82.7065 66.1973 88.6973" fill="#F6A42B"/>
    </g>
    <path d="M119.848 57.9128V51.5796L112.341 47.9607V52.4599L108.429 50.7727C99.0877 46.738 87.3016 42.7523 77.9607 46.7625L30.6207 67.3515V65.053L23.1627 64.9796V73.1467C23.1382 75.0296 23.8962 76.9124 25.9258 77.7193L47.0772 85.6908C53.7283 88.3317 61.1374 88.185 67.6907 85.2996L117.109 63.5369C119.481 62.4854 119.897 59.9913 119.897 57.9128H119.848Z" stroke="#070706" stroke-width="3.46699" stroke-miterlimit="10"/>
    <path d="M47.0311 75.9585L25.8797 67.987C22.1629 66.5199 22.0896 61.287 25.7574 59.6976L77.9391 37.0057C87.2799 32.9955 99.066 36.9568 108.407 41.0159L117.014 44.7327C120.975 46.4443 121 52.044 117.039 53.7801L67.6201 75.5673C61.0913 78.4527 53.6577 78.5994 47.0066 75.9585H47.0311Z" fill="#FAD22A"/>
    <mask id="mask2_4632_15710" style="mask-type:luminance" maskUnits="userSpaceOnUse" x="23" y="35" width="97" height="43">
        <path d="M47.0331 75.959L25.8816 67.9875C22.1649 66.5204 22.0915 61.2875 25.7594 59.6981L77.941 37.0062C87.2819 32.996 99.068 36.9573 108.409 41.0164L117.016 44.7332C120.977 46.4448 121.002 52.0445 117.041 53.7806L67.6221 75.5678C61.0933 78.4532 53.6597 78.5999 47.0086 75.959H47.0331Z" fill="white"/>
    </mask>
    <g mask="url(#mask2_4632_15710)">
        <path d="M97.4778 31.9464C97.4778 31.9464 39.5987 51.4595 48.6461 76.1076C49.2575 77.7459 49.1107 76.2543 47.0323 75.9609C25.294 72.6842 13.7769 58.0617 14.486 58.2573C15.1951 58.4529 86.6942 21.7986 86.6942 21.7986L97.4533 31.9464H97.4778Z" fill="#FFEB33"/>
    </g>
    <path d="M47.0311 75.9585L25.8797 67.987C22.1629 66.5199 22.0896 61.287 25.7574 59.6976L77.9391 37.0057C87.2799 32.9955 99.066 36.9568 108.407 41.0159L117.014 44.7327C120.975 46.4443 121 52.044 117.039 53.7801L67.6201 75.5673C61.0913 78.4527 53.6577 78.5994 47.0066 75.9585H47.0311Z" stroke="#070706" stroke-width="3.46699" stroke-miterlimit="10"/>
    <path d="M47.623 50.5017L86.5515 66.9827V99.26C86.5515 100.385 87.7252 101.094 88.7277 100.605L97.6773 96.1546C98.1908 95.91 98.5087 95.3721 98.5087 94.8097V61.5542L59.5804 45.0732L47.623 50.5017Z" fill="#070706"/>
    <mask id="mask3_4632_15710" style="mask-type:luminance" maskUnits="userSpaceOnUse" x="47" y="45" width="52" height="56">
        <path d="M47.623 50.5024L86.5515 66.9834V99.2607C86.5515 100.386 87.7252 101.095 88.7277 100.606L97.6773 96.1553C98.1908 95.9108 98.5087 95.3728 98.5087 94.8104V61.555L59.5804 45.074L47.623 50.5024Z" fill="white"/>
    </mask>
    <g mask="url(#mask3_4632_15710)">
        <path d="M46.6712 59.0111L76.3566 44.3151L60.169 35.3411L40.8516 45.0732L46.6712 59.0111Z" fill="#68675E"/>
    </g>
    <path d="M47.623 50.5017L86.5515 66.9827V99.26C86.5515 100.385 87.7252 101.094 88.7277 100.605L97.6773 96.1546C98.1908 95.91 98.5087 95.3721 98.5087 94.8097V61.5542L59.5804 45.0732L47.623 50.5017Z" stroke="#070706" stroke-width="3.46699" stroke-miterlimit="10"/>
    <path d="M108.682 49.6967C110.87 49.6967 112.643 48.9193 112.643 47.9605C112.643 47.0017 110.87 46.2244 108.682 46.2244C106.494 46.2244 104.721 47.0017 104.721 47.9605C104.721 48.9193 106.494 49.6967 108.682 49.6967Z" fill="#F6A42B"/>
    <path d="M101.608 50.5532C102.701 50.5532 103.588 50.1701 103.588 49.6974C103.588 49.2247 102.701 48.8416 101.608 48.8416C100.514 48.8416 99.627 49.2247 99.627 49.6974C99.627 50.1701 100.514 50.5532 101.608 50.5532Z" fill="#F6A42B"/>
    <path d="M63.2554 73.0244C65.1461 73.0244 66.6787 72.6412 66.6787 72.1686C66.6787 71.6959 65.1461 71.3127 63.2554 71.3127C61.3647 71.3127 59.832 71.6959 59.832 72.1686C59.832 72.6412 61.3647 73.0244 63.2554 73.0244Z" fill="#F6A42B"/>
</svg>