<svg xmlns="http://www.w3.org/2000/svg" width="144" height="144" viewBox="0 0 144 144" fill="none">
    <path d="M36.6756 92.2158H108.779C110.052 92.2158 111.093 93.2571 111.093 94.5298V97.6074C111.093 105.336 104.823 111.607 97.0938 111.607H48.3844C40.6557 111.607 34.3848 105.336 34.3848 97.6074V94.5298C34.3848 93.2571 35.4261 92.2158 36.6988 92.2158H36.6756Z" fill="#F6A42B"/>
    <mask id="mask0_4632_15523" style="mask-type:luminance" maskUnits="userSpaceOnUse" x="34" y="92" width="78" height="20">
        <path d="M36.6795 92.2163H108.783C110.056 92.2163 111.097 93.2576 111.097 94.5303V97.6079C111.097 105.337 104.826 111.608 97.0977 111.608H48.3883C40.6596 111.608 34.3887 105.337 34.3887 97.6079V94.5303C34.3887 93.2576 35.43 92.2163 36.7027 92.2163H36.6795Z" fill="white"/>
    </mask>
    <g mask="url(#mask0_4632_15523)">
        <path d="M90.1758 119.914V79.4653H122.039V120.377L90.1758 119.914Z" fill="#7F3912"/>
        <path d="M40.0846 89.7153C40.0846 89.7153 39.0201 116.141 44.8745 119.033C48.3918 120.769 27.9824 113.688 27.9824 113.688L30.2501 86.4062L38.3954 87.9103" fill="#EFEEDF"/>
    </g>
    <path d="M36.6756 92.2158H108.779C110.052 92.2158 111.093 93.2571 111.093 94.5298V97.6074C111.093 105.336 104.823 111.607 97.0938 111.607H48.3844C40.6557 111.607 34.3848 105.336 34.3848 97.6074V94.5298C34.3848 93.2571 35.4261 92.2158 36.6988 92.2158H36.6756Z" stroke="#070706" stroke-width="3.46699" stroke-miterlimit="10"/>
    <path d="M113.744 87.6113H31.6441C30.3661 87.6113 29.3301 88.6422 29.3301 89.9137C29.3301 91.1853 30.3661 92.2162 31.6441 92.2162H113.744C115.022 92.2162 116.058 91.1853 116.058 89.9137C116.058 88.6422 115.022 87.6113 113.744 87.6113Z" fill="#FAD22A" stroke="#070706" stroke-width="3.46699" stroke-miterlimit="10"/>
    <path d="M107.913 71.3171H37.4753C32.9768 71.3171 29.3301 74.9639 29.3301 79.4624V79.4855C29.3301 83.984 32.9768 87.6307 37.4753 87.6307H107.913C112.412 87.6307 116.058 83.984 116.058 79.4855V79.4624C116.058 74.9639 112.412 71.3171 107.913 71.3171Z" fill="#7F3912"/>
    <mask id="mask1_4632_15523" style="mask-type:luminance" maskUnits="userSpaceOnUse" x="29" y="71" width="88" height="17">
        <path d="M107.913 71.3171H37.4753C32.9768 71.3171 29.3301 74.9639 29.3301 79.4624V79.4855C29.3301 83.984 32.9768 87.6307 37.4753 87.6307H107.913C112.412 87.6307 116.058 83.984 116.058 79.4855V79.4624C116.058 74.9639 112.412 71.3171 107.913 71.3171Z" fill="white"/>
    </mask>
    <g mask="url(#mask1_4632_15523)">
        <path d="M39.2818 69.7671C39.2818 69.7671 37.5694 87.0988 39.976 92.2127C42.3825 97.3266 22.6211 81.5452 22.6211 81.5452L29.3085 66.6895L39.2587 69.7671H39.2818Z" fill="#DC8A46"/>
    </g>
    <path d="M107.913 71.3171H37.4753C32.9768 71.3171 29.3301 74.9639 29.3301 79.4624V79.4855C29.3301 83.984 32.9768 87.6307 37.4753 87.6307H107.913C112.412 87.6307 116.058 83.984 116.058 79.4855V79.4624C116.058 74.9639 112.412 71.3171 107.913 71.3171Z" stroke="#070706" stroke-width="3.46699" stroke-miterlimit="10"/>
    <path d="M106.502 65.2323C108.006 65.2785 112.032 65.3942 113.814 68.0322C115.179 70.0454 115.041 73.2618 113.513 75.1824C110.598 78.8154 103.332 77.0799 101.226 76.5939C95.3949 75.2056 94.7238 72.7064 90.4892 72.7064C86.648 72.7064 86.4166 74.7428 80.8399 76.5939C78.5259 77.3576 71.098 79.4633 63.5776 76.8948C59.1579 75.3907 58.9265 73.7015 55.3398 73.0073C50.3647 72.0354 48.9763 75.8766 42.1038 76.5939C39.7667 76.8253 34.1205 77.4038 31.8297 74.0948C30.5801 72.2899 30.557 69.652 31.5289 67.7082C33.3106 64.1216 38.2626 63.2885 40.8542 62.8951C68.0899 58.73 91.3454 64.6538 106.525 65.2323H106.502Z" fill="#009133" stroke="#070706" stroke-width="3.46699" stroke-miterlimit="10"/>
    <path d="M112.888 60.374H32.5002C30.7494 60.374 29.3301 61.7882 29.3301 63.5326C29.3301 65.2771 30.7494 66.6912 32.5002 66.6912H112.888C114.639 66.6912 116.058 65.2771 116.058 63.5326C116.058 61.7882 114.639 60.374 112.888 60.374Z" fill="#DD3E3D" stroke="#070706" stroke-width="3.46699" stroke-miterlimit="10"/>
    <path d="M72.7213 23.9951C51.1087 23.9951 33.5918 38.5964 33.5918 56.6223V60.3479H111.828V56.6223C111.828 38.5964 94.3108 23.9951 72.6982 23.9951H72.7213Z" fill="#F6A42B"/>
    <mask id="mask2_4632_15523" style="mask-type:luminance" maskUnits="userSpaceOnUse" x="33" y="23" width="79" height="38">
        <path d="M72.7116 23.9941C51.0989 23.9941 33.582 38.5954 33.582 56.6214V60.3469H111.818V56.6214C111.818 38.5954 94.3011 23.9941 72.6884 23.9941H72.7116Z" fill="white"/>
    </mask>
    <g mask="url(#mask2_4632_15523)">
        <path d="M72.7227 23.9972C72.7227 23.9972 97.6674 26.1724 89.9387 61.4144H120.645V14.5562L72.7227 23.9972Z" fill="#7F3912"/>
        <path d="M44.3982 34.1099C44.3982 34.1099 37.9422 43.8518 39.7934 60.3505C39.7934 60.3505 28.8945 60.5587 28.8945 59.7257C28.8945 58.8927 44.3751 34.1099 44.3751 34.1099H44.3982Z" fill="#EFEEDF"/>
    </g>
    <path d="M72.7213 23.9951C51.1087 23.9951 33.5918 38.5964 33.5918 56.6223V60.3479H111.828V56.6223C111.828 38.5964 94.3108 23.9951 72.6982 23.9951H72.7213Z" stroke="#070706" stroke-width="3.46699" stroke-miterlimit="10"/>
    <path d="M52.8257 46.4203C53.9375 46.4203 54.8388 46.0784 54.8388 45.6567C54.8388 45.2349 53.9375 44.8931 52.8257 44.8931C51.7138 44.8931 50.8125 45.2349 50.8125 45.6567C50.8125 46.0784 51.7138 46.4203 52.8257 46.4203Z" fill="#070706"/>
    <path d="M62.6108 40.9356C64.1444 40.9356 65.3876 40.3762 65.3876 39.6861C65.3876 38.996 64.1444 38.4365 62.6108 38.4365C61.0772 38.4365 59.834 38.996 59.834 39.6861C59.834 40.3762 61.0772 40.9356 62.6108 40.9356Z" fill="#070706"/>
    <path d="M75.3627 48.919C76.8963 48.919 78.1395 48.3596 78.1395 47.6695C78.1395 46.9794 76.8963 46.4199 75.3627 46.4199C73.8291 46.4199 72.5859 46.9794 72.5859 47.6695C72.5859 48.3596 73.8291 48.919 75.3627 48.919Z" fill="#070706"/>
    <path d="M84.8088 40.6831C86.5597 40.6831 87.979 40.02 87.979 39.2021C87.979 38.3842 86.5597 37.7212 84.8088 37.7212C83.058 37.7212 81.6387 38.3842 81.6387 39.2021C81.6387 40.02 83.058 40.6831 84.8088 40.6831Z" fill="#070706"/>
    <path d="M97.65 49.4067C99.0941 49.4067 100.265 48.9094 100.265 48.296C100.265 47.6826 99.0941 47.1853 97.65 47.1853C96.2059 47.1853 95.0352 47.6826 95.0352 48.296C95.0352 48.9094 96.2059 49.4067 97.65 49.4067Z" fill="#070706"/>
</svg>