<svg xmlns="http://www.w3.org/2000/svg" width="144" height="144" viewBox="0 0 144 144" fill="none">
    <path d="M48.9582 58.7886C48.9582 58.7886 49.1182 58.842 49.1716 58.8686C50.9851 59.6154 51.4651 61.8822 52.5586 63.5091C53.812 65.4026 55.9456 66.4427 58.0258 67.1894C58.2924 67.2694 59.4926 67.5094 59.5992 67.7228C59.8126 68.2028 58.4791 67.9628 58.2391 67.9361C56.879 67.8295 55.5189 67.5894 54.2121 67.1894C52.9319 66.816 51.4918 66.3093 50.3184 66.9227C49.8116 67.1894 49.4383 67.5894 49.0116 67.9895C47.0914 69.7497 44.5578 70.6564 42.0242 71.1365C38.6906 71.7765 35.2236 71.8032 31.9433 70.9231C28.663 70.043 25.596 68.3095 23.3558 65.7493C22.6091 64.9225 21.9423 63.9358 21.9157 62.8157C21.8623 61.2155 23.1425 59.802 24.6359 59.2153C26.1294 58.6286 27.7829 58.6819 29.383 58.7353C35.0102 58.9486 40.6641 59.242 46.2646 58.7086C47.1714 58.6286 48.1048 58.5219 48.9582 58.7886Z" fill="#EFEEDF"/>
    <path d="M49.5437 57.0539C51.9972 57.8007 52.9573 60.2009 53.9708 61.9344C55.1175 64.0146 57.8645 65.108 60.1314 65.8281C61.5181 66.3081 62.1049 68.335 60.7981 69.3751C60.0247 69.9885 59.1713 69.8818 58.6112 69.8285C57.4111 69.6685 56.211 69.5084 55.0642 69.1884C53.6774 68.9217 52.1039 67.9616 51.0105 68.3083C49.277 69.8818 45.9967 71.6953 43.4898 72.0153C36.2091 73.5622 27.835 71.882 22.8478 66.0681C19.1141 62.2011 22.9012 57.854 27.3816 57.8807C33.7822 57.7473 39.8894 57.8807 46.1567 57.0006C47.0368 56.8939 48.1569 56.6539 49.5704 57.0539H49.5437ZM48.3969 60.4943C46.05 60.1476 41.0629 60.7076 38.1826 60.3342C34.5556 60.1209 30.9019 59.6942 27.4082 59.5342C25.7281 59.4808 24.0746 59.9342 23.1412 61.161C20.4743 65.268 29.3284 69.7751 32.6621 70.2818C38.6893 71.3219 45.0899 70.2285 49.4103 65.6681C51.6772 64.2813 53.8107 65.4547 55.8376 65.8014C56.7444 66.0148 58.6112 66.1215 59.0646 66.1748C57.7045 66.4415 57.3044 68.495 58.5312 69.2417C55.971 68.8951 52.0506 67.0015 50.5038 63.9079C49.597 62.0144 49.037 60.6543 48.4236 60.5209L48.3969 60.4943Z" fill="#070706"/>
    <path d="M46.0277 63.4828C40.2672 65.0296 34.3199 64.6296 28.5327 63.5895C28.2127 63.5362 28.026 63.2161 28.0794 62.9228C28.1327 62.6294 28.4261 62.4161 28.7194 62.4694C32.9065 63.0028 37.1469 63.0561 41.3073 62.3894C42.6941 62.1494 44.1075 61.8293 45.3077 61.4026C46.7211 60.8959 47.4679 63.0828 46.0011 63.5095L46.0277 63.4828Z" fill="#070706"/>
    <path d="M44.9011 67.1631C41.1941 67.5098 37.5671 68.1232 33.86 67.2431C33.7 67.1898 33.5933 67.0298 33.6467 66.8698C33.7 66.7097 33.8334 66.6297 33.9934 66.6564C37.4337 66.9764 41.0874 65.803 44.4477 64.9762C45.9679 64.5495 46.4746 66.9498 44.9011 67.1631Z" fill="#070706"/>
    <path d="M73.7832 29.3461C73.7832 29.3461 88.9846 28.3594 96.8787 25.1324C113.12 18.4918 131.335 42.1207 118.107 65.1095" fill="#FBD12B"/>
    <path d="M73.7832 29.3461C73.7832 29.3461 88.9846 28.3594 96.8787 25.1324C113.12 18.4918 131.335 42.1207 118.107 65.1095" stroke="#070706" stroke-width="3.46699" stroke-linecap="round" stroke-linejoin="round"/>
    <path d="M108.003 43.5074C103.442 38.4403 97.7351 34.3066 91.4678 31.6396C89.4676 30.7862 87.4141 30.0928 85.3339 29.5861C66.1588 23.9589 50.744 26.8925 50.744 26.8925C48.8771 26.8925 47.0903 27.2392 45.3568 27.7459V27.6393C45.3568 27.6393 44.0767 28.0926 33.6223 31.5063C23.168 34.92 27.9151 37.9602 27.9151 37.9602C27.9685 38.0669 28.1018 38.1203 28.2885 38.2003C27.9418 38.467 27.6218 38.787 27.3017 39.2137C25.0082 42.254 32.6623 53.5084 34.9025 56.6553C34.9025 56.6553 34.9025 56.682 34.9291 56.7087C35.2758 57.1887 35.4892 57.4821 35.4892 57.4821V57.4021C37.7294 60.3624 40.7964 62.6559 44.3434 63.9627C43.3299 65.2962 44.3434 65.4828 52.8508 72.3635C57.2512 75.9105 63.4652 78.6574 69.5991 80.6843C72.5594 81.6444 75.493 82.4445 78.2132 83.0845C80.3468 83.7779 82.4536 84.4713 84.5338 85.3247C88.0542 86.7649 91.5745 88.525 94.1881 91.3253C95.2282 92.4187 96.1083 93.7522 96.2149 95.2723C96.375 97.8859 94.1614 99.9394 92.1079 101.566C89.2809 103.78 85.814 106.02 82.3736 105.06C80.5068 104.527 79.04 103.14 77.3332 102.233C75.6263 101.326 73.2261 101.06 71.9726 102.526C69.9191 104.9 72.8794 108.394 72.8527 111.514C72.8261 114.981 69.2257 117.168 67.1989 119.995C65.5454 122.315 64.9053 125.302 65.4654 128.102C65.6254 128.929 66.0521 129.862 66.8788 129.942C67.1989 129.969 67.4922 129.862 67.8123 129.756C74.3729 127.222 78.6133 120.821 84.5605 117.088C89.1209 114.234 94.5348 113.061 99.4152 110.74C110.243 105.62 117.79 94.7656 120.004 83.0045C120.004 82.8712 120.057 82.7378 120.084 82.5778C120.271 81.591 120.457 80.6309 120.564 79.6442C121.844 66.603 116.804 53.295 108.029 43.5608L108.003 43.5074Z" fill="#EFEEDF"/>
    <mask id="mask0_4632_16153" style="mask-type:luminance" maskUnits="userSpaceOnUse" x="26" y="26" width="95" height="104">
        <path d="M108.001 43.5084C103.44 38.4413 97.7331 34.3075 91.4659 31.6406C89.4657 30.7872 87.4122 30.0938 85.332 29.5871C66.1568 23.9599 50.742 26.8935 50.742 26.8935C48.8752 26.8935 47.0883 27.2402 45.3548 27.7469V27.6402C45.3548 27.6402 44.0747 28.0936 33.6204 31.5073C23.1661 34.9209 27.9132 37.9612 27.9132 37.9612C27.9665 38.0679 28.0999 38.1212 28.2866 38.2012C27.9399 38.4679 27.6198 38.788 27.2998 39.2147C25.0062 42.255 32.6603 53.5094 34.9005 56.6563C34.9005 56.6563 34.9005 56.683 34.9272 56.7097C35.2739 57.1897 35.4872 57.4831 35.4872 57.4831V57.4031C37.7274 60.3633 40.7944 62.6569 44.3414 63.9637C43.328 65.2971 44.3414 65.4838 52.8489 72.3645C57.2493 75.9115 63.4632 78.6584 69.5971 80.6853C72.5574 81.6454 75.491 82.4454 78.2113 83.0855C80.3448 83.7789 82.4517 84.4723 84.5319 85.3257C88.0522 86.7658 91.5725 88.526 94.1861 91.3263C95.2262 92.4197 96.1063 93.7532 96.213 95.2733C96.373 97.8869 94.1595 99.9404 92.1059 101.567C89.279 103.781 85.812 106.021 82.3717 105.061C80.5048 104.528 79.038 103.141 77.3312 102.234C75.6244 101.327 73.2241 101.061 71.9707 102.527C69.9172 104.901 72.8774 108.395 72.8508 111.515C72.8241 114.982 69.2238 117.169 67.1969 119.996C65.5434 122.316 64.9034 125.303 65.4634 128.103C65.6234 128.93 66.0501 129.863 66.8769 129.943C67.1969 129.97 67.4903 129.863 67.8103 129.757C74.3709 127.223 78.6113 120.822 84.5585 117.089C89.119 114.235 94.5328 113.062 99.4133 110.741C110.241 105.621 117.788 94.7666 120.002 83.0055C120.002 82.8721 120.055 82.7388 120.082 82.5788C120.269 81.592 120.455 80.6319 120.562 79.6452C121.842 66.6039 116.802 53.296 108.027 43.5617L108.001 43.5084Z" fill="white"/>
    </mask>
    <g mask="url(#mask0_4632_16153)">
        <path d="M54.0266 65.6441C54.0266 65.6441 54.9867 62.6572 65.1476 64.124C88.5098 67.4576 99.0975 87.6996 96.804 96.7137C96.804 96.7137 87.8431 89.7264 76.002 87.2195C64.1609 84.7126 46.5059 71.5647 46.5059 71.5647L47.9993 65.6441" fill="#FBD12B"/>
        <path d="M64.9863 21.8271C64.9863 21.8271 74.7739 29.8811 73.1471 39.322C71.7603 47.3761 99.3362 44.2292 108.297 54.7635C117.258 65.2712 119.311 76.8189 116.725 92.9271C115.551 100.261 130.273 68.6848 130.273 68.6848L113.498 29.8545L69.8401 17.9333L64.9863 21.8271Z" fill="#178796"/>
    </g>
    <path d="M108.003 43.5074C103.442 38.4403 97.7351 34.3066 91.4678 31.6396C89.4676 30.7862 87.4141 30.0928 85.3339 29.5861C66.1588 23.9589 50.744 26.8925 50.744 26.8925C48.8771 26.8925 47.0903 27.2392 45.3568 27.7459V27.6393C45.3568 27.6393 44.0767 28.0926 33.6223 31.5063C23.168 34.92 27.9151 37.9602 27.9151 37.9602C27.9685 38.0669 28.1018 38.1203 28.2885 38.2003C27.9418 38.467 27.6218 38.787 27.3017 39.2137C25.0082 42.254 32.6623 53.5084 34.9025 56.6553C34.9025 56.6553 34.9025 56.682 34.9291 56.7087C35.2758 57.1887 35.4892 57.4821 35.4892 57.4821V57.4021C37.7294 60.3624 40.7964 62.6559 44.3434 63.9627C43.3299 65.2962 44.3434 65.4828 52.8508 72.3635C57.2512 75.9105 63.4652 78.6574 69.5991 80.6843C72.5594 81.6444 75.493 82.4445 78.2132 83.0845C80.3468 83.7779 82.4536 84.4713 84.5338 85.3247C88.0542 86.7649 91.5745 88.525 94.1881 91.3253C95.2282 92.4187 96.1083 93.7522 96.2149 95.2723C96.375 97.8859 94.1614 99.9394 92.1079 101.566C89.2809 103.78 85.814 106.02 82.3736 105.06C80.5068 104.527 79.04 103.14 77.3332 102.233C75.6263 101.326 73.2261 101.06 71.9726 102.526C69.9191 104.9 72.8794 108.394 72.8527 111.514C72.8261 114.981 69.2257 117.168 67.1989 119.995C65.5454 122.315 64.9053 125.302 65.4654 128.102C65.6254 128.929 66.0521 129.862 66.8788 129.942C67.1989 129.969 67.4922 129.862 67.8123 129.756C74.3729 127.222 78.6133 120.821 84.5605 117.088C89.1209 114.234 94.5348 113.061 99.4152 110.74C110.243 105.62 117.79 94.7656 120.004 83.0045C120.004 82.8712 120.057 82.7378 120.084 82.5778C120.271 81.591 120.457 80.6309 120.564 79.6442C121.844 66.6029 116.804 53.295 108.029 43.5608L108.003 43.5074Z" stroke="#070706" stroke-width="3.46699" stroke-linecap="round" stroke-linejoin="round"/>
    <path d="M34.9043 56.6545C34.9043 56.6545 34.9043 56.6812 34.931 56.7078C35.2777 57.1879 35.491 57.4812 35.491 57.4812V57.4012C39.0114 62.0417 44.5052 65.082 50.7458 65.082C61.3068 65.082 69.8409 56.5211 69.8409 45.9868" stroke="#070706" stroke-width="3.46699" stroke-linecap="round" stroke-linejoin="round"/>
    <path d="M50.8803 57.2154C57.6276 57.9622 64.0816 52.255 64.4816 45.2943C64.4816 45.0009 64.7483 44.7876 65.0416 44.8143C65.3083 44.8143 65.495 45.0276 65.5217 45.2943C65.8151 49.1347 64.5083 53.1884 61.8413 56.2287C59.2011 59.2956 55.1741 61.3492 50.907 61.6159C49.6802 61.7225 48.5601 60.7891 48.5068 59.5623C48.4001 58.2289 49.5735 57.0821 50.907 57.2154H50.8803Z" fill="#070706"/>
    <path d="M48.6364 33.2387C51.7567 31.8785 56.1037 32.892 57.0372 36.4123C57.2239 37.4257 58.1039 39.826 56.7171 40.0127C56.3438 40.0127 55.9971 39.7726 55.9171 39.3993C55.2237 36.359 53.1968 34.8655 50.4499 36.7857C47.8363 38.6259 45.5961 34.3054 48.6097 33.2387H48.6364Z" fill="#070706"/>
    <path d="M26.9784 41.8012C26.9784 41.8012 25.5916 36.174 31.0321 39.0542C35.0592 41.1878 37.8328 46.3082 37.8328 46.3082" stroke="#070706" stroke-width="3.46699" stroke-linecap="round" stroke-linejoin="round"/>
    <path d="M43.7286 46.3367C42.7685 46.7367 40.5016 47.5368 39.8882 48.2035C39.6482 48.6036 39.7549 48.2835 39.7282 48.6569C39.7015 49.0303 40.2349 49.937 40.5016 50.6304C41.035 51.8039 39.5682 52.9506 38.5548 52.2306C36.2345 51.0038 35.0344 47.3234 37.6213 45.5099C38.8481 44.3365 44.6087 42.9764 44.4753 45.4299C44.422 45.8566 44.102 46.1767 43.7286 46.31V46.3367Z" fill="#070706"/>
    <path d="M64.2585 111.941C64.0719 112.155 63.7252 112.208 63.4318 112.181C61.9116 112.128 60.5782 111.221 59.4581 110.208C57.3512 108.288 55.7511 105.701 55.191 102.9C54.6576 100.26 55.1643 96.8465 58.578 96.8198C60.0448 96.8198 61.4583 97.6732 62.2317 98.9267C63.5651 101.114 62.9517 103.887 63.2184 106.421C63.3785 107.968 63.8852 109.461 64.3119 110.954C64.3919 111.248 64.4719 111.595 64.2585 111.915V111.941Z" fill="#EFEEDF"/>
    <mask id="mask1_4632_16153" style="mask-type:luminance" maskUnits="userSpaceOnUse" x="55" y="96" width="10" height="17">
        <path d="M64.2605 111.941C64.0738 112.155 63.7271 112.208 63.4337 112.181C61.9136 112.128 60.5801 111.221 59.46 110.208C57.3532 108.288 55.753 105.701 55.193 102.9C54.6596 100.26 55.1663 96.8465 58.5799 96.8198C60.0468 96.8198 61.4602 97.6732 62.2336 98.9267C63.5671 101.114 62.9537 103.887 63.2204 106.421C63.3804 107.968 63.8871 109.461 64.3138 110.954C64.3938 111.248 64.4738 111.595 64.2605 111.915V111.941Z" fill="white"/>
    </mask>
    <g mask="url(#mask1_4632_16153)">
        <path d="M63.6448 100.419C63.6448 100.419 56.4974 98.8717 57.5642 103.512C58.6309 108.153 60.8178 112.34 60.8178 112.34L56.3641 114.393L50.6035 100.445L53.1904 94.5247L60.3378 93.9646L64.8715 95.6981L63.6448 100.445V100.419Z" fill="white"/>
    </g>
    <path d="M64.2585 111.941C64.0719 112.155 63.7252 112.208 63.4318 112.181C61.9116 112.128 60.5782 111.221 59.4581 110.208C57.3512 108.288 55.7511 105.701 55.191 102.9C54.6576 100.26 55.1643 96.8465 58.578 96.8198C60.0448 96.8198 61.4583 97.6732 62.2317 98.9267C63.5651 101.114 62.9517 103.887 63.2184 106.421C63.3785 107.968 63.8852 109.461 64.3119 110.954C64.3919 111.248 64.4719 111.595 64.2585 111.915V111.941Z" stroke="#070706" stroke-width="3.46699" stroke-linecap="round" stroke-linejoin="round"/>
    <path d="M58.9066 113.78C58.9066 113.78 59.0133 113.94 59.0399 114.047C59.1466 114.5 58.7999 114.9 58.4265 115.194C57.2531 116.18 55.813 116.9 54.2928 117.06C52.7727 117.22 51.1458 116.767 50.0791 115.674C48.4789 114.047 48.4789 110.606 50.8258 109.646C51.5992 109.326 52.5326 109.406 53.1994 109.913C54.0261 110.553 54.2928 111.673 54.9862 112.447C55.5196 113.06 56.3463 113.433 57.1464 113.433C57.4931 113.433 57.8665 113.38 58.2132 113.433C58.4532 113.46 58.7199 113.593 58.8799 113.78H58.9066Z" fill="#EFEEDF" stroke="#070706" stroke-width="3.46699" stroke-linecap="round" stroke-linejoin="round"/>
    <path d="M98.157 32.7052C100.664 31.8518 104.638 30.2783 107.145 29.3183C107.758 29.0516 108.211 30.0117 107.598 30.305C105.278 31.5051 101.571 33.4787 99.2505 34.5988C99.0104 34.7054 98.9838 34.7854 98.3704 34.9188C96.7435 35.1588 96.5569 32.9453 98.1303 32.7052H98.157Z" fill="#070706"/>
    <path d="M102.642 37.2392C105.202 36.6258 109.336 35.479 111.923 34.759C112.616 34.5456 112.989 35.6124 112.296 35.8791C109.869 36.8392 105.975 38.386 103.549 39.2394C103.282 39.3194 103.255 39.3727 102.642 39.4527C101.015 39.5061 101.042 37.3192 102.642 37.2125V37.2392Z" fill="#070706"/>
    <path d="M108.802 44.3873C107.389 44.7873 106.776 42.7338 108.109 42.2804C108.322 42.2271 108.642 42.1471 108.856 42.0937C110.269 41.747 112.856 41.1336 114.27 40.7869C114.963 40.6002 115.283 41.6403 114.643 41.907C112.989 42.6271 110.483 43.6672 108.856 44.3873C108.936 44.3339 109.016 44.3873 109.336 44.0406C109.469 43.9339 109.736 43.3738 109.442 42.8405C109.176 42.3871 108.909 42.3337 108.802 42.2804C108.242 42.1737 108.456 42.2271 108.162 42.2804C109.576 41.8804 110.189 43.9872 108.802 44.4139V44.3873Z" fill="#070706"/>
    <path d="M112.537 46.5752L116.324 46.4685C116.617 46.4685 116.884 46.6819 116.911 46.9752C116.911 47.2152 116.751 47.4286 116.537 47.4819L112.537 48.7887C110.59 49.2154 110.537 46.3085 112.537 46.5485V46.5752Z" fill="#070706"/>
    <path d="M76.6875 108.263C76.6875 108.263 81.2479 110.183 84.2882 109.063L76.6875 108.263Z" fill="#EFEEDF"/>
    <path d="M77.2189 107.035C79.2458 108.075 81.8327 109.036 84.1529 108.556C84.4463 108.502 84.713 108.662 84.7663 108.956C84.8197 109.196 84.6863 109.436 84.473 109.542C83.1395 110.156 81.6994 110.262 80.3126 110.182C78.8191 109.889 74.8454 110.182 75.2721 107.809C75.4855 106.982 76.4722 106.582 77.2189 107.009V107.035Z" fill="#070706"/>
    <path d="M73.0625 121.062C73.0625 121.062 78.6097 115.542 83.5435 113.755L73.0625 121.062Z" fill="#EFEEDF"/>
    <path d="M72.1293 120.129C75.5696 117.329 79.1433 114.715 83.4103 113.382C83.6504 113.302 83.8904 113.435 83.9437 113.675C83.9971 113.888 83.8904 114.102 83.7037 114.208C79.9433 115.995 76.7964 119.036 73.9961 122.049C72.7427 123.463 70.6891 121.409 72.1026 120.156L72.1293 120.129Z" fill="#070706"/>
    <path d="M76.2422 113.303C76.4022 113.09 82.7761 111.489 83.5495 111.383L76.2422 113.303Z" fill="#EFEEDF"/>
    <path d="M75.5716 112.768C75.9183 112.395 76.4783 112.368 76.9317 112.235C79.0919 111.835 81.3588 111.461 83.5457 111.221C83.7057 111.221 83.759 111.461 83.599 111.515C81.5722 112.128 79.3586 112.955 77.3584 113.728C77.2251 113.781 76.8784 113.941 76.745 113.995C76.5584 114.101 76.8784 113.941 76.905 113.835C76.2383 114.742 74.8249 113.648 75.5449 112.768H75.5716Z" fill="#070706"/>
    <path d="M78.0229 48.2013C99.0382 44.761 113.733 57.9356 116.133 78.4175L116.747 86.1249C116.747 86.3116 116.613 86.4716 116.426 86.4983C116.24 86.4983 116.08 86.3649 116.053 86.1783L115.2 78.6042C112.266 59.2157 98.3448 46.9479 78.4762 50.8682C76.7694 51.2149 76.2627 48.548 77.9962 48.2547L78.0229 48.2013Z" fill="#070706"/>
    <path d="M80.5078 57.8045C80.5078 57.8045 80.3478 57.8578 80.2944 57.8845C78.4809 58.6312 78.0009 60.8981 76.9074 62.5249C75.654 64.4184 73.5205 65.4585 71.4403 66.2053C71.1736 66.2853 69.9735 66.5253 69.8668 66.7387C69.6534 67.2187 70.9869 66.9787 71.2269 66.952C72.587 66.8453 73.9472 66.6053 75.254 66.2053C76.5341 65.8319 77.9742 65.3252 79.1477 65.9386C79.6544 66.2053 80.0277 66.6053 80.4544 67.0054C82.3746 68.7655 84.9082 69.6723 87.4418 70.1523C90.7754 70.7924 94.2424 70.819 97.5227 69.939C100.803 69.0589 103.87 67.3254 106.11 64.7651C106.857 63.9384 107.524 62.9516 107.55 61.8315C107.604 60.2314 106.324 58.8179 104.83 58.2312C103.337 57.6445 101.683 57.6978 100.083 57.7511C94.4558 57.9645 88.8019 58.2579 83.2014 57.7245C82.2946 57.6445 81.3612 57.5378 80.5078 57.8045Z" fill="#EFEEDF"/>
    <path d="M81.0927 59.5365C80.4793 59.6965 79.9192 61.03 79.0125 62.9235C77.4657 66.0171 73.5453 67.9106 70.9851 68.2573C72.2118 67.5106 71.7851 65.457 70.4517 65.1904C70.9317 65.137 72.7452 65.057 73.6787 64.817C75.6788 64.4703 77.8124 63.3235 80.0793 64.6836C84.3997 69.2441 90.8003 70.3375 96.8275 69.2974C100.214 68.764 108.989 64.3103 106.348 60.1766C105.415 58.9231 103.762 58.4964 102.081 58.5497C96.8008 58.8164 91.227 59.6165 85.8131 59.4832C84.0796 59.5365 81.7327 59.1631 81.0927 59.5098V59.5365ZM79.9459 56.0962C81.3594 55.6961 82.4795 55.9362 83.3596 56.0428C89.6268 56.8962 95.7341 56.7896 102.135 56.9229C106.562 56.9229 110.429 61.2433 106.668 65.1104C101.681 70.9242 93.3072 72.6044 86.0265 71.0576C83.5463 70.7376 80.2659 68.9507 78.5058 67.3506C77.4123 67.0039 75.8389 67.9373 74.4521 68.2306C73.3053 68.5507 72.0785 68.7107 70.9051 68.8707C70.345 68.924 69.4916 69.0307 68.7182 68.4173C67.4381 67.3772 67.9981 65.3504 69.3849 64.8703C71.6518 64.1503 74.3987 63.0568 75.5455 60.9766C76.5589 59.2431 77.519 56.8429 79.9726 56.0962H79.9459Z" fill="#070706"/>
    <path d="M84.244 60.3915C89.4711 62.125 95.3117 62.0983 100.779 61.4582C101.099 61.4049 101.392 61.6449 101.419 61.9649C101.419 63.9385 81.1503 64.3918 82.7238 61.1115C82.9105 60.4715 83.6306 60.1514 84.244 60.3915Z" fill="#070706"/>
    <path d="M85.0412 64.0182C88.4015 64.8449 92.0552 65.9917 95.4955 65.6983C95.6555 65.6983 95.8156 65.805 95.8422 65.965C95.8422 66.125 95.7622 66.2584 95.6289 66.3117C91.9219 67.1918 88.2948 66.5518 84.5878 66.2317C83.0143 66.0184 83.5211 63.6181 85.0412 64.0449V64.0182Z" fill="#070706"/>
</svg>