<svg xmlns="http://www.w3.org/2000/svg" width="144" height="144" viewBox="0 0 144 144" fill="none">
    <path d="M39.4466 35.5931C38.6577 36.1731 36.4303 37.8205 35.8967 40.4887C35.1774 44.1314 37.892 48.1454 40.5371 50.0247C45.8735 53.8066 51.2564 49.0038 65.8736 46.4748C72.4862 45.3379 92.2079 41.9272 101.141 49.4679C101.86 50.0711 103.902 51.9273 107.127 52.8786C107.428 52.9714 113.971 54.6419 117.452 51.0688C120.329 48.1222 120.027 42.9945 119.238 40.6279C112.672 20.883 49.725 27.9828 39.4234 35.5931H39.4466Z" fill="#F2A430"/>
    <mask id="mask0_4632_15490" style="mask-type:luminance" maskUnits="userSpaceOnUse" x="35" y="27" width="85" height="27">
        <path d="M39.4466 35.5938C38.6577 36.1739 36.4303 37.8212 35.8967 40.4894C35.1774 44.1321 37.892 48.1461 40.5371 50.0254C45.8735 53.8074 51.2564 49.0046 65.8736 46.4755C72.4862 45.3386 92.2079 41.928 101.141 49.4686C101.86 50.0718 103.902 51.928 107.127 52.8793C107.428 52.9721 113.971 54.6426 117.452 51.0695C120.329 48.1229 120.027 42.9952 119.238 40.6286C112.672 20.8838 49.725 27.9836 39.4234 35.5938H39.4466Z" fill="white"/>
    </mask>
    <g mask="url(#mask0_4632_15490)">
        <path d="M46.0416 32.1116C47.6193 31.9956 57.5265 30.6963 56.0648 31.2763C47.8513 34.5942 43.5589 38.6778 43.5357 41.3924C43.5357 46.0328 50.7748 51.0676 53.6286 51.8333C56.4824 52.599 30.125 53.3414 30.125 53.3414L33.6981 32.9933L46.0416 32.1116Z" fill="#F7BF76"/>
    </g>
    <path d="M39.4234 35.5931C38.6345 36.1731 36.4303 37.8205 35.8967 40.4887C35.1774 44.1314 37.892 48.1454 40.5371 50.0247C45.8735 53.8066 51.2564 49.0038 65.8736 46.4748C72.4862 45.3379 92.2079 41.9272 101.141 49.4679C101.86 50.0711 103.902 51.9273 107.127 52.8786C107.428 52.9714 113.971 54.6419 117.452 51.0688C120.329 48.1221 120.027 42.9945 119.238 40.6279C112.672 20.883 49.725 27.9828 39.4234 35.5931Z" stroke="#070706" stroke-width="3.48029" stroke-miterlimit="10"/>
    <path d="M27.5078 114.107C27.7166 114.293 27.9486 114.455 28.227 114.571C29.5495 115.221 31.1505 114.919 32.4266 114.2C33.7027 113.481 34.7004 112.39 35.7212 111.323C43.3779 103.364 52.4035 96.9143 61.3826 90.4874C76.6959 79.5129 92.0092 68.5615 107.323 57.587C108.738 56.5661 110.269 55.3828 110.524 53.6659C110.803 51.8561 110.316 49.5127 108.691 48.6775C105.188 46.8909 101.661 46.0556 98.1345 45.4292C84.0741 42.9466 69.6425 42.5521 55.4661 44.1763C51.7538 44.6171 48.0647 45.174 44.3988 45.8932C42.6122 46.2413 41.3825 46.3109 40.292 47.8654C39.364 49.1647 38.8303 50.696 38.3199 52.181C34.0507 64.826 30.5936 77.7495 27.9718 90.8354C26.8349 96.5663 25.8372 102.367 25.7212 108.237C25.6748 110.348 25.9764 112.808 27.5078 114.107Z" fill="#FAD22A"/>
    <mask id="mask1_4632_15490" style="mask-type:luminance" maskUnits="userSpaceOnUse" x="25" y="43" width="86" height="72">
        <path d="M27.5175 114.106C27.7263 114.292 27.9584 114.454 28.2368 114.57C29.5593 115.22 31.1602 114.918 32.4363 114.199C33.7124 113.48 34.7101 112.389 35.731 111.322C43.3877 103.364 52.4132 96.9136 61.3924 90.4867C76.7057 79.5121 92.019 68.5608 107.332 57.5863C108.748 56.5654 110.279 55.3821 110.534 53.6652C110.813 51.8554 110.325 49.512 108.701 48.6767C105.198 46.8902 101.671 46.0549 98.1443 45.4285C84.0839 42.9458 69.6523 42.5514 55.4759 44.1755C51.7636 44.6164 48.0745 45.1732 44.4085 45.8925C42.622 46.2405 41.3923 46.3101 40.3018 47.8647C39.3737 49.164 38.8401 50.6953 38.3296 52.1802C34.0605 64.8253 30.6034 77.7488 27.9816 90.8347C26.8447 96.5656 25.847 102.366 25.731 108.236C25.6846 110.348 25.9862 112.807 27.5175 114.106Z" fill="white"/>
    </mask>
    <g mask="url(#mask1_4632_15490)">
        <path d="M57.7488 42.4133C57.7488 42.4133 36.5422 56.0097 28.2359 114.571C19.9296 173.133 18.7695 108.771 18.7695 108.771L35.7998 44.3159L57.7488 42.4133Z" fill="#EFEEDF"/>
        <path d="M110.633 49.7671C101.144 44.7787 32.466 102.575 29.4729 110.487C26.5031 118.329 39.821 116.357 39.821 116.357L119.821 57.9342L104.16 44.3611" fill="#F6A42B"/>
    </g>
    <path d="M27.5078 114.107C27.7166 114.293 27.9486 114.455 28.227 114.571C29.5495 115.221 31.1505 114.919 32.4266 114.2C33.7027 113.481 34.7004 112.39 35.7212 111.323C43.3779 103.364 52.4035 96.9143 61.3826 90.4874C76.6959 79.5129 92.0092 68.5615 107.323 57.587C108.738 56.5661 110.269 55.3828 110.524 53.6659C110.803 51.8561 110.316 49.5127 108.691 48.6775C105.188 46.8909 101.661 46.0556 98.1345 45.4292C84.0741 42.9466 69.6425 42.5521 55.4661 44.1763C51.7538 44.6171 48.0647 45.174 44.3988 45.8932C42.6122 46.2413 41.3825 46.3109 40.292 47.8654C39.364 49.1647 38.8303 50.696 38.3199 52.181C34.0507 64.826 30.5936 77.7495 27.9718 90.8354C26.8349 96.5663 25.8372 102.367 25.7212 108.237C25.6748 110.348 25.9764 112.808 27.5078 114.107Z" stroke="#070706" stroke-width="3.48029" stroke-miterlimit="10"/>
    <path d="M40.3822 47.8893L38.7812 52.4369C39.8949 50.8824 41.1015 50.8128 42.888 50.4647C46.5539 49.7455 50.243 49.1886 53.9553 48.7478C68.1317 47.1005 82.5634 47.5181 96.6238 50.0007C99.176 50.4415 101.728 51.0216 104.28 51.9729C105.858 52.5761 107.065 53.8522 107.738 55.3836C108.155 56.3348 108.851 56.8917 109.872 55.2443C110.591 54.0842 110.661 52.9241 110.452 51.9033C110.058 49.9775 108.387 48.4926 106.554 47.7501C103.724 46.59 101.055 45.9404 98.2015 45.4531C84.1411 42.9705 69.7095 42.5761 55.5331 44.2002C51.8208 44.641 48.1317 45.1979 44.4657 45.9172C42.6792 46.2652 41.4495 46.3348 40.359 47.8893L40.2662 48.1445" fill="#E78030"/>
    <path d="M40.3822 47.8893L38.7812 52.4369C39.8949 50.8824 41.1015 50.8128 42.888 50.4647C46.5539 49.7455 50.243 49.1886 53.9553 48.7478C68.1317 47.1005 82.5634 47.5181 96.6238 50.0007C99.176 50.4415 101.728 51.0216 104.28 51.9729C105.858 52.5761 107.065 53.8522 107.738 55.3836C108.155 56.3348 108.851 56.8917 109.872 55.2443C110.591 54.0842 110.661 52.9241 110.452 51.9033C110.058 49.9775 108.387 48.4926 106.554 47.7501C103.724 46.59 101.055 45.9404 98.2015 45.4531C84.1411 42.9705 69.7095 42.5761 55.5331 44.2002C51.8208 44.641 48.1317 45.1979 44.4657 45.9172C42.6792 46.2652 41.4495 46.3348 40.359 47.8893L40.2662 48.1445" stroke="#070706" stroke-width="3.48029" stroke-miterlimit="10"/>
    <path d="M120.012 44.3396C120.012 53.3419 111.265 56.1958 110.569 51.857C109.664 46.3117 104.119 49.3976 104.119 44.3396C104.119 39.2816 107.669 35.1748 112.054 35.1748C116.439 35.1748 119.989 39.2816 119.989 44.3396H120.012Z" fill="#FFC686" stroke="#070706" stroke-width="3.48029" stroke-miterlimit="10"/>
    <path d="M116.225 44.0132C116.225 48.0736 112.954 49.9298 112.629 47.9808C112.211 45.475 108.568 46.055 108.568 43.7812C108.568 41.5074 110.657 39.8833 112.629 39.8833C114.601 39.8833 116.225 41.7395 116.225 44.0132Z" fill="#EB9D69"/>
    <path d="M38.9735 98.3767C35.1451 93.0403 36.3284 84.6412 44.4027 78.8175C52.477 73.017 65.2845 74.5019 62.5931 79.9312C58.9968 87.1934 66.3518 92.321 58.3007 98.1215C50.2496 103.922 42.825 103.713 38.9735 98.3767Z" fill="#DD3E3D" stroke="#070706" stroke-width="3.48029" stroke-miterlimit="10"/>
    <path d="M31.9531 69.4675C33.3684 72.6926 38.6817 73.4583 43.8557 71.1613C49.0298 68.8643 52.046 64.4327 50.6307 61.2076C49.2154 57.9826 41.0251 58.5162 35.8742 60.79C30.7234 63.0638 30.5146 66.2425 31.9531 69.4675Z" fill="#DD3E3D" stroke="#070706" stroke-width="3.20187" stroke-miterlimit="10"/>
    <path d="M74.0609 65.9626C75.1978 68.5149 79.4168 69.1181 83.5236 67.3084C87.6303 65.4986 90.0201 61.9487 88.9064 59.3965C87.7927 56.8443 81.273 57.2619 77.1894 59.0717C73.1059 60.8814 72.924 63.4104 74.0609 65.9626Z" fill="#DD3E3D" stroke="#070706" stroke-width="2.3202" stroke-miterlimit="10"/>
    <path d="M65.3005 70.9056C65.7878 71.9961 67.3423 72.3442 68.7808 71.6945C70.2193 71.0449 71.0082 69.6527 70.5442 68.5854C70.0801 67.5182 67.7135 67.5182 66.2518 68.1446C64.7901 68.7711 64.8133 69.8152 65.3005 70.9056Z" fill="#009133"/>
    <path d="M51.697 58.7959C51.929 59.3295 53.2979 59.2599 54.7596 58.6103C56.2213 57.9606 57.1958 57.0093 56.9406 56.4757C56.6854 55.942 54.5276 56.3829 53.0891 57.0093C51.6505 57.6358 51.4649 58.239 51.697 58.7959Z" fill="#009133"/>
    <path d="M36.197 81.6494C36.429 82.183 37.7979 82.1134 39.2596 81.4638C40.7213 80.8141 41.6958 79.8629 41.4406 79.3292C41.1854 78.7956 39.0276 79.2364 37.5891 79.8629C36.1505 80.4893 35.9649 81.0926 36.197 81.6494Z" fill="#009133"/>
    <path d="M99.9661 35.1746C101.171 35.1746 102.147 34.7279 102.147 34.1769C102.147 33.6259 101.171 33.1792 99.9661 33.1792C98.7616 33.1792 97.7852 33.6259 97.7852 34.1769C97.7852 34.7279 98.7616 35.1746 99.9661 35.1746Z" fill="#070706"/>
    <path d="M93.7884 36.1716C94.9929 36.1716 95.9694 35.725 95.9694 35.174C95.9694 34.6229 94.9929 34.1763 93.7884 34.1763C92.5839 34.1763 91.6074 34.6229 91.6074 35.174C91.6074 35.725 92.5839 36.1716 93.7884 36.1716Z" fill="#070706"/>
</svg>