<svg xmlns="http://www.w3.org/2000/svg" width="144" height="144" viewBox="0 0 144 144" fill="none">
    <path d="M107.743 21.3281L84.8605 50.4509L80.2734 54.8513L86.1407 56.1581L113.21 25.6219L107.743 21.3281Z" fill="#EFEEDF" stroke="#070706" stroke-width="4.00038" stroke-linecap="round" stroke-linejoin="round"/>
    <path d="M117.952 31.7305L88.6956 54.4526L83.1484 57.5996L88.5356 60.2932L122.219 37.2243L117.952 31.7305Z" fill="#EFEEDF" stroke="#070706" stroke-width="4.00038" stroke-linecap="round" stroke-linejoin="round"/>
    <path d="M44.207 101.388V114.429C44.207 117.149 55.6481 121.07 69.7561 121.07C83.8641 121.07 95.3052 117.176 95.3052 114.429V101.388H44.207Z" fill="#EFEEDF"/>
    <mask id="mask0_4632_15958" style="mask-type:luminance" maskUnits="userSpaceOnUse" x="44" y="101" width="52" height="21">
        <path d="M44.2051 101.388V114.43C44.2051 117.15 55.6462 121.07 69.7542 121.07C83.8622 121.07 95.3032 117.177 95.3032 114.43V101.388H44.2051Z" fill="white"/>
    </mask>
    <g mask="url(#mask0_4632_15958)">
        <path d="M84.2949 94.8011V129.071H104.003V92.1609L84.2949 94.8011Z" fill="#CECECE"/>
        <path d="M50.4774 95.5485H37.3828V125.711H53.2777V95.2551L50.4774 95.5485Z" fill="white"/>
    </g>
    <path d="M44.207 101.388V114.429C44.207 117.149 55.6481 121.07 69.7561 121.07C83.8641 121.07 95.3052 117.176 95.3052 114.429V101.388H44.207Z" stroke="#070706" stroke-width="4.00038" stroke-linecap="square" stroke-linejoin="round"/>
    <path d="M115.899 74.6382C113.285 75.8383 109.525 76.9851 104.885 77.8918C95.5504 79.7053 82.9092 80.5321 69.7613 80.5321C56.6134 80.5321 43.5188 79.6253 34.1846 77.8118C29.5442 76.9051 26.2372 75.8383 23.6236 74.6382C21.01 73.198 21.4368 72.3446 21.3301 72.0513C23.4903 95.4935 44.3456 112.242 69.7613 112.242C95.1771 112.242 116.059 95.4935 118.193 72.0513C118.193 72.718 116.939 74.1581 115.899 74.6382Z" fill="#EFEEDF"/>
    <mask id="mask1_4632_15958" style="mask-type:luminance" maskUnits="userSpaceOnUse" x="21" y="72" width="98" height="41">
        <path d="M115.901 74.6382C113.287 75.8383 109.527 76.9851 104.887 77.8918C95.5524 79.7053 82.9112 80.5321 69.7633 80.5321C56.6154 80.5321 43.5208 79.6253 34.1866 77.8118C29.5461 76.9051 26.2392 75.8383 23.6256 74.6382C21.012 73.198 21.4387 72.3446 21.332 72.0513C23.4922 95.4935 44.3475 112.242 69.7633 112.242C95.179 112.242 116.061 95.4935 118.195 72.0513C118.195 72.718 116.941 74.1581 115.901 74.6382Z" fill="white"/>
    </mask>
    <g mask="url(#mask1_4632_15958)">
        <path d="M30.6407 68.0226C30.6407 68.0226 32.4276 96.8253 46.4822 107.066L19.8397 102.933L16.7461 61.4619L30.6407 68.0226Z" fill="white"/>
        <path d="M101.503 72.048C101.503 72.048 105.45 95.1435 85.7949 111.225C71.7935 122.666 131.559 85.6493 131.746 72.048C131.799 67.941 101.503 72.048 101.503 72.048Z" fill="#CECECE"/>
    </g>
    <path d="M115.899 74.6382C113.285 75.8383 109.525 76.9851 104.885 77.8918C95.5504 79.7053 82.9092 80.5321 69.7613 80.5321C56.6134 80.5321 43.5188 79.6253 34.1846 77.8118C29.5442 76.9051 26.2372 75.8383 23.6236 74.6382C21.01 73.198 21.4368 72.3446 21.3301 72.0513C23.4903 95.4935 44.3456 112.242 69.7613 112.242C95.1771 112.242 116.059 95.4935 118.193 72.0513C118.193 72.718 116.939 74.1581 115.899 74.6382Z" stroke="#070706" stroke-width="4.00038" stroke-linecap="square" stroke-linejoin="round"/>
    <path d="M69.7613 80.5329C96.5092 80.5329 118.193 76.7359 118.193 72.0521C118.193 67.3683 96.5092 63.5713 69.7613 63.5713C43.0135 63.5713 21.3301 67.3683 21.3301 72.0521C21.3301 76.7359 43.0135 80.5329 69.7613 80.5329Z" fill="#070706" stroke="#070706" stroke-width="4.00038" stroke-miterlimit="10"/>
    <path d="M110.859 76.5591C111.259 76.4524 110.432 73.8922 110.379 73.4655C110.005 70.5318 110.592 68.265 107.499 64.878C105.765 62.9578 102.965 61.9711 101.338 59.3308C100.405 57.8373 97.2042 53.8103 95.5774 53.2235C94.2439 52.7702 91.9504 52.4768 90.6436 51.9968C88.8034 51.3034 87.5766 49.4632 85.9231 48.3431C83.2029 46.5296 81.2827 47.383 78.2158 46.2896C75.8155 45.4362 73.7087 43.356 69.4149 43.356C65.1212 43.356 63.9477 45.5962 61.8142 46.4229C58.9606 47.543 57.0671 46.6363 54.2401 47.8631C52.56 48.5831 51.1732 49.8632 49.6264 50.85C48.0796 51.8368 46.3461 52.5035 44.5592 52.8235C42.559 53.1969 40.8255 54.637 39.5988 56.3438C37.5986 59.1174 35.065 59.7842 32.9581 62.5311C30.4512 65.7848 31.118 68.665 28.9578 72.052C28.4777 72.7987 26.8776 75.999 29.1711 76.6924C29.5978 76.8258 29.8645 76.8791 30.3712 76.9858C32.4248 77.4392 34.2116 77.8392 36.3451 78.1859C46.8261 79.8927 57.8938 80.5061 68.4815 80.5061C78.1091 80.5061 87.8433 80.1061 97.3909 78.986C100.938 78.586 104.432 77.9459 107.952 77.2258C108.396 77.1369 108.921 77.0125 109.525 76.8525C109.739 76.7991 110.512 76.5858 110.779 76.5324L110.859 76.5591Z" fill="#EFEEDF"/>
    <mask id="mask2_4632_15958" style="mask-type:luminance" maskUnits="userSpaceOnUse" x="27" y="43" width="84" height="38">
        <path d="M110.859 76.5581C111.259 76.4514 110.432 73.8912 110.379 73.4645C110.005 70.5309 110.592 68.264 107.499 64.877C105.765 62.9569 102.965 61.9701 101.338 59.3298C100.405 57.8364 97.2042 53.8093 95.5774 53.2226C94.2439 52.7692 91.9504 52.4759 90.6436 51.9958C88.8034 51.3024 87.5766 49.4622 85.9231 48.3421C83.2029 46.5286 81.2827 47.382 78.2158 46.2886C75.8155 45.4352 73.7087 43.355 69.4149 43.355C65.1212 43.355 63.9477 45.5952 61.8142 46.4219C58.9606 47.542 57.0671 46.6353 54.2401 47.8621C52.56 48.5821 51.1732 49.8623 49.6264 50.849C48.0796 51.8358 46.3461 52.5025 44.5592 52.8226C42.559 53.1959 40.8255 54.636 39.5988 56.3429C37.5986 59.1165 35.065 59.7832 32.9581 62.5301C30.4512 65.7838 31.118 68.664 28.9578 72.051C28.4777 72.7978 26.8776 75.9981 29.1711 76.6915C29.5978 76.8248 29.8645 76.8782 30.3712 76.9848C32.4248 77.4382 34.2116 77.8382 36.3451 78.1849C46.8261 79.8918 57.8938 80.5051 68.4815 80.5051C78.1091 80.5051 87.8433 80.1051 97.3909 78.985C100.938 78.585 104.432 77.9449 107.952 77.2248C108.396 77.1359 108.921 77.0115 109.525 76.8515C109.739 76.7981 110.512 76.5848 110.779 76.5315L110.859 76.5581Z" fill="white"/>
    </mask>
    <g mask="url(#mask2_4632_15958)">
        <path d="M49.6269 50.877C49.6269 50.877 44.0531 57.0375 45.5999 60.0245C47.1467 63.0114 43.6263 66.8518 42.9596 68.1319C42.2929 69.412 43.2797 72.1056 43.733 74.1058C44.1864 76.106 42.0262 78.1328 41.8395 82.3466C41.6528 86.5603 25.2246 74.7192 25.2246 74.7192L40.1327 54.3173L49.6536 50.877H49.6269Z" fill="white"/>
    </g>
    <path d="M110.859 76.5591C111.259 76.4524 110.432 73.8922 110.379 73.4655C110.005 70.5318 110.592 68.265 107.499 64.878C105.765 62.9578 102.965 61.9711 101.338 59.3308C100.405 57.8373 97.2042 53.8103 95.5774 53.2235C94.2439 52.7702 91.9504 52.4768 90.6436 51.9968C88.8034 51.3034 87.5766 49.4632 85.9231 48.3431C83.2029 46.5296 81.2827 47.383 78.2158 46.2896C75.8155 45.4362 73.7087 43.356 69.4149 43.356C65.1212 43.356 63.9477 45.5962 61.8142 46.4229C58.9606 47.543 57.0671 46.6363 54.2401 47.8631C52.56 48.5831 51.1732 49.8632 49.6264 50.85C48.0796 51.8368 46.3461 52.5035 44.5592 52.8235C42.559 53.1969 40.8255 54.637 39.5988 56.3438C37.5986 59.1174 35.065 59.7842 32.9581 62.5311C30.4512 65.7848 31.118 68.665 28.9578 72.052C28.4777 72.7987 26.8776 75.999 29.1711 76.6924C29.5978 76.8258 29.8645 76.8791 30.3712 76.9858C32.4248 77.4392 34.2116 77.8392 36.3451 78.1859C46.8261 79.8927 57.8938 80.5061 68.4815 80.5061C78.1091 80.5061 87.8433 80.1061 97.3909 78.986C100.938 78.586 104.432 77.9459 107.952 77.2258C108.396 77.1369 108.921 77.0125 109.525 76.8525C109.739 76.7991 110.512 76.5858 110.779 76.5324L110.859 76.5591Z" stroke="#070706" stroke-width="4.00038" stroke-miterlimit="10"/>
    <path d="M56.9487 61.3585C58.5975 60.722 59.702 59.6044 59.4155 58.8625C59.1291 58.1205 57.5602 58.035 55.9113 58.6716C54.2625 59.3082 53.158 60.4257 53.4445 61.1677C53.7309 61.9097 55.2998 61.9951 56.9487 61.3585Z" fill="#070706"/>
    <path d="M62.7434 55.106C64.6259 54.3792 65.8767 53.0772 65.5372 52.1978C65.1977 51.3184 63.3964 51.1946 61.514 51.9214C59.6315 52.6482 58.3807 53.9502 58.7202 54.8296C59.0597 55.709 60.861 55.8327 62.7434 55.106Z" fill="#070706"/>
</svg>