<svg xmlns="http://www.w3.org/2000/svg" width="144" height="144" viewBox="0 0 144 144" fill="none">
    <path d="M33.7461 64.7914L59.6642 117.849C61.8138 122.002 79.1577 122.539 94.0832 114.771C109.009 107.003 119.366 97.3539 117.216 93.2256L87.8052 36.6992L33.7461 64.7914Z" fill="#FAD22A"/>
    <mask id="mask0_4632_16102" style="mask-type:luminance" maskUnits="userSpaceOnUse" x="33" y="36" width="85" height="85">
        <path d="M33.7422 64.7904L59.6603 117.848C61.8099 122.001 79.1538 122.538 94.0793 114.77C109.005 107.002 119.362 97.3529 117.213 93.2246L87.8013 36.6982L33.7422 64.7904Z" fill="white"/>
    </mask>
    <g mask="url(#mask0_4632_16102)">
        <path d="M49.0899 56.3652L81.9211 126.327L73.3957 127.524L38.7324 60.3958L49.0899 56.3652Z" fill="white"/>
        <path d="M94.7183 42.5117L128.966 107.417L104.441 119.753L69.7773 52.6249L94.7183 42.5117Z" fill="#F6A42B"/>
        <path d="M71.1738 40.5831L111.211 119.437L122.668 114.185L81.629 30.1279L71.1738 40.5831Z" fill="#7F3912"/>
        <path d="M23.3672 67.5257L63.4046 146.379L74.8614 141.152L33.8224 57.0706L23.3672 67.5257Z" fill="#F6A42B"/>
    </g>
    <path d="M33.7461 64.7914L59.6642 117.849C61.8138 122.002 79.1577 122.539 94.0832 114.771C109.009 107.003 119.366 97.3539 117.216 93.2256L87.8052 36.6992L33.7461 64.7914Z" stroke="#070706" stroke-width="3.46699" stroke-miterlimit="10"/>
    <path d="M109.359 94.6167C105.817 98.403 99.6125 102.873 92.0643 106.782C78.9709 113.597 66.8302 116.162 64.9492 112.522" stroke="#070706" stroke-width="3.46699" stroke-linecap="round" stroke-linejoin="round"/>
    <path d="M91.4447 44.127C91.4447 44.127 101.68 33.6718 107.811 43.2232C113.943 52.7745 124.887 73.3917 122.273 80.0117C120.392 84.7752 115.824 88.2684 113.381 89.8806C112.502 90.4669 111.354 90.1493 110.718 89.1478L109.473 87.1935C108.813 86.1676 109.082 84.7507 110.01 84.2133C112.306 82.9186 115.799 80.2316 115.042 76.3719C113.967 70.7047 105.344 50.9669 102.853 50.3317C100.361 49.6966 95.5486 53.6295 94.6936 55.1929C93.8387 56.7563 88.0248 46.8385 91.4447 44.127Z" fill="#F6A42B"/>
    <mask id="mask1_4632_16102" style="mask-type:luminance" maskUnits="userSpaceOnUse" x="90" y="39" width="33" height="52">
        <path d="M91.4564 44.1275C91.4564 44.1275 101.692 33.6723 107.823 43.2237C113.955 52.775 124.898 73.3922 122.285 80.0122C120.404 84.7757 115.836 88.2689 113.393 89.8811C112.513 90.4674 111.365 90.1498 110.73 89.1483L109.484 87.194C108.825 86.1681 109.093 84.7512 110.022 84.2138C112.318 82.9191 115.811 80.2321 115.054 76.3724C113.979 70.7051 105.356 50.9673 102.864 50.3322C100.373 49.6971 95.5603 53.63 94.7054 55.1934C93.8504 56.7568 88.0365 46.839 91.4564 44.1275Z" fill="white"/>
    </mask>
    <g mask="url(#mask1_4632_16102)">
        <path d="M94.9232 52.186C94.9232 52.186 103.18 39.8499 109.287 52.5525C115.394 65.255 118.276 74.5865 116.786 78.7393C115.296 82.892 100.346 80.1317 100.346 80.1317L109.36 72.2903L103.058 58.977L92.627 51.2334" fill="#7F3912"/>
    </g>
    <path d="M91.4447 44.127C91.4447 44.127 101.68 33.6718 107.811 43.2232C113.943 52.7745 124.887 73.3917 122.273 80.0117C120.392 84.7752 115.824 88.2684 113.381 89.8806C112.502 90.4669 111.354 90.1493 110.718 89.1478L109.473 87.1935C108.813 86.1676 109.082 84.7507 110.01 84.2133C112.306 82.9186 115.799 80.2316 115.042 76.3719C113.967 70.7047 105.344 50.9669 102.853 50.3317C100.361 49.6966 95.5486 53.6295 94.6936 55.1929C93.8387 56.7563 88.0248 46.8385 91.4447 44.127Z" stroke="#070706" stroke-width="3.46699" stroke-miterlimit="10"/>
    <path d="M89.1293 43.3933C88.8606 41.781 89.227 40.0955 90.6438 39.4603C91.9874 38.8741 93.5019 39.5581 94.9187 39.8756C96.3355 40.1932 98.3142 39.7535 98.4364 38.2878C98.4608 37.9214 98.3631 37.555 98.2654 37.1885C97.8012 35.503 97.3371 33.8419 96.8485 32.1564C96.2378 29.9823 95.5294 27.6616 93.7706 26.2448C91.4255 24.3639 87.7858 24.5837 85.685 22.4341C85.2453 21.9943 84.8544 21.4325 84.2437 21.2615C83.3887 21.0417 82.5826 21.7012 81.7521 22.0188C79.236 22.9226 76.6955 20.431 74.0328 20.602C71.3213 20.773 69.4159 23.6555 66.7044 23.9974C63.5044 24.3883 60.7196 21.0417 57.4951 21.4081C54.8324 21.7256 53.2202 24.4127 51.6324 26.5868C49.043 30.2021 45.5009 33.1579 41.4947 35.0633C38.0993 36.6756 34.4106 37.555 30.893 38.8985C28.3281 39.8756 25.7876 41.1703 23.7845 43.0757C21.7814 44.9811 20.8775 47.9124 20.7065 50.6728C20.5844 52.6515 20.8043 54.6301 21.3661 56.5355C22.4654 60.2486 24.8104 63.6196 28.1082 65.6716C29.6228 66.6243 31.748 67.2594 33.0915 66.0868C33.5557 65.696 33.8732 65.1097 34.3618 64.7433C35.9007 63.5219 38.2458 64.841 39.1741 66.551C40.1024 68.2609 40.2978 70.3373 41.2749 72.0228C42.3986 73.9282 44.646 75.174 46.8445 74.9786C49.043 74.7832 51.0705 73.0488 51.4614 70.8503C51.7789 69.0915 51.0949 67.3327 50.411 65.7204C49.727 64.1082 48.9697 62.3982 49.0918 60.615C49.214 58.8317 50.6308 57.0241 52.3896 57.1218C53.8797 57.1951 55.2721 58.5875 56.7134 58.0989C58.3745 57.537 58.3256 55.2164 59.1073 53.653C60.1089 51.6499 63.0402 50.9415 64.8479 52.2606C65.6052 52.8224 66.1426 53.653 66.851 54.2637C67.5594 54.8744 68.6342 55.2897 69.4648 54.8011C70.6129 54.1171 70.3686 52.4072 69.9045 51.1613C69.4404 49.9155 69.0251 48.3033 70.0266 47.4239C70.8572 46.691 72.2007 47.0086 73.1778 47.5704C75.6451 49.0117 77.2329 51.5766 78.4543 54.166C79.6757 56.7554 80.6528 59.4913 82.3628 61.7875C84.0727 64.0837 86.7354 65.9403 89.5934 65.7449C92.1828 65.5739 94.479 63.6929 95.4561 61.299C96.4333 58.905 96.2134 56.1202 95.163 53.7507C93.7462 50.5751 90.9858 48.1567 89.569 44.9811C89.3492 44.4925 89.1782 43.9307 89.1049 43.3688L89.1293 43.3933Z" fill="#EFEEDF"/>
    <mask id="mask2_4632_16102" style="mask-type:luminance" maskUnits="userSpaceOnUse" x="20" y="20" width="79" height="55">
        <path d="M89.1293 43.3925C88.8606 41.7803 89.227 40.0947 90.6438 39.4596C91.9874 38.8733 93.5019 39.5573 94.9187 39.8749C96.3355 40.1925 98.3142 39.7528 98.4364 38.2871C98.4608 37.9207 98.3631 37.5542 98.2654 37.1878C97.8012 35.5023 97.3371 33.8412 96.8485 32.1557C96.2378 29.9816 95.5294 27.6609 93.7706 26.2441C91.4255 24.3631 87.7858 24.583 85.685 22.4333C85.2453 21.9936 84.8544 21.4318 84.2437 21.2608C83.3887 21.0409 82.5826 21.7005 81.7521 22.018C79.236 22.9219 76.6955 20.4302 74.0328 20.6012C71.3213 20.7722 69.4159 23.6547 66.7044 23.9967C63.5044 24.3876 60.7196 21.0409 57.4951 21.4073C54.8324 21.7249 53.2202 24.412 51.6324 26.5861C49.043 30.2014 45.5009 33.1572 41.4947 35.0626C38.0993 36.6748 34.4106 37.5542 30.893 38.8978C28.3281 39.8749 25.7876 41.1696 23.7845 43.075C21.7814 44.9803 20.8775 47.9117 20.7065 50.6721C20.5844 52.6507 20.8043 54.6294 21.3661 56.5348C22.4654 60.2478 24.8104 63.6189 28.1082 65.6708C29.6228 66.6235 31.748 67.2586 33.0915 66.0861C33.5557 65.6953 33.8732 65.109 34.3618 64.7426C35.9007 63.5212 38.2458 64.8403 39.1741 66.5502C40.1024 68.2602 40.2978 70.3366 41.2749 72.0221C42.3986 73.9275 44.646 75.1733 46.8445 74.9779C49.043 74.7825 51.0705 73.0481 51.4614 70.8496C51.7789 69.0907 51.0949 67.3319 50.411 65.7197C49.727 64.1074 48.9697 62.3975 49.0918 60.6142C49.214 58.831 50.6308 57.0233 52.3896 57.121C53.8797 57.1943 55.2721 58.5867 56.7134 58.0982C58.3745 57.5363 58.3256 55.2157 59.1073 53.6523C60.1089 51.6492 63.0402 50.9408 64.8479 52.2599C65.6052 52.8217 66.1426 53.6523 66.851 54.263C67.5594 54.8737 68.6342 55.2889 69.4648 54.8004C70.6129 54.1164 70.3686 52.4064 69.9045 51.1606C69.4404 49.9148 69.0251 48.3025 70.0266 47.4231C70.8572 46.6903 72.2007 47.0079 73.1778 47.5697C75.6451 49.011 77.2329 51.5759 78.4543 54.1653C79.6757 56.7546 80.6528 59.4906 82.3628 61.7868C84.0727 64.083 86.7354 65.9395 89.5934 65.7441C92.1828 65.5731 94.479 63.6922 95.4561 61.2982C96.4333 58.9043 96.2134 56.1195 95.163 53.75C93.7462 50.5743 90.9858 48.156 89.569 44.9803C89.3492 44.4918 89.1782 43.9299 89.1049 43.3681L89.1293 43.3925Z" fill="white"/>
    </mask>
    <g mask="url(#mask2_4632_16102)">
        <path d="M42.1551 32.2292C42.1551 32.2292 34.216 43.3684 31.1137 47.7654C24.4204 57.2679 38.7352 77.0301 44.1093 78.0317C49.4835 79.0332 19.1684 71.0697 19.1684 71.0697L15.0156 42.9531L28.109 36.6996L42.1795 32.2292H42.1551Z" fill="white"/>
        <path d="M100.706 25.5599C100.706 25.5599 86.1468 34.5982 67.1662 33.6211C51.7033 32.815 29.1563 45.7374 26.9578 40.7297C22.7318 31.1295 37.6328 33.4746 37.6328 33.4746L59.7157 15.5688L90.3728 17.4009L100.706 25.5599Z" fill="white"/>
        <path d="M71.6348 51.8693C71.6348 51.8693 75.641 49.573 79.9647 51.5273C84.2885 53.4815 88.6122 62.0313 92.3985 59.0022C96.1849 55.9732 94.3039 44.7852 94.3039 44.7852L97.6017 52.3578L98.7742 67.3566L82.6029 68.3826L71.6592 51.8693H71.6348Z" fill="#CECECE"/>
        <path d="M51.703 67.4043C51.703 67.4043 49.6999 71.7281 46.7686 71.6792C42.0784 71.6059 39.489 60.3446 36.3867 65.5234C33.2843 70.7021 46.793 79.5206 46.793 79.5206L55.5626 71.0685L51.703 67.4043Z" fill="#CECECE"/>
        <path d="M90.377 23.6064C90.377 23.6064 97.2412 30.5928 93.2106 35.283C89.18 39.9732 94.3099 44.7611 94.3099 44.7611L106.524 33.4021L90.377 23.6064Z" fill="#CECECE"/>
    </g>
    <path d="M89.1293 43.3933C88.8606 41.781 89.227 40.0955 90.6438 39.4603C91.9874 38.8741 93.5019 39.5581 94.9187 39.8756C96.3356 40.1932 98.3142 39.7535 98.4364 38.2878C98.4608 37.9214 98.3631 37.555 98.2654 37.1885C97.8012 35.503 97.3371 33.8419 96.8485 32.1564C96.2378 29.9823 95.5294 27.6616 93.7706 26.2448C91.4255 24.3639 87.7858 24.5837 85.685 22.4341C85.2453 21.9943 84.8544 21.4325 84.2437 21.2615C83.3887 21.0417 82.5826 21.7012 81.7521 22.0188C79.236 22.9226 76.6955 20.431 74.0328 20.602C71.3213 20.773 69.4159 23.6555 66.7044 23.9974C63.5044 24.3883 60.7196 21.0417 57.4951 21.4081C54.8324 21.7256 53.2202 24.4127 51.6324 26.5868C49.043 30.2021 45.5009 33.1579 41.4947 35.0633C38.0993 36.6756 34.4106 37.555 30.893 38.8985C28.3281 39.8756 25.7876 41.1703 23.7845 43.0757C21.7814 44.9811 20.8775 47.9124 20.7065 50.6728C20.5844 52.6515 20.8043 54.6301 21.3661 56.5355C22.4654 60.2486 24.8104 63.6196 28.1082 65.6716C29.6228 66.6243 31.748 67.2594 33.0915 66.0868C33.5557 65.696 33.8732 65.1097 34.3618 64.7433C35.9007 63.5219 38.2458 64.841 39.1741 66.551C40.1024 68.2609 40.2978 70.3373 41.2749 72.0228C42.3986 73.9282 44.646 75.174 46.8445 74.9786C49.043 74.7832 51.0705 73.0488 51.4614 70.8503C51.7789 69.0915 51.0949 67.3327 50.411 65.7204C49.727 64.1082 48.9697 62.3982 49.0918 60.615C49.214 58.8317 50.6308 57.0241 52.3896 57.1218C53.8797 57.1951 55.2721 58.5875 56.7134 58.0989C58.3745 57.537 58.3256 55.2164 59.1073 53.653C60.1089 51.6499 63.0402 50.9415 64.8479 52.2606C65.6052 52.8225 66.1426 53.653 66.851 54.2637C67.5594 54.8744 68.6342 55.2897 69.4648 54.8011C70.6129 54.1171 70.3686 52.4072 69.9045 51.1613C69.4404 49.9155 69.0251 48.3033 70.0266 47.4239C70.8572 46.691 72.2007 47.0086 73.1778 47.5704C75.6451 49.0117 77.2329 51.5766 78.4543 54.166C79.6757 56.7554 80.6528 59.4913 82.3628 61.7875C84.0727 64.0837 86.7354 65.9403 89.5934 65.7448C92.1828 65.5739 94.479 63.6929 95.4561 61.299C96.4333 58.905 96.2134 56.1202 95.163 53.7507C93.7462 50.5751 90.9858 48.1567 89.569 44.9811C89.3492 44.4925 89.1782 43.9307 89.1049 43.3688L89.1293 43.3933Z" stroke="#070706" stroke-width="3.46699" stroke-miterlimit="10"/>
    <path d="M80.0244 25.8788C76.7511 26.5872 75.1388 28.6147 75.1632 32.0346C75.1388 36.1141 70.6685 38.0683 67.1997 37.4332C66.3692 37.3599 66.3447 36.0897 67.1753 35.992C68.6898 35.7721 70.1799 35.479 71.3036 34.8438C74.2105 33.3782 72.696 28.9811 75.1877 26.978C76.5312 25.6834 78.3144 25.2681 79.9267 25.2437C80.2931 25.2437 80.3664 25.7811 80 25.8544L80.0244 25.8788Z" fill="#070706"/>
    <path d="M27.3078 52.7986C28.8224 53.6292 31.2163 51.7238 33.3171 52.1635C34.7339 52.5055 35.9553 53.3849 37.0057 54.3865C38.8134 56.7315 40.8654 59.7362 44.1631 57.3422C44.2853 57.2445 44.4807 57.4155 44.383 57.5377C43.6257 59.3453 41.2073 60.298 39.3753 59.443C36.6637 58.3926 35.882 55.3147 33.2194 54.191C31.2163 53.4582 28.6514 55.4857 26.6238 53.8002C26.0376 53.3605 26.6238 52.4078 27.2834 52.7498L27.3078 52.7986Z" fill="#070706"/>
    <path d="M63.2428 80.6444C63.6761 80.542 63.8084 79.5329 63.5384 78.3907C63.2684 77.2484 62.6982 76.4055 62.265 76.5079C61.8317 76.6103 61.6994 77.6193 61.9694 78.7616C62.2394 79.9038 62.8095 80.7468 63.2428 80.6444Z" fill="#EFEEDF"/>
    <path d="M40.5304 45.9712C42.0039 45.3006 42.9538 44.2195 42.652 43.5564C42.3503 42.8933 40.9111 42.8994 39.4376 43.57C37.9641 44.2406 37.0142 45.3217 37.3159 45.9848C37.6177 46.6479 39.0569 46.6418 40.5304 45.9712Z" fill="#070706"/>
    <path d="M61.7377 36.019C63.42 35.2534 64.4938 33.9957 64.1361 33.2098C63.7785 32.4239 62.1248 32.4075 60.4425 33.1731C58.7602 33.9387 57.6864 35.1964 58.0441 35.9823C58.4017 36.7682 60.0554 36.7846 61.7377 36.019Z" fill="#070706"/>
    <path d="M77.9018 38.7845C79.2893 38.153 80.1967 37.1633 79.9285 36.5739C79.6603 35.9845 78.318 36.0186 76.9304 36.6501C75.5428 37.2815 74.6354 38.2713 74.9037 38.8607C75.1719 39.4501 76.5142 39.416 77.9018 38.7845Z" fill="#070706"/>
    <path d="M54.558 74.6376C60.8604 85.4347 66.1124 96.8426 70.5339 108.544C70.6805 108.983 70.4606 109.472 70.0209 109.618C69.6301 109.765 69.2148 109.618 69.0194 109.252C64.3048 101.117 60.323 92.641 56.5611 84.0423C55.3641 81.1598 54.1672 78.2529 53.1656 75.2971C52.8481 74.4666 54.1183 73.8559 54.558 74.6376Z" fill="#070706"/>
    <path d="M69.3621 69.6286C76.4706 79.986 82.5043 90.9542 86.9747 102.728C87.1457 103.217 86.9014 103.779 86.4128 103.95C85.9975 104.096 85.5578 103.95 85.3136 103.608C81.6249 98.478 78.5714 93.0306 75.6645 87.5099C72.8064 81.9403 70.0949 76.3218 67.9453 70.3858C67.6033 69.5309 68.8491 68.8713 69.3621 69.6286Z" fill="#070706"/>
    <path d="M82.2391 61.1521C88.9812 71.6806 95.0882 82.6487 100.023 94.1543C100.242 94.6917 99.9738 95.278 99.4608 95.4978C98.9967 95.6933 98.4593 95.4978 98.215 95.107C93.134 87.2168 88.8835 78.838 84.8284 70.3859C83.4849 67.5522 82.1902 64.7186 81.0177 61.7872C80.7001 61.0544 81.7994 60.4437 82.2391 61.1521Z" fill="#070706"/>
    <path d="M71.2284 42.7568C79.0698 39.6056 80.5843 52.7723 85.7386 55.5571C86.3493 55.7036 86.105 56.6563 85.4943 56.5097C80.2423 54.9219 78.0682 41.7797 71.9612 44.027C71.1551 44.4912 70.4223 43.2209 71.2528 42.7568H71.2284Z" fill="#070706"/>
    <path d="M62.8209 42.9545C64.482 43.3209 62.5277 45.4706 58.3017 45.4706C54.0757 45.4706 51.242 44.4691 48.6771 47.1317C46.1121 49.7944 43.2785 49.6722 46.3076 44.7622C49.3366 39.8522 58.0086 42.3927 59.5475 42.4904C61.0865 42.5881 62.8209 42.9301 62.8209 42.9301V42.9545Z" fill="#CECECE"/>
    <path d="M61.0316 43.1967C58.0514 43.5143 55.0712 43.3188 52.1643 43.5631C49.0864 43.6853 46.9856 44.2227 45.4466 47.154C45.3733 47.3006 45.1535 47.2273 45.1535 47.0807C44.8359 43.0501 48.6222 41.5112 52.0177 41.4623C55.0712 41.2425 58.1247 41.5845 61.1294 41.9509C61.8866 42.0486 61.7889 43.1967 61.0316 43.1967Z" fill="#070706"/>
    <path d="M65.6462 74.3586C66.2657 73.9753 66.0773 72.5485 65.2254 71.1718C64.3735 69.7951 63.1807 68.9899 62.5612 69.3732C61.9417 69.7566 62.1301 71.1834 62.982 72.5601C63.8339 73.9367 65.0267 74.742 65.6462 74.3586Z" fill="#EFEEDF"/>
    <path d="M68.0733 84.7967C68.5781 84.4843 68.5787 83.5708 68.0746 82.7563C67.5706 81.9417 66.7528 81.5346 66.248 81.847C65.7432 82.1594 65.7426 83.0729 66.2466 83.8874C66.7507 84.702 67.5685 85.1091 68.0733 84.7967Z" fill="#EFEEDF"/>
</svg>